{"asset":{"version":"2.0","generator":"Blockbench 4.8.3 glTF exporter"},"scenes":[{"nodes":[20],"name":"blockbench_export"}],"scene":0,"nodes":[{"name":"cube","mesh":0},{"translation":[-0.21875,0.09375,0.34375],"name":"cube","mesh":1},{"translation":[-0.21875,-0.046875,-0.203125],"name":"leftflipper","children":[1]},{"translation":[0.21875,0.09375,0.34375],"name":"cube","mesh":2},{"translation":[0.21875,-0.046875,-0.203125],"name":"rightflipper","children":[3]},{"translation":[-0.03125,0.15625,-0.375],"name":"cube","mesh":3},{"translation":[-0.0625,0.203125,-0.75],"name":"cube","mesh":4},{"translation":[-0.03125,0.28125,-0.375],"name":"cube","mesh":5},{"translation":[-0.09375,0.140625,-0.796875],"name":"cube","mesh":6},{"translation":[-0.03125,0.09375,-0.3812500000000001],"name":"cube","mesh":7},{"translation":[0.03125,0.09375,-0.3812500000000001],"name":"cube","mesh":8},{"translation":[0,0.0625,-0.3125],"name":"head","children":[5,6,7,8,9,10]},{"translation":[0.0625,0.03125,0.46875],"name":"cube","mesh":9},{"translation":[0,0.09375,0.40625],"name":"cube","mesh":10},{"translation":[0,0,0.1875],"name":"cube","mesh":11},{"translation":[0,0,0.28125],"name":"tail3","children":[14]},{"translation":[0,0,0.375],"name":"tail2","children":[13,15]},{"translation":[0,0,0.34375],"name":"tail","children":[12,16]},{"translation":[0,0.21875,-0.125],"name":"body","children":[0,2,4,11,17]},{"name":"dewgong","children":[18]},{"children":[19]}],"bufferViews":[{"buffer":0,"byteOffset":0,"byteLength":288,"target":34962,"byteStride":12},{"buffer":0,"byteOffset":288,"byteLength":288,"target":34962,"byteStride":12},{"buffer":0,"byteOffset":576,"byteLength":192,"target":34962,"byteStride":8},{"buffer":0,"byteOffset":768,"byteLength":72,"target":34963},{"buffer":0,"byteOffset":840,"byteLength":288,"target":34962,"byteStride":12},{"buffer":0,"byteOffset":1128,"byteLength":288,"target":34962,"byteStride":12},{"buffer":0,"byteOffset":1416,"byteLength":192,"target":34962,"byteStride":8},{"buffer":0,"byteOffset":1608,"byteLength":72,"target":34963},{"buffer":0,"byteOffset":1680,"byteLength":288,"target":34962,"byteStride":12},{"buffer":0,"byteOffset":1968,"byteLength":288,"target":34962,"byteStride":12},{"buffer":0,"byteOffset":2256,"byteLength":192,"target":34962,"byteStride":8},{"buffer":0,"byteOffset":2448,"byteLength":72,"target":34963},{"buffer":0,"byteOffset":2520,"byteLength":288,"target":34962,"byteStride":12},{"buffer":0,"byteOffset":2808,"byteLength":288,"target":34962,"byteStride":12},{"buffer":0,"byteOffset":3096,"byteLength":192,"target":34962,"byteStride":8},{"buffer":0,"byteOffset":3288,"byteLength":72,"target":34963},{"buffer":0,"byteOffset":3360,"byteLength":288,"target":34962,"byteStride":12},{"buffer":0,"byteOffset":3648,"byteLength":288,"target":34962,"byteStride":12},{"buffer":0,"byteOffset":3936,"byteLength":192,"target":34962,"byteStride":8},{"buffer":0,"byteOffset":4128,"byteLength":72,"target":34963},{"buffer":0,"byteOffset":4200,"byteLength":288,"target":34962,"byteStride":12},{"buffer":0,"byteOffset":4488,"byteLength":288,"target":34962,"byteStride":12},{"buffer":0,"byteOffset":4776,"byteLength":192,"target":34962,"byteStride":8},{"buffer":0,"byteOffset":4968,"byteLength":72,"target":34963},{"buffer":0,"byteOffset":5040,"byteLength":288,"target":34962,"byteStride":12},{"buffer":0,"byteOffset":5328,"byteLength":288,"target":34962,"byteStride":12},{"buffer":0,"byteOffset":5616,"byteLength":192,"target":34962,"byteStride":8},{"buffer":0,"byteOffset":5808,"byteLength":72,"target":34963},{"buffer":0,"byteOffset":5880,"byteLength":288,"target":34962,"byteStride":12},{"buffer":0,"byteOffset":6168,"byteLength":288,"target":34962,"byteStride":12},{"buffer":0,"byteOffset":6456,"byteLength":192,"target":34962,"byteStride":8},{"buffer":0,"byteOffset":6648,"byteLength":72,"target":34963},{"buffer":0,"byteOffset":6720,"byteLength":288,"target":34962,"byteStride":12},{"buffer":0,"byteOffset":7008,"byteLength":288,"target":34962,"byteStride":12},{"buffer":0,"byteOffset":7296,"byteLength":192,"target":34962,"byteStride":8},{"buffer":0,"byteOffset":7488,"byteLength":72,"target":34963},{"buffer":0,"byteOffset":7560,"byteLength":288,"target":34962,"byteStride":12},{"buffer":0,"byteOffset":7848,"byteLength":288,"target":34962,"byteStride":12},{"buffer":0,"byteOffset":8136,"byteLength":192,"target":34962,"byteStride":8},{"buffer":0,"byteOffset":8328,"byteLength":72,"target":34963},{"buffer":0,"byteOffset":8400,"byteLength":288,"target":34962,"byteStride":12},{"buffer":0,"byteOffset":8688,"byteLength":288,"target":34962,"byteStride":12},{"buffer":0,"byteOffset":8976,"byteLength":192,"target":34962,"byteStride":8},{"buffer":0,"byteOffset":9168,"byteLength":72,"target":34963},{"buffer":0,"byteOffset":9240,"byteLength":288,"target":34962,"byteStride":12},{"buffer":0,"byteOffset":9528,"byteLength":288,"target":34962,"byteStride":12},{"buffer":0,"byteOffset":9816,"byteLength":192,"target":34962,"byteStride":8},{"buffer":0,"byteOffset":10008,"byteLength":72,"target":34963},{"buffer":0,"byteOffset":10080,"byteLength":4},{"buffer":0,"byteOffset":10084,"byteLength":16},{"buffer":0,"byteOffset":10100,"byteLength":4},{"buffer":0,"byteOffset":10104,"byteLength":16},{"buffer":0,"byteOffset":10120,"byteLength":4},{"buffer":0,"byteOffset":10124,"byteLength":16},{"buffer":0,"byteOffset":10140,"byteLength":4},{"buffer":0,"byteOffset":10144,"byteLength":16},{"buffer":0,"byteOffset":10160,"byteLength":4},{"buffer":0,"byteOffset":10164,"byteLength":16},{"buffer":0,"byteOffset":10180,"byteLength":4},{"buffer":0,"byteOffset":10184,"byteLength":16},{"buffer":0,"byteOffset":10200,"byteLength":4},{"buffer":0,"byteOffset":10204,"byteLength":16},{"buffer":0,"byteOffset":10220,"byteLength":4},{"buffer":0,"byteOffset":10224,"byteLength":12},{"buffer":0,"byteOffset":10236,"byteLength":4},{"buffer":0,"byteOffset":10240,"byteLength":16},{"buffer":0,"byteOffset":10256,"byteLength":4},{"buffer":0,"byteOffset":10260,"byteLength":16},{"buffer":0,"byteOffset":10276,"byteLength":4},{"buffer":0,"byteOffset":10280,"byteLength":16},{"buffer":0,"byteOffset":10296,"byteLength":4},{"buffer":0,"byteOffset":10300,"byteLength":16},{"buffer":0,"byteOffset":10316,"byteLength":4},{"buffer":0,"byteOffset":10320,"byteLength":16},{"buffer":0,"byteOffset":10336,"byteLength":4},{"buffer":0,"byteOffset":10340,"byteLength":12},{"buffer":0,"byteOffset":10352,"byteLength":4},{"buffer":0,"byteOffset":10356,"byteLength":16},{"buffer":0,"byteOffset":10372,"byteLength":4},{"buffer":0,"byteOffset":10376,"byteLength":16},{"buffer":0,"byteOffset":10392,"byteLength":4},{"buffer":0,"byteOffset":10396,"byteLength":16}],"buffers":[{"byteLength":10412,"uri":"data:application/octet-stream;base64,"}],"accessors":[{"bufferView":0,"componentType":5126,"count":24,"max":[0.21875,0.21875,0.34375],"min":[-0.21875,-0.21875,-0.34375],"type":"VEC3"},{"bufferView":1,"componentType":5126,"count":24,"max":[1,1,1],"min":[-1,-1,-1],"type":"VEC3"},{"bufferView":2,"componentType":5126,"count":24,"max":[0.562255859375,0.281005859375],"min":[0.000244140625,0.000244140625],"type":"VEC2"},{"bufferView":3,"componentType":5123,"count":36,"max":[23],"min":[0],"type":"SCALAR"},{"bufferView":4,"componentType":5126,"count":24,"max":[0.2199999988079071,-0.0925000011920929,-0.1550000011920929],"min":[-0.3449999988079071,-0.0949999988079071,-0.5325000286102295],"type":"VEC3"},{"bufferView":5,"componentType":5126,"count":24,"max":[1,1,1],"min":[-1,-1,-1],"type":"VEC3"},{"bufferView":6,"componentType":5126,"count":24,"max":[0.765380859375,0.093994140625],"min":[0.297119140625,0.000244140625],"type":"VEC2"},{"bufferView":7,"componentType":5123,"count":36,"max":[23],"min":[0],"type":"SCALAR"},{"bufferView":8,"componentType":5126,"count":24,"max":[0.3449999988079071,-0.0925000011920929,-0.1550000011920929],"min":[-0.2199999988079071,-0.0949999988079071,-0.5325000286102295],"type":"VEC3"},{"bufferView":9,"componentType":5126,"count":24,"max":[1,1,1],"min":[-1,-1,-1],"type":"VEC3"},{"bufferView":10,"componentType":5126,"count":24,"max":[0.765380859375,0.375244140625],"min":[0.297119140625,0.281494140625],"type":"VEC2"},{"bufferView":11,"componentType":5123,"count":36,"max":[23],"min":[0],"type":"SCALAR"},{"bufferView":12,"componentType":5126,"count":24,"max":[0.21875,0.09375,0.40625],"min":[-0.15625,-0.28125,0.09375],"type":"VEC3"},{"bufferView":13,"componentType":5126,"count":24,"max":[1,1,1],"min":[-1,-1,-1],"type":"VEC3"},{"bufferView":14,"componentType":5126,"count":24,"max":[0.343505859375,0.656005859375],"min":[0.000244140625,0.484619140625],"type":"VEC2"},{"bufferView":15,"componentType":5123,"count":36,"max":[23],"min":[0],"type":"SCALAR"},{"bufferView":16,"componentType":5126,"count":24,"max":[0.21875,-0.15625,0.46875],"min":[-0.09375,-0.28125,0.34375],"type":"VEC3"},{"bufferView":17,"componentType":5126,"count":24,"max":[1,1,1],"min":[-1,-1,-1],"type":"VEC3"},{"bufferView":18,"componentType":5126,"count":24,"max":[0.218505859375,0.452880859375],"min":[0.000244140625,0.390869140625],"type":"VEC2"},{"bufferView":19,"componentType":5123,"count":36,"max":[23],"min":[0],"type":"SCALAR"},{"bufferView":20,"componentType":5126,"count":24,"max":[0.032499998807907104,0.0949999988079071,0.2824999988079071],"min":[0.029999999329447746,-0.032499998807907104,0.1550000011920929],"type":"VEC3"},{"bufferView":21,"componentType":5126,"count":24,"max":[1,1,1],"min":[-1,-1,-1],"type":"VEC3"},{"bufferView":22,"componentType":5126,"count":24,"max":[0.062744140625,0.062255859375],"min":[0.000244140625,0.000244140625],"type":"VEC2"},{"bufferView":23,"componentType":5123,"count":36,"max":[23],"min":[0],"type":"SCALAR"},{"bufferView":24,"componentType":5126,"count":24,"max":[0.2199999988079071,-0.2175000011920929,0.4074999988079071],"min":[-0.032499998807907104,-0.2824999988079071,0.4050000011920929],"type":"VEC3"},{"bufferView":25,"componentType":5126,"count":24,"max":[1,1,1],"min":[-1,-1,-1],"type":"VEC3"},{"bufferView":26,"componentType":5126,"count":24,"max":[0.124755859375,0.015380859375],"min":[-0.000244140625,-0.000244140625],"type":"VEC2"},{"bufferView":27,"componentType":5123,"count":36,"max":[23],"min":[0],"type":"SCALAR"},{"bufferView":28,"componentType":5126,"count":24,"max":[-0.029999999329447746,0.0949999988079071,0.0949999988079071],"min":[-0.1574999988079071,-0.032499998807907104,0.0925000011920929],"type":"VEC3"},{"bufferView":29,"componentType":5126,"count":24,"max":[1,1,1],"min":[-1,-1,-1],"type":"VEC3"},{"bufferView":30,"componentType":5126,"count":24,"max":[0.062255859375,0.515380859375],"min":[-0.000244140625,0.484130859375],"type":"VEC2"},{"bufferView":31,"componentType":5123,"count":36,"max":[23],"min":[0],"type":"SCALAR"},{"bufferView":32,"componentType":5126,"count":24,"max":[0.1574999988079071,0.0949999988079071,0.0949999988079071],"min":[0.029999999329447746,-0.032499998807907104,0.0925000011920929],"type":"VEC3"},{"bufferView":33,"componentType":5126,"count":24,"max":[1,1,1],"min":[-1,-1,-1],"type":"VEC3"},{"bufferView":34,"componentType":5126,"count":24,"max":[0.062255859375,0.515380859375],"min":[-0.000244140625,0.484130859375],"type":"VEC2"},{"bufferView":35,"componentType":5123,"count":36,"max":[23],"min":[0],"type":"SCALAR"},{"bufferView":36,"componentType":5126,"count":24,"max":[0.09375,0.15625,-0.09375],"min":[-0.21875,-0.21875,-0.46875],"type":"VEC3"},{"bufferView":37,"componentType":5126,"count":24,"max":[1,1,1],"min":[-1,-1,-1],"type":"VEC3"},{"bufferView":38,"componentType":5126,"count":24,"max":[0.640380859375,0.562255859375],"min":[0.297119140625,0.375244140625],"type":"VEC2"},{"bufferView":39,"componentType":5123,"count":36,"max":[23],"min":[0],"type":"SCALAR"},{"bufferView":40,"componentType":5126,"count":24,"max":[0.09375,0.03125,-0.09375],"min":[-0.09375,-0.21875,-0.40625],"type":"VEC3"},{"bufferView":41,"componentType":5126,"count":24,"max":[1,1,1],"min":[-1,-1,-1],"type":"VEC3"},{"bufferView":42,"componentType":5126,"count":24,"max":[0.812255859375,0.234130859375],"min":[0.562744140625,0.093994140625],"type":"VEC2"},{"bufferView":43,"componentType":5123,"count":36,"max":[23],"min":[0],"type":"SCALAR"},{"bufferView":44,"componentType":5126,"count":24,"max":[0.2824999988079071,0.0012499999720603228,0.2199999988079071],"min":[-0.2824999988079071,-0.0012499999720603228,-0.2199999988079071],"type":"VEC3"},{"bufferView":45,"componentType":5126,"count":24,"max":[1,1,1],"min":[-1,-1,-1],"type":"VEC3"},{"bufferView":46,"componentType":5126,"count":24,"max":[0.499755859375,0.390869140625],"min":[0.000244140625,0.281494140625],"type":"VEC2"},{"bufferView":47,"componentType":5123,"count":36,"max":[23],"min":[0],"type":"SCALAR"},{"bufferView":48,"componentType":5126,"count":1,"max":[0],"min":[0],"type":"SCALAR"},{"bufferView":49,"componentType":5126,"count":1,"max":[-0.019856086000800133,0.12900707125663757,0.15082195401191711,0.9799059629440308],"min":[-0.019856086000800133,0.12900707125663757,0.15082195401191711,0.9799059629440308],"type":"VEC4"},{"bufferView":50,"componentType":5126,"count":1,"max":[0],"min":[0],"type":"SCALAR"},{"bufferView":51,"componentType":5126,"count":1,"max":[-0.019856086000800133,-0.12900707125663757,-0.15082195401191711,0.9799059629440308],"min":[-0.019856086000800133,-0.12900707125663757,-0.15082195401191711,0.9799059629440308],"type":"VEC4"},{"bufferView":52,"componentType":5126,"count":1,"max":[0],"min":[0],"type":"SCALAR"},{"bufferView":53,"componentType":5126,"count":1,"max":[0.04361938685178757,0,0,0.9990482330322266],"min":[0.04361938685178757,0,0,0.9990482330322266],"type":"VEC4"},{"bufferView":54,"componentType":5126,"count":1,"max":[0],"min":[0],"type":"SCALAR"},{"bufferView":55,"componentType":5126,"count":1,"max":[0.06540312618017197,0,0,0.9978589415550232],"min":[0.06540312618017197,0,0,0.9978589415550232],"type":"VEC4"},{"bufferView":56,"componentType":5126,"count":1,"max":[0],"min":[0],"type":"SCALAR"},{"bufferView":57,"componentType":5126,"count":1,"max":[0.04361938685178757,0,0,0.9990482330322266],"min":[0.04361938685178757,0,0,0.9990482330322266],"type":"VEC4"},{"bufferView":58,"componentType":5126,"count":1,"max":[0],"min":[0],"type":"SCALAR"},{"bufferView":59,"componentType":5126,"count":1,"max":[-0.14519374072551727,0.11141107231378555,0.14519374072551727,0.9723297357559204],"min":[-0.14519374072551727,0.11141107231378555,0.14519374072551727,0.9723297357559204],"type":"VEC4"},{"bufferView":60,"componentType":5126,"count":1,"max":[0],"min":[0],"type":"SCALAR"},{"bufferView":61,"componentType":5126,"count":1,"max":[-0.14519374072551727,-0.11141107231378555,-0.14519374072551727,0.9723297357559204],"min":[-0.14519374072551727,-0.11141107231378555,-0.14519374072551727,0.9723297357559204],"type":"VEC4"},{"bufferView":62,"componentType":5126,"count":1,"max":[0],"min":[0],"type":"SCALAR"},{"bufferView":63,"componentType":5126,"count":1,"max":[0,0,-0.34375],"min":[0,0,-0.34375],"type":"VEC3"},{"bufferView":64,"componentType":5126,"count":1,"max":[0],"min":[0],"type":"SCALAR"},{"bufferView":65,"componentType":5126,"count":1,"max":[0.02181488461792469,0,0,0.9997619986534119],"min":[0.02181488461792469,0,0,0.9997619986534119],"type":"VEC4"},{"bufferView":66,"componentType":5126,"count":1,"max":[0],"min":[0],"type":"SCALAR"},{"bufferView":67,"componentType":5126,"count":1,"max":[-0.02181488461792469,0,0,0.9997619986534119],"min":[-0.02181488461792469,0,0,0.9997619986534119],"type":"VEC4"},{"bufferView":68,"componentType":5126,"count":1,"max":[0],"min":[0],"type":"SCALAR"},{"bufferView":69,"componentType":5126,"count":1,"max":[-0.04361938685178757,0,0,0.9990482330322266],"min":[-0.04361938685178757,0,0,0.9990482330322266],"type":"VEC4"},{"bufferView":70,"componentType":5126,"count":1,"max":[0],"min":[0],"type":"SCALAR"},{"bufferView":71,"componentType":5126,"count":1,"max":[-0.38887351751327515,0.41472965478897095,0.29413917660713196,0.7682830691337585],"min":[-0.38887351751327515,0.41472965478897095,0.29413917660713196,0.7682830691337585],"type":"VEC4"},{"bufferView":72,"componentType":5126,"count":1,"max":[0],"min":[0],"type":"SCALAR"},{"bufferView":73,"componentType":5126,"count":1,"max":[-0.38887351751327515,-0.41472965478897095,-0.29413917660713196,0.7682830691337585],"min":[-0.38887351751327515,-0.41472965478897095,-0.29413917660713196,0.7682830691337585],"type":"VEC4"},{"bufferView":74,"componentType":5126,"count":1,"max":[0],"min":[0],"type":"SCALAR"},{"bufferView":75,"componentType":5126,"count":1,"max":[0,0,-0.34375],"min":[0,0,-0.34375],"type":"VEC3"},{"bufferView":76,"componentType":5126,"count":1,"max":[0],"min":[0],"type":"SCALAR"},{"bufferView":77,"componentType":5126,"count":1,"max":[0,0,0,1],"min":[0,0,0,1],"type":"VEC4"},{"bufferView":78,"componentType":5126,"count":1,"max":[0],"min":[0],"type":"SCALAR"},{"bufferView":79,"componentType":5126,"count":1,"max":[0,0,0,1],"min":[0,0,0,1],"type":"VEC4"},{"bufferView":80,"componentType":5126,"count":1,"max":[0],"min":[0],"type":"SCALAR"},{"bufferView":81,"componentType":5126,"count":1,"max":[-0.02181488461792469,0,0,0.9997619986534119],"min":[-0.02181488461792469,0,0,0.9997619986534119],"type":"VEC4"}],"materials":[{"pbrMetallicRoughness":{"metallicFactor":0,"roughnessFactor":1,"baseColorTexture":{"index":0}},"alphaMode":"MASK","alphaCutoff":0.05,"doubleSided":true}],"textures":[{"sampler":0,"source":0,"name":"dewgong.png"}],"samplers":[{"magFilter":9728,"minFilter":9728,"wrapS":33071,"wrapT":33071}],"images":[{"mimeType":"image/png","uri":"data:image/png;base64,"}],"meshes":[{"primitives":[{"mode":4,"attributes":{"POSITION":0,"NORMAL":1,"TEXCOORD_0":2},"indices":3,"material":0}]},{"primitives":[{"mode":4,"attributes":{"POSITION":4,"NORMAL":5,"TEXCOORD_0":6},"indices":7,"material":0}]},{"primitives":[{"mode":4,"attributes":{"POSITION":8,"NORMAL":9,"TEXCOORD_0":10},"indices":11,"material":0}]},{"primitives":[{"mode":4,"attributes":{"POSITION":12,"NORMAL":13,"TEXCOORD_0":14},"indices":15,"material":0}]},{"primitives":[{"mode":4,"attributes":{"POSITION":16,"NORMAL":17,"TEXCOORD_0":18},"indices":19,"material":0}]},{"primitives":[{"mode":4,"attributes":{"POSITION":20,"NORMAL":21,"TEXCOORD_0":22},"indices":23,"material":0}]},{"primitives":[{"mode":4,"attributes":{"POSITION":24,"NORMAL":25,"TEXCOORD_0":26},"indices":27,"material":0}]},{"primitives":[{"mode":4,"attributes":{"POSITION":28,"NORMAL":29,"TEXCOORD_0":30},"indices":31,"material":0}]},{"primitives":[{"mode":4,"attributes":{"POSITION":32,"NORMAL":33,"TEXCOORD_0":34},"indices":35,"material":0}]},{"primitives":[{"mode":4,"attributes":{"POSITION":36,"NORMAL":37,"TEXCOORD_0":38},"indices":39,"material":0}]},{"primitives":[{"mode":4,"attributes":{"POSITION":40,"NORMAL":41,"TEXCOORD_0":42},"indices":43,"material":0}]},{"primitives":[{"mode":4,"attributes":{"POSITION":44,"NORMAL":45,"TEXCOORD_0":46},"indices":47,"material":0}]}],"animations":[{"name":"animation.dewgong.ground_idle","samplers":[{"input":48,"output":49,"interpolation":"LINEAR"},{"input":50,"output":51,"interpolation":"LINEAR"},{"input":52,"output":53,"interpolation":"LINEAR"},{"input":54,"output":55,"interpolation":"LINEAR"},{"input":56,"output":57,"interpolation":"LINEAR"}],"channels":[{"sampler":0,"target":{"node":2,"path":"rotation"}},{"sampler":1,"target":{"node":4,"path":"rotation"}},{"sampler":2,"target":{"node":17,"path":"rotation"}},{"sampler":3,"target":{"node":16,"path":"rotation"}},{"sampler":4,"target":{"node":15,"path":"rotation"}}]},{"name":"animation.dewgong.water_idle","samplers":[{"input":58,"output":59,"interpolation":"LINEAR"},{"input":60,"output":61,"interpolation":"LINEAR"},{"input":62,"output":63,"interpolation":"LINEAR"},{"input":64,"output":65,"interpolation":"LINEAR"},{"input":66,"output":67,"interpolation":"LINEAR"},{"input":68,"output":69,"interpolation":"LINEAR"}],"channels":[{"sampler":0,"target":{"node":2,"path":"rotation"}},{"sampler":1,"target":{"node":4,"path":"rotation"}},{"sampler":2,"target":{"node":11,"path":"translation"}},{"sampler":3,"target":{"node":17,"path":"rotation"}},{"sampler":4,"target":{"node":16,"path":"rotation"}},{"sampler":5,"target":{"node":15,"path":"rotation"}}]},{"name":"animation.dewgong.water_swim","samplers":[{"input":70,"output":71,"interpolation":"LINEAR"},{"input":72,"output":73,"interpolation":"LINEAR"},{"input":74,"output":75,"interpolation":"LINEAR"},{"input":76,"output":77,"interpolation":"LINEAR"},{"input":78,"output":79,"interpolation":"LINEAR"},{"input":80,"output":81,"interpolation":"LINEAR"}],"channels":[{"sampler":0,"target":{"node":2,"path":"rotation"}},{"sampler":1,"target":{"node":4,"path":"rotation"}},{"sampler":2,"target":{"node":11,"path":"translation"}},{"sampler":3,"target":{"node":17,"path":"rotation"}},{"sampler":4,"target":{"node":16,"path":"rotation"}},{"sampler":5,"target":{"node":15,"path":"rotation"}}]}]}