{"asset":{"version":"2.0","generator":"Blockbench 4.8.3 glTF exporter"},"scenes":[{"nodes":[15],"name":"blockbench_export"}],"scene":0,"nodes":[{"name":"ground","mesh":0},{"translation":[0,-0.125,0.21875],"name":"nose","mesh":1},{"translation":[0,-0.125,0.21875],"name":"body","mesh":2},{"name":"eye_right","mesh":3},{"name":"eyelid_right","mesh":4},{"translation":[0.015625,0,0.03749999999999998],"name":"eyelid_right","children":[4]},{"translation":[0.109375,0,0.0025000000000000022],"name":"eye_right","children":[3,5]},{"name":"eye_left","mesh":5},{"name":"eyelid_left","mesh":6},{"translation":[-0.015625,0,0.03749999999999998],"name":"eyelid_left","children":[8]},{"translation":[-0.109375,0,0.0025000000000000022],"name":"eye_left","children":[7,9]},{"translation":[0,0.4375,-0.003124999999999989],"name":"eyes","children":[6,10]},{"translation":[0,0.1875,-0.21875],"name":"body","children":[1,2,11]},{"translation":[0,-0.125,0],"name":"ground","children":[0,12]},{"translation":[0,0.0625,0],"name":"diglett","children":[13]},{"children":[14]}],"bufferViews":[{"buffer":0,"byteOffset":0,"byteLength":288,"target":34962,"byteStride":12},{"buffer":0,"byteOffset":288,"byteLength":288,"target":34962,"byteStride":12},{"buffer":0,"byteOffset":576,"byteLength":192,"target":34962,"byteStride":8},{"buffer":0,"byteOffset":768,"byteLength":72,"target":34963},{"buffer":0,"byteOffset":840,"byteLength":288,"target":34962,"byteStride":12},{"buffer":0,"byteOffset":1128,"byteLength":288,"target":34962,"byteStride":12},{"buffer":0,"byteOffset":1416,"byteLength":192,"target":34962,"byteStride":8},{"buffer":0,"byteOffset":1608,"byteLength":72,"target":34963},{"buffer":0,"byteOffset":1680,"byteLength":288,"target":34962,"byteStride":12},{"buffer":0,"byteOffset":1968,"byteLength":288,"target":34962,"byteStride":12},{"buffer":0,"byteOffset":2256,"byteLength":192,"target":34962,"byteStride":8},{"buffer":0,"byteOffset":2448,"byteLength":72,"target":34963},{"buffer":0,"byteOffset":2520,"byteLength":288,"target":34962,"byteStride":12},{"buffer":0,"byteOffset":2808,"byteLength":288,"target":34962,"byteStride":12},{"buffer":0,"byteOffset":3096,"byteLength":192,"target":34962,"byteStride":8},{"buffer":0,"byteOffset":3288,"byteLength":72,"target":34963},{"buffer":0,"byteOffset":3360,"byteLength":288,"target":34962,"byteStride":12},{"buffer":0,"byteOffset":3648,"byteLength":288,"target":34962,"byteStride":12},{"buffer":0,"byteOffset":3936,"byteLength":192,"target":34962,"byteStride":8},{"buffer":0,"byteOffset":4128,"byteLength":72,"target":34963},{"buffer":0,"byteOffset":4200,"byteLength":288,"target":34962,"byteStride":12},{"buffer":0,"byteOffset":4488,"byteLength":288,"target":34962,"byteStride":12},{"buffer":0,"byteOffset":4776,"byteLength":192,"target":34962,"byteStride":8},{"buffer":0,"byteOffset":4968,"byteLength":72,"target":34963},{"buffer":0,"byteOffset":5040,"byteLength":288,"target":34962,"byteStride":12},{"buffer":0,"byteOffset":5328,"byteLength":288,"target":34962,"byteStride":12},{"buffer":0,"byteOffset":5616,"byteLength":192,"target":34962,"byteStride":8},{"buffer":0,"byteOffset":5808,"byteLength":72,"target":34963},{"buffer":0,"byteOffset":5880,"byteLength":256},{"buffer":0,"byteOffset":6136,"byteLength":1024},{"buffer":0,"byteOffset":7160,"byteLength":256},{"buffer":0,"byteOffset":7416,"byteLength":768},{"buffer":0,"byteOffset":8184,"byteLength":256},{"buffer":0,"byteOffset":8440,"byteLength":1024},{"buffer":0,"byteOffset":9464,"byteLength":256},{"buffer":0,"byteOffset":9720,"byteLength":768},{"buffer":0,"byteOffset":10488,"byteLength":252},{"buffer":0,"byteOffset":10740,"byteLength":1008},{"buffer":0,"byteOffset":11748,"byteLength":256},{"buffer":0,"byteOffset":12004,"byteLength":768},{"buffer":0,"byteOffset":12772,"byteLength":188},{"buffer":0,"byteOffset":12960,"byteLength":752},{"buffer":0,"byteOffset":13712,"byteLength":120},{"buffer":0,"byteOffset":13832,"byteLength":360},{"buffer":0,"byteOffset":14192,"byteLength":12},{"buffer":0,"byteOffset":14204,"byteLength":48},{"buffer":0,"byteOffset":14252,"byteLength":28},{"buffer":0,"byteOffset":14280,"byteLength":84},{"buffer":0,"byteOffset":14364,"byteLength":36},{"buffer":0,"byteOffset":14400,"byteLength":108},{"buffer":0,"byteOffset":14508,"byteLength":36},{"buffer":0,"byteOffset":14544,"byteLength":108},{"buffer":0,"byteOffset":14652,"byteLength":4},{"buffer":0,"byteOffset":14656,"byteLength":16},{"buffer":0,"byteOffset":14672,"byteLength":4},{"buffer":0,"byteOffset":14676,"byteLength":12},{"buffer":0,"byteOffset":14688,"byteLength":4},{"buffer":0,"byteOffset":14692,"byteLength":12},{"buffer":0,"byteOffset":14704,"byteLength":4},{"buffer":0,"byteOffset":14708,"byteLength":12},{"buffer":0,"byteOffset":14720,"byteLength":12},{"buffer":0,"byteOffset":14732,"byteLength":36},{"buffer":0,"byteOffset":14768,"byteLength":12},{"buffer":0,"byteOffset":14780,"byteLength":36}],"buffers":[{"byteLength":14816,"uri":"data:application/octet-stream;base64,"}],"accessors":[{"bufferView":0,"componentType":5126,"count":24,"max":[0.3125,0.1875,0.28125],"min":[-0.3125,-0.1875,-0.28125],"type":"VEC3"},{"bufferView":1,"componentType":5126,"count":24,"max":[1,1,1],"min":[-1,-1,-1],"type":"VEC3"},{"bufferView":2,"componentType":5126,"count":24,"max":[0.593505859375,0.562255859375],"min":[0.000244140625,0.328369140625],"type":"VEC2"},{"bufferView":3,"componentType":5123,"count":36,"max":[23],"min":[0],"type":"SCALAR"},{"bufferView":4,"componentType":5126,"count":24,"max":[0.125,0.484375,-0.21875],"min":[-0.125,0.359375,-0.28125],"type":"VEC3"},{"bufferView":5,"componentType":5126,"count":24,"max":[1,1,1],"min":[-1,-1,-1],"type":"VEC3"},{"bufferView":6,"componentType":5126,"count":24,"max":[0.156005859375,0.327880859375],"min":[0.000244140625,0.281494140625],"type":"VEC2"},{"bufferView":7,"componentType":5123,"count":36,"max":[23],"min":[0],"type":"SCALAR"},{"bufferView":8,"componentType":5126,"count":24,"max":[0.21875,0.703125,0.21875],"min":[-0.21875,0.015625,-0.21875],"type":"VEC3"},{"bufferView":9,"componentType":5126,"count":24,"max":[1,1,1],"min":[-1,-1,-1],"type":"VEC3"},{"bufferView":10,"componentType":5126,"count":24,"max":[0.437255859375,0.281005859375],"min":[0.000244140625,0.00024412572383880615],"type":"VEC2"},{"bufferView":11,"componentType":5123,"count":36,"max":[23],"min":[0],"type":"SCALAR"},{"bufferView":12,"componentType":5126,"count":24,"max":[0.03125,0.0625,0.0000625000029685907],"min":[-0.03125,-0.0625,0],"type":"VEC3"},{"bufferView":13,"componentType":5126,"count":24,"max":[1,1,1],"min":[-1,-1,-1],"type":"VEC3"},{"bufferView":14,"componentType":5126,"count":24,"max":[0.031005859375,0.031005844473838806],"min":[-0.000244140625,-0.0002441704273223877],"type":"VEC2"},{"bufferView":15,"componentType":5123,"count":36,"max":[23],"min":[0],"type":"SCALAR"},{"bufferView":16,"componentType":5126,"count":24,"max":[0.06312499940395355,0.06312499940395355,0.03187499940395355],"min":[-0.06312499940395355,-0.06312499940395355,-0.03187499940395355],"type":"VEC3"},{"bufferView":17,"componentType":5126,"count":24,"max":[1,1,1],"min":[-1,-1,-1],"type":"VEC3"},{"bufferView":18,"componentType":5126,"count":24,"max":[0.093505859375,0.0935058742761612],"min":[0.000244140625,0.047119125723838806],"type":"VEC2"},{"bufferView":19,"componentType":5123,"count":36,"max":[23],"min":[0],"type":"SCALAR"},{"bufferView":20,"componentType":5126,"count":24,"max":[0.03125,0.0625,0.0000625000029685907],"min":[-0.03125,-0.0625,0],"type":"VEC3"},{"bufferView":21,"componentType":5126,"count":24,"max":[1,1,1],"min":[-1,-1,-1],"type":"VEC3"},{"bufferView":22,"componentType":5126,"count":24,"max":[0.031005859375,0.031005844473838806],"min":[-0.000244140625,-0.0002441704273223877],"type":"VEC2"},{"bufferView":23,"componentType":5123,"count":36,"max":[23],"min":[0],"type":"SCALAR"},{"bufferView":24,"componentType":5126,"count":24,"max":[0.06312499940395355,0.06312499940395355,0.03187499940395355],"min":[-0.06312499940395355,-0.06312499940395355,-0.03187499940395355],"type":"VEC3"},{"bufferView":25,"componentType":5126,"count":24,"max":[1,1,1],"min":[-1,-1,-1],"type":"VEC3"},{"bufferView":26,"componentType":5126,"count":24,"max":[0.093505859375,0.0935058742761612],"min":[0.000244140625,0.047119125723838806],"type":"VEC2"},{"bufferView":27,"componentType":5123,"count":36,"max":[23],"min":[0],"type":"SCALAR"},{"bufferView":28,"componentType":5126,"count":64,"max":[4],"min":[0],"type":"SCALAR"},{"bufferView":29,"componentType":5126,"count":64,"max":[0.004363267682492733,0.004363267682492733,0.008726535364985466,0.9999809861183167],"min":[-0.004363267682492733,-0.004363267682492733,-0.008726535364985466,0.9999619126319885],"type":"VEC4"},{"bufferView":30,"componentType":5126,"count":64,"max":[4],"min":[0],"type":"SCALAR"},{"bufferView":31,"componentType":5126,"count":64,"max":[0,0.21250000596046448,-0.21875],"min":[0,0.16249999403953552,-0.21875],"type":"VEC3"},{"bufferView":32,"componentType":5126,"count":64,"max":[4],"min":[0],"type":"SCALAR"},{"bufferView":33,"componentType":5126,"count":64,"max":[0.048003651201725006,0.004654253832995892,0.008718229830265045,0.9992015361785889],"min":[0.0392317920923233,-0.00460211792960763,-0.008718229830265045,0.998818576335907],"type":"VEC4"},{"bufferView":34,"componentType":5126,"count":64,"max":[4],"min":[0],"type":"SCALAR"},{"bufferView":35,"componentType":5126,"count":64,"max":[0,0.21250000596046448,-0.21875],"min":[0,0.11249999701976776,-0.21875],"type":"VEC3"},{"bufferView":36,"componentType":5126,"count":63,"max":[4],"min":[0],"type":"SCALAR"},{"bufferView":37,"componentType":5126,"count":63,"max":[-0.07034971565008163,0,0,0.9975224137306213],"min":[-0.10393699258565903,0,0,0.9945839047431946],"type":"VEC4"},{"bufferView":38,"componentType":5126,"count":64,"max":[4],"min":[0],"type":"SCALAR"},{"bufferView":39,"componentType":5126,"count":64,"max":[0,-0.0939399003982544,0.04374999925494194],"min":[0,-0.11856009811162949,-0.01875000074505806],"type":"VEC3"},{"bufferView":40,"componentType":5126,"count":47,"max":[3],"min":[0],"type":"SCALAR"},{"bufferView":41,"componentType":5126,"count":47,"max":[0.16995708644390106,0.16787125170230865,0.007996193133294582,0.9999390840530396],"min":[-0.08715148270130157,-0.16794820129871368,-0.029620809480547905,0.9843707084655762],"type":"VEC4"},{"bufferView":42,"componentType":5126,"count":30,"max":[1.958299994468689],"min":[0],"type":"SCALAR"},{"bufferView":43,"componentType":5126,"count":30,"max":[0.06875000149011612,0.29374998807907104,-0.17499999701976776],"min":[-0.08124999701976776,-0.48124998807907104,-0.22499999403953552],"type":"VEC3"},{"bufferView":44,"componentType":5126,"count":3,"max":[1.958299994468689],"min":[0],"type":"SCALAR"},{"bufferView":45,"componentType":5126,"count":3,"max":[0,0,0,1],"min":[0,0,0,1],"type":"VEC4"},{"bufferView":46,"componentType":5126,"count":7,"max":[2.4166998863220215],"min":[0],"type":"SCALAR"},{"bufferView":47,"componentType":5126,"count":7,"max":[0,-0.125,0],"min":[0,-0.20624999701976776,0],"type":"VEC3"},{"bufferView":48,"componentType":5126,"count":9,"max":[1.75],"min":[0],"type":"SCALAR"},{"bufferView":49,"componentType":5126,"count":9,"max":[0.015625,0,0.03750000149011612],"min":[0.015625,0,0.029374999925494194],"type":"VEC3"},{"bufferView":50,"componentType":5126,"count":9,"max":[1.75],"min":[0],"type":"SCALAR"},{"bufferView":51,"componentType":5126,"count":9,"max":[-0.015625,0,0.03750000149011612],"min":[-0.015625,0,0.03125],"type":"VEC3"},{"bufferView":52,"componentType":5126,"count":1,"max":[0],"min":[0],"type":"SCALAR"},{"bufferView":53,"componentType":5126,"count":1,"max":[-0.06540312618017197,0,0,0.9978589415550232],"min":[-0.06540312618017197,0,0,0.9978589415550232],"type":"VEC4"},{"bufferView":54,"componentType":5126,"count":1,"max":[0],"min":[0],"type":"SCALAR"},{"bufferView":55,"componentType":5126,"count":1,"max":[0,-0.03125,-0.203125],"min":[0,-0.03125,-0.203125],"type":"VEC3"},{"bufferView":56,"componentType":5126,"count":1,"max":[0],"min":[0],"type":"SCALAR"},{"bufferView":57,"componentType":5126,"count":1,"max":[0.015625,0,0.03125],"min":[0.015625,0,0.03125],"type":"VEC3"},{"bufferView":58,"componentType":5126,"count":1,"max":[0],"min":[0],"type":"SCALAR"},{"bufferView":59,"componentType":5126,"count":1,"max":[-0.015625,0,0.03125],"min":[-0.015625,0,0.03125],"type":"VEC3"},{"bufferView":60,"componentType":5126,"count":3,"max":[0.16670000553131104],"min":[0],"type":"SCALAR"},{"bufferView":61,"componentType":5126,"count":3,"max":[0.015625,0,0.03750000149011612],"min":[0.015625,0,0.03125],"type":"VEC3"},{"bufferView":62,"componentType":5126,"count":3,"max":[0.16670000553131104],"min":[0],"type":"SCALAR"},{"bufferView":63,"componentType":5126,"count":3,"max":[-0.015625,0,0.03750000149011612],"min":[-0.015625,0,0.03125],"type":"VEC3"}],"materials":[{"pbrMetallicRoughness":{"metallicFactor":0,"roughnessFactor":1,"baseColorTexture":{"index":0}},"alphaMode":"MASK","alphaCutoff":0.05,"doubleSided":true}],"textures":[{"sampler":0,"source":0,"name":"diglett.png"}],"samplers":[{"magFilter":9728,"minFilter":9728,"wrapS":33071,"wrapT":33071}],"images":[{"mimeType":"image/png","uri":"data:image/png;base64,"}],"meshes":[{"primitives":[{"mode":4,"attributes":{"POSITION":0,"NORMAL":1,"TEXCOORD_0":2},"indices":3,"material":0}]},{"primitives":[{"mode":4,"attributes":{"POSITION":4,"NORMAL":5,"TEXCOORD_0":6},"indices":7,"material":0}]},{"primitives":[{"mode":4,"attributes":{"POSITION":8,"NORMAL":9,"TEXCOORD_0":10},"indices":11,"material":0}]},{"primitives":[{"mode":4,"attributes":{"POSITION":12,"NORMAL":13,"TEXCOORD_0":14},"indices":15,"material":0}]},{"primitives":[{"mode":4,"attributes":{"POSITION":16,"NORMAL":17,"TEXCOORD_0":18},"indices":19,"material":0}]},{"primitives":[{"mode":4,"attributes":{"POSITION":20,"NORMAL":21,"TEXCOORD_0":22},"indices":23,"material":0}]},{"primitives":[{"mode":4,"attributes":{"POSITION":24,"NORMAL":25,"TEXCOORD_0":26},"indices":27,"material":0}]}],"animations":[{"name":"animation.diglett.ground_idle","samplers":[{"input":28,"output":29,"interpolation":"LINEAR"},{"input":30,"output":31,"interpolation":"LINEAR"}],"channels":[{"sampler":0,"target":{"node":12,"path":"rotation"}},{"sampler":1,"target":{"node":12,"path":"translation"}}]},{"name":"animation.diglett.ground_walk","samplers":[{"input":32,"output":33,"interpolation":"LINEAR"},{"input":34,"output":35,"interpolation":"LINEAR"},{"input":36,"output":37,"interpolation":"LINEAR"},{"input":38,"output":39,"interpolation":"LINEAR"}],"channels":[{"sampler":0,"target":{"node":12,"path":"rotation"}},{"sampler":1,"target":{"node":12,"path":"translation"}},{"sampler":2,"target":{"node":13,"path":"rotation"}},{"sampler":3,"target":{"node":13,"path":"translation"}}]},{"name":"animation.diglett.faint","samplers":[{"input":40,"output":41,"interpolation":"LINEAR"},{"input":42,"output":43,"interpolation":"LINEAR"},{"input":44,"output":45,"interpolation":"LINEAR"},{"input":46,"output":47,"interpolation":"LINEAR"},{"input":48,"output":49,"interpolation":"LINEAR"},{"input":50,"output":51,"interpolation":"LINEAR"}],"channels":[{"sampler":0,"target":{"node":12,"path":"rotation"}},{"sampler":1,"target":{"node":12,"path":"translation"}},{"sampler":2,"target":{"node":13,"path":"rotation"}},{"sampler":3,"target":{"node":13,"path":"translation"}},{"sampler":4,"target":{"node":5,"path":"translation"}},{"sampler":5,"target":{"node":9,"path":"translation"}}]},{"name":"animation.diglett.sleep","samplers":[{"input":52,"output":53,"interpolation":"LINEAR"},{"input":54,"output":55,"interpolation":"LINEAR"},{"input":56,"output":57,"interpolation":"LINEAR"},{"input":58,"output":59,"interpolation":"LINEAR"}],"channels":[{"sampler":0,"target":{"node":12,"path":"rotation"}},{"sampler":1,"target":{"node":12,"path":"translation"}},{"sampler":2,"target":{"node":5,"path":"translation"}},{"sampler":3,"target":{"node":9,"path":"translation"}}]},{"name":"animation.diglett.blink","samplers":[{"input":60,"output":61,"interpolation":"LINEAR"},{"input":62,"output":63,"interpolation":"LINEAR"}],"channels":[{"sampler":0,"target":{"node":5,"path":"translation"}},{"sampler":1,"target":{"node":9,"path":"translation"}}]}]}