{"asset":{"version":"2.0","generator":"Blockbench 4.8.3 glTF exporter"},"scenes":[{"nodes":[26],"name":"blockbench_export"}],"scene":0,"nodes":[{"translation":[0,-0.3125,0],"name":"body","mesh":0},{"translation":[0,-0.3125,0],"name":"body","mesh":1},{"translation":[-0.09375,-0.40625,0.313125],"name":"body","mesh":2},{"name":"body","mesh":3},{"rotation":[0,0,-0.3826834323650898,0.9238795325112867],"translation":[0.031249999999999944,-0.03125,1.1102230246251565e-16],"name":"eyebrow_right2","children":[3]},{"rotation":[0,0,-0.3420201433256687,0.9396926207859084],"translation":[0.140625,0.265625,-0.57875],"name":"eyebrow_right","children":[2,4]},{"translation":[0.09375,-0.40625,0.313125],"name":"body","mesh":4},{"name":"body","mesh":5},{"rotation":[0,0,0.3826834323650898,0.9238795325112867],"translation":[-0.031249999999999944,-0.03125,1.1102230246251565e-16],"name":"eyebrow_left2","children":[7]},{"rotation":[0,0,0.3420201433256687,0.9396926207859084],"translation":[-0.140625,0.265625,-0.57875],"name":"eyebrow_left","children":[6,8]},{"rotation":[0,0,-0.043619387365336,0.9990482215818578],"name":"mouth_open","mesh":6},{"translation":[-0.03125,0.1875,-0.313125],"name":"mouth_open","children":[10]},{"rotation":[0,0,-0.043619387365336,0.9990482215818578],"name":"mouth_frown","mesh":7},{"translation":[0,0.1875,-0.306875],"name":"mouth_frown","children":[12]},{"translation":[0,-0.3125,-0.265625],"name":"mouth","children":[11,13]},{"name":"eye_right","mesh":8},{"name":"eyelid_right","mesh":9},{"translation":[0.03125,0,0.03749999999999998],"name":"eyelid_right","children":[16]},{"translation":[0.1875,0.4375,-0.313125],"name":"eye_right","children":[15,17]},{"name":"eye_left","mesh":10},{"name":"eyelid_left","mesh":11},{"translation":[-0.03125,0,0.03749999999999998],"name":"eyelid_left","children":[20]},{"translation":[-0.1875,0.4375,-0.313125],"name":"eye_left","children":[19,21]},{"translation":[0,-0.3125,-0.265625],"name":"eyes","children":[18,22]},{"translation":[0,0.5625,0],"name":"body","children":[0,1,5,9,14,23]},{"name":"electrode","children":[24]},{"children":[25]}],"bufferViews":[{"buffer":0,"byteOffset":0,"byteLength":288,"target":34962,"byteStride":12},{"buffer":0,"byteOffset":288,"byteLength":288,"target":34962,"byteStride":12},{"buffer":0,"byteOffset":576,"byteLength":192,"target":34962,"byteStride":8},{"buffer":0,"byteOffset":768,"byteLength":72,"target":34963},{"buffer":0,"byteOffset":840,"byteLength":288,"target":34962,"byteStride":12},{"buffer":0,"byteOffset":1128,"byteLength":288,"target":34962,"byteStride":12},{"buffer":0,"byteOffset":1416,"byteLength":192,"target":34962,"byteStride":8},{"buffer":0,"byteOffset":1608,"byteLength":72,"target":34963},{"buffer":0,"byteOffset":1680,"byteLength":288,"target":34962,"byteStride":12},{"buffer":0,"byteOffset":1968,"byteLength":288,"target":34962,"byteStride":12},{"buffer":0,"byteOffset":2256,"byteLength":192,"target":34962,"byteStride":8},{"buffer":0,"byteOffset":2448,"byteLength":72,"target":34963},{"buffer":0,"byteOffset":2520,"byteLength":288,"target":34962,"byteStride":12},{"buffer":0,"byteOffset":2808,"byteLength":288,"target":34962,"byteStride":12},{"buffer":0,"byteOffset":3096,"byteLength":192,"target":34962,"byteStride":8},{"buffer":0,"byteOffset":3288,"byteLength":72,"target":34963},{"buffer":0,"byteOffset":3360,"byteLength":288,"target":34962,"byteStride":12},{"buffer":0,"byteOffset":3648,"byteLength":288,"target":34962,"byteStride":12},{"buffer":0,"byteOffset":3936,"byteLength":192,"target":34962,"byteStride":8},{"buffer":0,"byteOffset":4128,"byteLength":72,"target":34963},{"buffer":0,"byteOffset":4200,"byteLength":288,"target":34962,"byteStride":12},{"buffer":0,"byteOffset":4488,"byteLength":288,"target":34962,"byteStride":12},{"buffer":0,"byteOffset":4776,"byteLength":192,"target":34962,"byteStride":8},{"buffer":0,"byteOffset":4968,"byteLength":72,"target":34963},{"buffer":0,"byteOffset":5040,"byteLength":288,"target":34962,"byteStride":12},{"buffer":0,"byteOffset":5328,"byteLength":288,"target":34962,"byteStride":12},{"buffer":0,"byteOffset":5616,"byteLength":192,"target":34962,"byteStride":8},{"buffer":0,"byteOffset":5808,"byteLength":72,"target":34963},{"buffer":0,"byteOffset":5880,"byteLength":288,"target":34962,"byteStride":12},{"buffer":0,"byteOffset":6168,"byteLength":288,"target":34962,"byteStride":12},{"buffer":0,"byteOffset":6456,"byteLength":192,"target":34962,"byteStride":8},{"buffer":0,"byteOffset":6648,"byteLength":72,"target":34963},{"buffer":0,"byteOffset":6720,"byteLength":288,"target":34962,"byteStride":12},{"buffer":0,"byteOffset":7008,"byteLength":288,"target":34962,"byteStride":12},{"buffer":0,"byteOffset":7296,"byteLength":192,"target":34962,"byteStride":8},{"buffer":0,"byteOffset":7488,"byteLength":72,"target":34963},{"buffer":0,"byteOffset":7560,"byteLength":288,"target":34962,"byteStride":12},{"buffer":0,"byteOffset":7848,"byteLength":288,"target":34962,"byteStride":12},{"buffer":0,"byteOffset":8136,"byteLength":192,"target":34962,"byteStride":8},{"buffer":0,"byteOffset":8328,"byteLength":72,"target":34963},{"buffer":0,"byteOffset":8400,"byteLength":288,"target":34962,"byteStride":12},{"buffer":0,"byteOffset":8688,"byteLength":288,"target":34962,"byteStride":12},{"buffer":0,"byteOffset":8976,"byteLength":192,"target":34962,"byteStride":8},{"buffer":0,"byteOffset":9168,"byteLength":72,"target":34963},{"buffer":0,"byteOffset":9240,"byteLength":288,"target":34962,"byteStride":12},{"buffer":0,"byteOffset":9528,"byteLength":288,"target":34962,"byteStride":12},{"buffer":0,"byteOffset":9816,"byteLength":192,"target":34962,"byteStride":8},{"buffer":0,"byteOffset":10008,"byteLength":72,"target":34963},{"buffer":0,"byteOffset":10080,"byteLength":156},{"buffer":0,"byteOffset":10236,"byteLength":624},{"buffer":0,"byteOffset":10860,"byteLength":156},{"buffer":0,"byteOffset":11016,"byteLength":468},{"buffer":0,"byteOffset":11484,"byteLength":632},{"buffer":0,"byteOffset":12116,"byteLength":2528},{"buffer":0,"byteOffset":14644,"byteLength":632},{"buffer":0,"byteOffset":15276,"byteLength":1896},{"buffer":0,"byteOffset":17172,"byteLength":12},{"buffer":0,"byteOffset":17184,"byteLength":36},{"buffer":0,"byteOffset":17220,"byteLength":12},{"buffer":0,"byteOffset":17232,"byteLength":36}],"buffers":[{"byteLength":17268,"uri":"data:application/octet-stream;base64,"}],"accessors":[{"bufferView":0,"componentType":5126,"count":24,"max":[0.5625,0.875,0.5625],"min":[-0.5625,-0.25,-0.5625],"type":"VEC3"},{"bufferView":1,"componentType":5126,"count":24,"max":[1,1,1],"min":[-1,-1,-1],"type":"VEC3"},{"bufferView":2,"componentType":5126,"count":24,"max":[0.9998779296875,0.890380859375],"min":[0.4376220703125,0.328369140625],"type":"VEC2"},{"bufferView":3,"componentType":5123,"count":36,"max":[23],"min":[0],"type":"SCALAR"},{"bufferView":4,"componentType":5126,"count":24,"max":[0.578125,0.890625,0.578125],"min":[-0.578125,-0.265625,-0.578125],"type":"VEC3"},{"bufferView":5,"componentType":5126,"count":24,"max":[1,1,1],"min":[-1,-1,-1],"type":"VEC3"},{"bufferView":6,"componentType":5126,"count":24,"max":[0.5623779296875,0.562255859375],"min":[0.0001220703125,0.000244140625],"type":"VEC2"},{"bufferView":7,"componentType":5123,"count":36,"max":[23],"min":[0],"type":"SCALAR"},{"bufferView":8,"componentType":5126,"count":24,"max":[0.25062501430511475,0.7506250143051147,-0.3125],"min":[0.06187500059604645,0.37437498569488525,-0.3137499988079071],"type":"VEC3"},{"bufferView":9,"componentType":5126,"count":24,"max":[1,1,1],"min":[-1,-1,-1],"type":"VEC3"},{"bufferView":10,"componentType":5126,"count":24,"max":[0.0467529296875,0.187255859375],"min":[-0.0001220703125,0.093505859375],"type":"VEC2"},{"bufferView":11,"componentType":5123,"count":36,"max":[23],"min":[0],"type":"SCALAR"},{"bufferView":12,"componentType":5126,"count":24,"max":[0.0006249999860301614,0.0006249999860301614,0.0006249999860301614],"min":[-0.18812499940395355,-0.06312499940395355,-0.0006249999860301614],"type":"VEC3"},{"bufferView":13,"componentType":5126,"count":24,"max":[1,1,1],"min":[-1,-1,-1],"type":"VEC3"},{"bufferView":14,"componentType":5126,"count":24,"max":[0.0936279296875,0.124755859375],"min":[0.0467529296875,0.109130859375],"type":"VEC2"},{"bufferView":15,"componentType":5123,"count":36,"max":[23],"min":[0],"type":"SCALAR"},{"bufferView":16,"componentType":5126,"count":24,"max":[-0.06187500059604645,0.7506250143051147,-0.3125],"min":[-0.25062501430511475,0.37437498569488525,-0.3137499988079071],"type":"VEC3"},{"bufferView":17,"componentType":5126,"count":24,"max":[1,1,1],"min":[-1,-1,-1],"type":"VEC3"},{"bufferView":18,"componentType":5126,"count":24,"max":[0.0467529296875,0.093505859375],"min":[-0.0001220703125,-0.000244140625],"type":"VEC2"},{"bufferView":19,"componentType":5123,"count":36,"max":[23],"min":[0],"type":"SCALAR"},{"bufferView":20,"componentType":5126,"count":24,"max":[0.18812499940395355,0.0006249999860301614,0.0006249999860301614],"min":[-0.0006249999860301614,-0.06312499940395355,-0.0006249999860301614],"type":"VEC3"},{"bufferView":21,"componentType":5126,"count":24,"max":[1,1,1],"min":[-1,-1,-1],"type":"VEC3"},{"bufferView":22,"componentType":5126,"count":24,"max":[0.0936279296875,0.109130859375],"min":[0.0467529296875,0.093505859375],"type":"VEC2"},{"bufferView":23,"componentType":5123,"count":36,"max":[23],"min":[0],"type":"SCALAR"},{"bufferView":24,"componentType":5126,"count":24,"max":[0.375,0.0625,0.0000625000029685907],"min":[-0.375,-0.1875,0],"type":"VEC3"},{"bufferView":25,"componentType":5126,"count":24,"max":[1,1,1],"min":[-1,-1,-1],"type":"VEC3"},{"bufferView":26,"componentType":5126,"count":24,"max":[0.6092529296875,0.109130859375],"min":[0.4217529296875,0.046630859375],"type":"VEC2"},{"bufferView":27,"componentType":5123,"count":36,"max":[23],"min":[0],"type":"SCALAR"},{"bufferView":28,"componentType":5126,"count":24,"max":[0.4375,0.0625,0.0000625000029685907],"min":[-0.4375,-0.125,0],"type":"VEC3"},{"bufferView":29,"componentType":5126,"count":24,"max":[1,1,1],"min":[-1,-1,-1],"type":"VEC3"},{"bufferView":30,"componentType":5126,"count":24,"max":[0.6405029296875,0.046630859375],"min":[0.4217529296875,-0.000244140625],"type":"VEC2"},{"bufferView":31,"componentType":5123,"count":36,"max":[23],"min":[0],"type":"SCALAR"},{"bufferView":32,"componentType":5126,"count":24,"max":[0.03125,0.0625,0.0000625000029685907],"min":[-0.03125,-0.0625,0],"type":"VEC3"},{"bufferView":33,"componentType":5126,"count":24,"max":[1,1,1],"min":[-1,-1,-1],"type":"VEC3"},{"bufferView":34,"componentType":5126,"count":24,"max":[0.0623779296875,0.156005859375],"min":[0.0467529296875,0.124755859375],"type":"VEC2"},{"bufferView":35,"componentType":5123,"count":36,"max":[23],"min":[0],"type":"SCALAR"},{"bufferView":36,"componentType":5126,"count":24,"max":[0.06312499940395355,0.06312499940395355,0.03187499940395355],"min":[-0.06312499940395355,-0.06312499940395355,-0.03187499940395355],"type":"VEC3"},{"bufferView":37,"componentType":5126,"count":24,"max":[1,1,1],"min":[-1,-1,-1],"type":"VEC3"},{"bufferView":38,"componentType":5126,"count":24,"max":[0.0936279296875,0.093505859375],"min":[0.0469970703125,0.047119140625],"type":"VEC2"},{"bufferView":39,"componentType":5123,"count":36,"max":[23],"min":[0],"type":"SCALAR"},{"bufferView":40,"componentType":5126,"count":24,"max":[0.03125,0.0625,0.0000625000029685907],"min":[-0.03125,-0.0625,0],"type":"VEC3"},{"bufferView":41,"componentType":5126,"count":24,"max":[1,1,1],"min":[-1,-1,-1],"type":"VEC3"},{"bufferView":42,"componentType":5126,"count":24,"max":[0.0780029296875,0.156005859375],"min":[0.0623779296875,0.124755859375],"type":"VEC2"},{"bufferView":43,"componentType":5123,"count":36,"max":[23],"min":[0],"type":"SCALAR"},{"bufferView":44,"componentType":5126,"count":24,"max":[0.06312499940395355,0.06312499940395355,0.03187499940395355],"min":[-0.06312499940395355,-0.06312499940395355,-0.03187499940395355],"type":"VEC3"},{"bufferView":45,"componentType":5126,"count":24,"max":[1,1,1],"min":[-1,-1,-1],"type":"VEC3"},{"bufferView":46,"componentType":5126,"count":24,"max":[0.0936279296875,0.046630859375],"min":[0.0469970703125,0.000244140625],"type":"VEC2"},{"bufferView":47,"componentType":5123,"count":36,"max":[23],"min":[0],"type":"SCALAR"},{"bufferView":48,"componentType":5126,"count":39,"max":[1.9583333730697632],"min":[0],"type":"SCALAR"},{"bufferView":49,"componentType":5126,"count":39,"max":[0.06975647062063217,0.004774198867380619,0.06918921321630478,0.9975668787956238],"min":[-0.06911961734294891,-0.006456298753619194,-0.06975647062063217,0.9975497126579285],"type":"VEC4"},{"bufferView":50,"componentType":5126,"count":39,"max":[1.9583333730697632],"min":[0],"type":"SCALAR"},{"bufferView":51,"componentType":5126,"count":39,"max":[0.0625,0.59375,0.0625],"min":[-0.06196530535817146,0.59375,-0.06196530535817146],"type":"VEC3"},{"bufferView":52,"componentType":5126,"count":158,"max":[7.958333492279053],"min":[0],"type":"SCALAR"},{"bufferView":53,"componentType":5126,"count":158,"max":[0.9994645714759827,0,0,1],"min":[-1,0,0,-0.9998661279678345],"type":"VEC4"},{"bufferView":54,"componentType":5126,"count":158,"max":[7.958333492279053],"min":[0],"type":"SCALAR"},{"bufferView":55,"componentType":5126,"count":158,"max":[0,0.78125,0],"min":[0,0.5625,0],"type":"VEC3"},{"bufferView":56,"componentType":5126,"count":3,"max":[0.16670000553131104],"min":[0],"type":"SCALAR"},{"bufferView":57,"componentType":5126,"count":3,"max":[0.03125,0,0.03750000149011612],"min":[0.03125,0,0.03125],"type":"VEC3"},{"bufferView":58,"componentType":5126,"count":3,"max":[0.16670000553131104],"min":[0],"type":"SCALAR"},{"bufferView":59,"componentType":5126,"count":3,"max":[-0.03125,0,0.03750000149011612],"min":[-0.03125,0,0.03125],"type":"VEC3"}],"materials":[{"pbrMetallicRoughness":{"metallicFactor":0,"roughnessFactor":1,"baseColorTexture":{"index":0}},"alphaMode":"MASK","alphaCutoff":0.05,"doubleSided":true}],"textures":[{"sampler":0,"source":0,"name":"electrode.png"}],"samplers":[{"magFilter":9728,"minFilter":9728,"wrapS":33071,"wrapT":33071}],"images":[{"mimeType":"image/png","uri":"data:image/png;base64,"}],"meshes":[{"primitives":[{"mode":4,"attributes":{"POSITION":0,"NORMAL":1,"TEXCOORD_0":2},"indices":3,"material":0}]},{"primitives":[{"mode":4,"attributes":{"POSITION":4,"NORMAL":5,"TEXCOORD_0":6},"indices":7,"material":0}]},{"primitives":[{"mode":4,"attributes":{"POSITION":8,"NORMAL":9,"TEXCOORD_0":10},"indices":11,"material":0}]},{"primitives":[{"mode":4,"attributes":{"POSITION":12,"NORMAL":13,"TEXCOORD_0":14},"indices":15,"material":0}]},{"primitives":[{"mode":4,"attributes":{"POSITION":16,"NORMAL":17,"TEXCOORD_0":18},"indices":19,"material":0}]},{"primitives":[{"mode":4,"attributes":{"POSITION":20,"NORMAL":21,"TEXCOORD_0":22},"indices":23,"material":0}]},{"primitives":[{"mode":4,"attributes":{"POSITION":24,"NORMAL":25,"TEXCOORD_0":26},"indices":27,"material":0}]},{"primitives":[{"mode":4,"attributes":{"POSITION":28,"NORMAL":29,"TEXCOORD_0":30},"indices":31,"material":0}]},{"primitives":[{"mode":4,"attributes":{"POSITION":32,"NORMAL":33,"TEXCOORD_0":34},"indices":35,"material":0}]},{"primitives":[{"mode":4,"attributes":{"POSITION":36,"NORMAL":37,"TEXCOORD_0":38},"indices":39,"material":0}]},{"primitives":[{"mode":4,"attributes":{"POSITION":40,"NORMAL":41,"TEXCOORD_0":42},"indices":43,"material":0}]},{"primitives":[{"mode":4,"attributes":{"POSITION":44,"NORMAL":45,"TEXCOORD_0":46},"indices":47,"material":0}]}],"animations":[{"name":"animation.electrode.ground_idle","samplers":[{"input":48,"output":49,"interpolation":"LINEAR"},{"input":50,"output":51,"interpolation":"LINEAR"}],"channels":[{"sampler":0,"target":{"node":24,"path":"rotation"}},{"sampler":1,"target":{"node":24,"path":"translation"}}]},{"name":"animation.electrode.ground_walk","samplers":[{"input":52,"output":53,"interpolation":"LINEAR"},{"input":54,"output":55,"interpolation":"LINEAR"}],"channels":[{"sampler":0,"target":{"node":24,"path":"rotation"}},{"sampler":1,"target":{"node":24,"path":"translation"}}]},{"name":"animation.electrode.blink","samplers":[{"input":56,"output":57,"interpolation":"LINEAR"},{"input":58,"output":59,"interpolation":"LINEAR"}],"channels":[{"sampler":0,"target":{"node":17,"path":"translation"}},{"sampler":1,"target":{"node":21,"path":"translation"}}]}]}