{"asset":{"version":"2.0","generator":"Blockbench 4.8.3 glTF exporter"},"scenes":[{"nodes":[32],"name":"blockbench_export"}],"scene":0,"nodes":[{"translation":[0,-0.25,0],"name":"torso","mesh":0},{"translation":[0.03125,-0.0875,0.188125],"name":"mouth_closed","mesh":1},{"rotation":[0.02181488503456112,0,0,0.9997620270799091],"translation":[0.109375,0.03125,0],"name":"tooth_right","mesh":2},{"rotation":[0.02181488503456112,0,0,0.9997620270799091],"translation":[-0.109375,0.03125,0],"name":"tooth_left","mesh":3},{"name":"mouth_closed","children":[1,2,3]},{"translation":[0.03125,-0.056249999999999994,0.188125],"name":"mouth_open","mesh":4},{"rotation":[0.02181488503456112,0,0,0.9997620270799091],"translation":[0.109375,0.0625,0],"name":"tooth_right","mesh":5},{"rotation":[0.02181488503456112,0,0,0.9997620270799091],"translation":[-0.109375,0.0625,0],"name":"tooth_left","mesh":6},{"translation":[0,0.015625,0.0062500000000000056],"name":"mouth_open","children":[5,6,7]},{"translation":[0,-0.125,-0.188125],"name":"mouth","children":[4,8]},{"translation":[0,-0.3125,0.1875],"name":"eye_right","mesh":7},{"rotation":[0,0,-0.3007057995042731,0.9537169507482269],"translation":[-0.03125,-0.03125,5.551115123125783e-17],"name":"pupil_right","mesh":8},{"translation":[0.03125,-0.28125,0.18749999999999994],"name":"eyelid_right","mesh":9},{"translation":[-0.03125,-0.03125,5.551115123125783e-17],"name":"eyelid_right","children":[12]},{"rotation":[0,0,0.3007057995042731,0.9537169507482269],"translation":[0.15,0.03125,0],"name":"eye_right","children":[10,11,13]},{"translation":[0,-0.3125,0.1875],"name":"eye_left","mesh":10},{"rotation":[0,0,0.3007057995042731,0.9537169507482269],"translation":[0.03125,-0.03125,5.551115123125783e-17],"name":"pupil_left","mesh":11},{"translation":[-0.03125,-0.28125,0.18749999999999994],"name":"eyelid_left","mesh":12},{"translation":[0.03125,-0.03125,5.551115123125783e-17],"name":"eyelid_left","children":[17]},{"rotation":[0,0,-0.3007057995042731,0.9537169507482269],"translation":[-0.15,0.03125,0],"name":"eye_left","children":[15,16,18]},{"translation":[0,0.03125,-0.1875],"name":"eyes","children":[14,19]},{"name":"torso","children":[0,9,20]},{"translation":[0,-0.4375,0.0625],"name":"gas1","mesh":13},{"rotation":[0.3826834323650898,0,0,0.9238795325112867],"translation":[0,0.1875,0.046875],"name":"gas1","children":[22]},{"translation":[0.1875,-0.25,0.0625],"name":"gas4","mesh":14},{"rotation":[0,0.3826834323650898,0,0.9238795325112867],"translation":[-0.1875,0,0.046875],"name":"gas4","children":[24]},{"translation":[-0.1875,-0.25,0.0625],"name":"gas3","mesh":15},{"rotation":[0,-0.3826834323650898,0,0.9238795325112867],"translation":[0.1875,0,0.046875],"name":"gas3","children":[26]},{"translation":[0,0.4375,0.0625],"name":"gas2","mesh":16},{"rotation":[-0.3826834323650898,0,0,0.9238795325112867],"translation":[0,-0.1875,0.046875],"name":"gas2","children":[28]},{"translation":[0,0.25,0],"name":"body","children":[21,23,25,27,29]},{"name":"gastly","children":[30]},{"children":[31]}],"bufferViews":[{"buffer":0,"byteOffset":0,"byteLength":288,"target":34962,"byteStride":12},{"buffer":0,"byteOffset":288,"byteLength":288,"target":34962,"byteStride":12},{"buffer":0,"byteOffset":576,"byteLength":192,"target":34962,"byteStride":8},{"buffer":0,"byteOffset":768,"byteLength":72,"target":34963},{"buffer":0,"byteOffset":840,"byteLength":288,"target":34962,"byteStride":12},{"buffer":0,"byteOffset":1128,"byteLength":288,"target":34962,"byteStride":12},{"buffer":0,"byteOffset":1416,"byteLength":192,"target":34962,"byteStride":8},{"buffer":0,"byteOffset":1608,"byteLength":72,"target":34963},{"buffer":0,"byteOffset":1680,"byteLength":288,"target":34962,"byteStride":12},{"buffer":0,"byteOffset":1968,"byteLength":288,"target":34962,"byteStride":12},{"buffer":0,"byteOffset":2256,"byteLength":192,"target":34962,"byteStride":8},{"buffer":0,"byteOffset":2448,"byteLength":72,"target":34963},{"buffer":0,"byteOffset":2520,"byteLength":288,"target":34962,"byteStride":12},{"buffer":0,"byteOffset":2808,"byteLength":288,"target":34962,"byteStride":12},{"buffer":0,"byteOffset":3096,"byteLength":192,"target":34962,"byteStride":8},{"buffer":0,"byteOffset":3288,"byteLength":72,"target":34963},{"buffer":0,"byteOffset":3360,"byteLength":288,"target":34962,"byteStride":12},{"buffer":0,"byteOffset":3648,"byteLength":288,"target":34962,"byteStride":12},{"buffer":0,"byteOffset":3936,"byteLength":192,"target":34962,"byteStride":8},{"buffer":0,"byteOffset":4128,"byteLength":72,"target":34963},{"buffer":0,"byteOffset":4200,"byteLength":288,"target":34962,"byteStride":12},{"buffer":0,"byteOffset":4488,"byteLength":288,"target":34962,"byteStride":12},{"buffer":0,"byteOffset":4776,"byteLength":192,"target":34962,"byteStride":8},{"buffer":0,"byteOffset":4968,"byteLength":72,"target":34963},{"buffer":0,"byteOffset":5040,"byteLength":288,"target":34962,"byteStride":12},{"buffer":0,"byteOffset":5328,"byteLength":288,"target":34962,"byteStride":12},{"buffer":0,"byteOffset":5616,"byteLength":192,"target":34962,"byteStride":8},{"buffer":0,"byteOffset":5808,"byteLength":72,"target":34963},{"buffer":0,"byteOffset":5880,"byteLength":288,"target":34962,"byteStride":12},{"buffer":0,"byteOffset":6168,"byteLength":288,"target":34962,"byteStride":12},{"buffer":0,"byteOffset":6456,"byteLength":192,"target":34962,"byteStride":8},{"buffer":0,"byteOffset":6648,"byteLength":72,"target":34963},{"buffer":0,"byteOffset":6720,"byteLength":288,"target":34962,"byteStride":12},{"buffer":0,"byteOffset":7008,"byteLength":288,"target":34962,"byteStride":12},{"buffer":0,"byteOffset":7296,"byteLength":192,"target":34962,"byteStride":8},{"buffer":0,"byteOffset":7488,"byteLength":72,"target":34963},{"buffer":0,"byteOffset":7560,"byteLength":288,"target":34962,"byteStride":12},{"buffer":0,"byteOffset":7848,"byteLength":288,"target":34962,"byteStride":12},{"buffer":0,"byteOffset":8136,"byteLength":192,"target":34962,"byteStride":8},{"buffer":0,"byteOffset":8328,"byteLength":72,"target":34963},{"buffer":0,"byteOffset":8400,"byteLength":288,"target":34962,"byteStride":12},{"buffer":0,"byteOffset":8688,"byteLength":288,"target":34962,"byteStride":12},{"buffer":0,"byteOffset":8976,"byteLength":192,"target":34962,"byteStride":8},{"buffer":0,"byteOffset":9168,"byteLength":72,"target":34963},{"buffer":0,"byteOffset":9240,"byteLength":288,"target":34962,"byteStride":12},{"buffer":0,"byteOffset":9528,"byteLength":288,"target":34962,"byteStride":12},{"buffer":0,"byteOffset":9816,"byteLength":192,"target":34962,"byteStride":8},{"buffer":0,"byteOffset":10008,"byteLength":72,"target":34963},{"buffer":0,"byteOffset":10080,"byteLength":288,"target":34962,"byteStride":12},{"buffer":0,"byteOffset":10368,"byteLength":288,"target":34962,"byteStride":12},{"buffer":0,"byteOffset":10656,"byteLength":192,"target":34962,"byteStride":8},{"buffer":0,"byteOffset":10848,"byteLength":72,"target":34963},{"buffer":0,"byteOffset":10920,"byteLength":288,"target":34962,"byteStride":12},{"buffer":0,"byteOffset":11208,"byteLength":288,"target":34962,"byteStride":12},{"buffer":0,"byteOffset":11496,"byteLength":192,"target":34962,"byteStride":8},{"buffer":0,"byteOffset":11688,"byteLength":72,"target":34963},{"buffer":0,"byteOffset":11760,"byteLength":288,"target":34962,"byteStride":12},{"buffer":0,"byteOffset":12048,"byteLength":288,"target":34962,"byteStride":12},{"buffer":0,"byteOffset":12336,"byteLength":192,"target":34962,"byteStride":8},{"buffer":0,"byteOffset":12528,"byteLength":72,"target":34963},{"buffer":0,"byteOffset":12600,"byteLength":288,"target":34962,"byteStride":12},{"buffer":0,"byteOffset":12888,"byteLength":288,"target":34962,"byteStride":12},{"buffer":0,"byteOffset":13176,"byteLength":192,"target":34962,"byteStride":8},{"buffer":0,"byteOffset":13368,"byteLength":72,"target":34963},{"buffer":0,"byteOffset":13440,"byteLength":288,"target":34962,"byteStride":12},{"buffer":0,"byteOffset":13728,"byteLength":288,"target":34962,"byteStride":12},{"buffer":0,"byteOffset":14016,"byteLength":192,"target":34962,"byteStride":8},{"buffer":0,"byteOffset":14208,"byteLength":72,"target":34963},{"buffer":0,"byteOffset":14280,"byteLength":256},{"buffer":0,"byteOffset":14536,"byteLength":1024},{"buffer":0,"byteOffset":15560,"byteLength":256},{"buffer":0,"byteOffset":15816,"byteLength":768},{"buffer":0,"byteOffset":16584,"byteLength":632},{"buffer":0,"byteOffset":17216,"byteLength":2528},{"buffer":0,"byteOffset":19744,"byteLength":632},{"buffer":0,"byteOffset":20376,"byteLength":1896},{"buffer":0,"byteOffset":22272,"byteLength":440},{"buffer":0,"byteOffset":22712,"byteLength":1760},{"buffer":0,"byteOffset":24472,"byteLength":440},{"buffer":0,"byteOffset":24912,"byteLength":1320},{"buffer":0,"byteOffset":26232,"byteLength":12},{"buffer":0,"byteOffset":26244,"byteLength":36},{"buffer":0,"byteOffset":26280,"byteLength":12},{"buffer":0,"byteOffset":26292,"byteLength":36},{"buffer":0,"byteOffset":26328,"byteLength":20},{"buffer":0,"byteOffset":26348,"byteLength":60},{"buffer":0,"byteOffset":26408,"byteLength":4},{"buffer":0,"byteOffset":26412,"byteLength":12},{"buffer":0,"byteOffset":26424,"byteLength":4},{"buffer":0,"byteOffset":26428,"byteLength":12},{"buffer":0,"byteOffset":26440,"byteLength":12},{"buffer":0,"byteOffset":26452,"byteLength":36},{"buffer":0,"byteOffset":26488,"byteLength":12},{"buffer":0,"byteOffset":26500,"byteLength":36}],"buffers":[{"byteLength":26536,"uri":"data:application/octet-stream;base64,"}],"accessors":[{"bufferView":0,"componentType":5126,"count":24,"max":[0.1875,0.4375,0.1875],"min":[-0.1875,0.0625,-0.1875],"type":"VEC3"},{"bufferView":1,"componentType":5126,"count":24,"max":[1,1,1],"min":[-1,-1,-1],"type":"VEC3"},{"bufferView":2,"componentType":5126,"count":24,"max":[0.74951171875,0.37451171875],"min":[0.00048828125,0.00048828125],"type":"VEC2"},{"bufferView":3,"componentType":5123,"count":36,"max":[23],"min":[0],"type":"SCALAR"},{"bufferView":4,"componentType":5126,"count":24,"max":[0.125,0.11874999850988388,-0.18806250393390656],"min":[-0.1875,0.05624999850988388,-0.18812499940395355],"type":"VEC3"},{"bufferView":5,"componentType":5126,"count":24,"max":[1,1,1],"min":[-1,-1,-1],"type":"VEC3"},{"bufferView":6,"componentType":5126,"count":24,"max":[0.99951171875,0.03076171875],"min":[0.68701171875,-0.00048828125],"type":"VEC2"},{"bufferView":7,"componentType":5123,"count":36,"max":[23],"min":[0],"type":"SCALAR"},{"bufferView":8,"componentType":5126,"count":24,"max":[0.03125,0,0.0000625000029685907],"min":[-0.03125,-0.0625,0],"type":"VEC3"},{"bufferView":9,"componentType":5126,"count":24,"max":[1,1,1],"min":[-1,-1,-1],"type":"VEC3"},{"bufferView":10,"componentType":5126,"count":24,"max":[0.06201171875,0.03076171875],"min":[-0.00048828125,-0.00048828125],"type":"VEC2"},{"bufferView":11,"componentType":5123,"count":36,"max":[23],"min":[0],"type":"SCALAR"},{"bufferView":12,"componentType":5126,"count":24,"max":[0.03125,0,0.0000625000029685907],"min":[-0.03125,-0.0625,0],"type":"VEC3"},{"bufferView":13,"componentType":5126,"count":24,"max":[1,1,1],"min":[-1,-1,-1],"type":"VEC3"},{"bufferView":14,"componentType":5126,"count":24,"max":[0.06201171875,0.06201171875],"min":[-0.00048828125,0.03076171875],"type":"VEC2"},{"bufferView":15,"componentType":5123,"count":36,"max":[23],"min":[0],"type":"SCALAR"},{"bufferView":16,"componentType":5126,"count":24,"max":[0.125,0.11874999850988388,-0.18806250393390656],"min":[-0.1875,-0.0062500000931322575,-0.18812499940395355],"type":"VEC3"},{"bufferView":17,"componentType":5126,"count":24,"max":[1,1,1],"min":[-1,-1,-1],"type":"VEC3"},{"bufferView":18,"componentType":5126,"count":24,"max":[0.99951171875,0.12451171875],"min":[0.68701171875,0.06201171875],"type":"VEC2"},{"bufferView":19,"componentType":5123,"count":36,"max":[23],"min":[0],"type":"SCALAR"},{"bufferView":20,"componentType":5126,"count":24,"max":[0.03125,0,0.0000625000029685907],"min":[-0.03125,-0.0625,0],"type":"VEC3"},{"bufferView":21,"componentType":5126,"count":24,"max":[1,1,1],"min":[-1,-1,-1],"type":"VEC3"},{"bufferView":22,"componentType":5126,"count":24,"max":[0.06201171875,0.03076171875],"min":[-0.00048828125,-0.00048828125],"type":"VEC2"},{"bufferView":23,"componentType":5123,"count":36,"max":[23],"min":[0],"type":"SCALAR"},{"bufferView":24,"componentType":5126,"count":24,"max":[0.03125,0,0.0000625000029685907],"min":[-0.03125,-0.0625,0],"type":"VEC3"},{"bufferView":25,"componentType":5126,"count":24,"max":[1,1,1],"min":[-1,-1,-1],"type":"VEC3"},{"bufferView":26,"componentType":5126,"count":24,"max":[0.06201171875,0.06201171875],"min":[-0.00048828125,0.03076171875],"type":"VEC2"},{"bufferView":27,"componentType":5123,"count":36,"max":[23],"min":[0],"type":"SCALAR"},{"bufferView":28,"componentType":5126,"count":24,"max":[0.1875,0.375,-0.18806250393390656],"min":[-0.125,0.1875,-0.18812499940395355],"type":"VEC3"},{"bufferView":29,"componentType":5126,"count":24,"max":[1,1,1],"min":[-1,-1,-1],"type":"VEC3"},{"bufferView":30,"componentType":5126,"count":24,"max":[0.93701171875,0.96826171875],"min":[0.62451171875,0.87451171875],"type":"VEC2"},{"bufferView":31,"componentType":5123,"count":36,"max":[23],"min":[0],"type":"SCALAR"},{"bufferView":32,"componentType":5126,"count":24,"max":[0,0.03125,-0.0008750000270083547],"min":[-0.0625,-0.03125,-0.0009374999790452421],"type":"VEC3"},{"bufferView":33,"componentType":5126,"count":24,"max":[1,1,1],"min":[-1,-1,-1],"type":"VEC3"},{"bufferView":34,"componentType":5126,"count":24,"max":[0.81201171875,0.84326171875],"min":[0.74951171875,0.81201171875],"type":"VEC2"},{"bufferView":35,"componentType":5123,"count":36,"max":[23],"min":[0],"type":"SCALAR"},{"bufferView":36,"componentType":5126,"count":24,"max":[0.18812499940395355,0.37562501430511475,-0.1862500011920929],"min":[-0.12562499940395355,0.18687500059604645,-0.1875],"type":"VEC3"},{"bufferView":37,"componentType":5126,"count":24,"max":[1,1,1],"min":[-1,-1,-1],"type":"VEC3"},{"bufferView":38,"componentType":5126,"count":24,"max":[0.93701171875,0.78076171875],"min":[0.62451171875,0.68701171875],"type":"VEC2"},{"bufferView":39,"componentType":5123,"count":36,"max":[23],"min":[0],"type":"SCALAR"},{"bufferView":40,"componentType":5126,"count":24,"max":[0.125,0.375,-0.18806250393390656],"min":[-0.1875,0.1875,-0.18812499940395355],"type":"VEC3"},{"bufferView":41,"componentType":5126,"count":24,"max":[1,1,1],"min":[-1,-1,-1],"type":"VEC3"},{"bufferView":42,"componentType":5126,"count":24,"max":[0.93701171875,0.96826171875],"min":[0.62451171875,0.87451171875],"type":"VEC2"},{"bufferView":43,"componentType":5123,"count":36,"max":[23],"min":[0],"type":"SCALAR"},{"bufferView":44,"componentType":5126,"count":24,"max":[0.0625,0.03125,-0.0008750000270083547],"min":[0,-0.03125,-0.0009374999790452421],"type":"VEC3"},{"bufferView":45,"componentType":5126,"count":24,"max":[1,1,1],"min":[-1,-1,-1],"type":"VEC3"},{"bufferView":46,"componentType":5126,"count":24,"max":[0.81201171875,0.84326171875],"min":[0.74951171875,0.81201171875],"type":"VEC2"},{"bufferView":47,"componentType":5123,"count":36,"max":[23],"min":[0],"type":"SCALAR"},{"bufferView":48,"componentType":5126,"count":24,"max":[0.12562499940395355,0.37562501430511475,-0.1862500011920929],"min":[-0.18812499940395355,0.18687500059604645,-0.1875],"type":"VEC3"},{"bufferView":49,"componentType":5126,"count":24,"max":[1,1,1],"min":[-1,-1,-1],"type":"VEC3"},{"bufferView":50,"componentType":5126,"count":24,"max":[0.93701171875,0.78076171875],"min":[0.62451171875,0.68701171875],"type":"VEC2"},{"bufferView":51,"componentType":5123,"count":36,"max":[23],"min":[0],"type":"SCALAR"},{"bufferView":52,"componentType":5126,"count":24,"max":[0.25,0.6875,-0.062437500804662704],"min":[-0.25,0.4375,-0.0625],"type":"VEC3"},{"bufferView":53,"componentType":5126,"count":24,"max":[1,1,1],"min":[-1,-1,-1],"type":"VEC3"},{"bufferView":54,"componentType":5126,"count":24,"max":[0.49951171875,0.62451171875],"min":[-0.00048828125,0.49951171875],"type":"VEC2"},{"bufferView":55,"componentType":5123,"count":36,"max":[23],"min":[0],"type":"SCALAR"},{"bufferView":56,"componentType":5126,"count":24,"max":[-0.1875,0.53125,-0.062437500804662704],"min":[-0.4375,-0.03125,-0.0625],"type":"VEC3"},{"bufferView":57,"componentType":5126,"count":24,"max":[1,1,1],"min":[-1,-1,-1],"type":"VEC3"},{"bufferView":58,"componentType":5126,"count":24,"max":[0.74951171875,0.65576171875],"min":[0.49951171875,0.37451171875],"type":"VEC2"},{"bufferView":59,"componentType":5123,"count":36,"max":[23],"min":[0],"type":"SCALAR"},{"bufferView":60,"componentType":5126,"count":24,"max":[0.4375,0.53125,-0.062437500804662704],"min":[0.1875,-0.03125,-0.0625],"type":"VEC3"},{"bufferView":61,"componentType":5126,"count":24,"max":[1,1,1],"min":[-1,-1,-1],"type":"VEC3"},{"bufferView":62,"componentType":5126,"count":24,"max":[0.24951171875,0.90576171875],"min":[-0.00048828125,0.62451171875],"type":"VEC2"},{"bufferView":63,"componentType":5123,"count":36,"max":[23],"min":[0],"type":"SCALAR"},{"bufferView":64,"componentType":5126,"count":24,"max":[0.25,-0.4375,-0.062437500804662704],"min":[-0.25,-0.6875,-0.0625],"type":"VEC3"},{"bufferView":65,"componentType":5126,"count":24,"max":[1,1,1],"min":[-1,-1,-1],"type":"VEC3"},{"bufferView":66,"componentType":5126,"count":24,"max":[0.49951171875,0.49951171875],"min":[-0.00048828125,0.37451171875],"type":"VEC2"},{"bufferView":67,"componentType":5123,"count":36,"max":[23],"min":[0],"type":"SCALAR"},{"bufferView":68,"componentType":5126,"count":64,"max":[4],"min":[0],"type":"SCALAR"},{"bufferView":69,"componentType":5126,"count":64,"max":[-0.008726482279598713,0.00033042169525288045,0.003490518545731902,0.9999573826789856],"min":[-0.10452846437692642,-0.00033042169525288045,-0.003490518545731902,0.9945219159126282],"type":"VEC4"},{"bufferView":70,"componentType":5126,"count":64,"max":[4],"min":[0],"type":"SCALAR"},{"bufferView":71,"componentType":5126,"count":64,"max":[0.050432369112968445,0.2791171371936798,0],"min":[-0.050432369112968445,0.2208828628063202,0],"type":"VEC3"},{"bufferView":72,"componentType":5126,"count":158,"max":[7.958333492279053],"min":[0],"type":"SCALAR"},{"bufferView":73,"componentType":5126,"count":158,"max":[-0.008801189251244068,0.0003888637002091855,0.004362917505204678,0.9999578595161438],"min":[-0.09985572099685669,-0.00042397662764415145,-0.004351411946117878,0.9949971437454224],"type":"VEC4"},{"bufferView":74,"componentType":5126,"count":158,"max":[7.958333492279053],"min":[0],"type":"SCALAR"},{"bufferView":75,"componentType":5126,"count":158,"max":[0.03123326785862446,0.2629409432411194,0.04478209838271141],"min":[-0.03123326785862446,0.23705904185771942,-0.04478209838271141],"type":"VEC3"},{"bufferView":76,"componentType":5126,"count":110,"max":[5.958333492279053],"min":[0],"type":"SCALAR"},{"bufferView":77,"componentType":5126,"count":110,"max":[-0.20226529240608215,-0.01018279418349266,-0.10469839721918106,0.9734867811203003],"min":[-0.2946575880050659,-0.02122480608522892,-0.10949898511171341,0.9493851661682129],"type":"VEC4"},{"bufferView":78,"componentType":5126,"count":110,"max":[5.958333492279053],"min":[0],"type":"SCALAR"},{"bufferView":79,"componentType":5126,"count":110,"max":[0.02241438627243042,0.2629409432411194,0],"min":[-0.022393053397536278,0.23705904185771942,0],"type":"VEC3"},{"bufferView":80,"componentType":5126,"count":3,"max":[3.5],"min":[0],"type":"SCALAR"},{"bufferView":81,"componentType":5126,"count":3,"max":[0,0,0.006874999962747097],"min":[0,0,0],"type":"VEC3"},{"bufferView":82,"componentType":5126,"count":3,"max":[3.5],"min":[0],"type":"SCALAR"},{"bufferView":83,"componentType":5126,"count":3,"max":[0,0.015625,0.0062500000931322575],"min":[0,0.015625,5.204170427930421e-18],"type":"VEC3"},{"bufferView":84,"componentType":5126,"count":5,"max":[3.5],"min":[0],"type":"SCALAR"},{"bufferView":85,"componentType":5126,"count":5,"max":[0,0.0625,-0.1875],"min":[0,0.03125,-0.1875],"type":"VEC3"},{"bufferView":86,"componentType":5126,"count":1,"max":[0],"min":[0],"type":"SCALAR"},{"bufferView":87,"componentType":5126,"count":1,"max":[-0.03125,-0.03125,-0.002624999964609742],"min":[-0.03125,-0.03125,-0.002624999964609742],"type":"VEC3"},{"bufferView":88,"componentType":5126,"count":1,"max":[0],"min":[0],"type":"SCALAR"},{"bufferView":89,"componentType":5126,"count":1,"max":[0.03125,-0.03125,-0.002624999964609742],"min":[0.03125,-0.03125,-0.002624999964609742],"type":"VEC3"},{"bufferView":90,"componentType":5126,"count":3,"max":[0.1666666716337204],"min":[0],"type":"SCALAR"},{"bufferView":91,"componentType":5126,"count":3,"max":[-0.03125,-0.03125,5.551115123125783e-17],"min":[-0.03125,-0.03125,-0.002624999964609742],"type":"VEC3"},{"bufferView":92,"componentType":5126,"count":3,"max":[0.1666666716337204],"min":[0],"type":"SCALAR"},{"bufferView":93,"componentType":5126,"count":3,"max":[0.03125,-0.03125,5.551115123125783e-17],"min":[0.03125,-0.03125,-0.0025625000707805157],"type":"VEC3"}],"materials":[{"pbrMetallicRoughness":{"metallicFactor":0,"roughnessFactor":1,"baseColorTexture":{"index":0}},"alphaMode":"MASK","alphaCutoff":0.05,"doubleSided":true}],"textures":[{"sampler":0,"source":0,"name":"gastly.png"}],"samplers":[{"magFilter":9728,"minFilter":9728,"wrapS":33071,"wrapT":33071}],"images":[{"mimeType":"image/png","uri":"data:image/png;base64,"}],"meshes":[{"primitives":[{"mode":4,"attributes":{"POSITION":0,"NORMAL":1,"TEXCOORD_0":2},"indices":3,"material":0}]},{"primitives":[{"mode":4,"attributes":{"POSITION":4,"NORMAL":5,"TEXCOORD_0":6},"indices":7,"material":0}]},{"primitives":[{"mode":4,"attributes":{"POSITION":8,"NORMAL":9,"TEXCOORD_0":10},"indices":11,"material":0}]},{"primitives":[{"mode":4,"attributes":{"POSITION":12,"NORMAL":13,"TEXCOORD_0":14},"indices":15,"material":0}]},{"primitives":[{"mode":4,"attributes":{"POSITION":16,"NORMAL":17,"TEXCOORD_0":18},"indices":19,"material":0}]},{"primitives":[{"mode":4,"attributes":{"POSITION":20,"NORMAL":21,"TEXCOORD_0":22},"indices":23,"material":0}]},{"primitives":[{"mode":4,"attributes":{"POSITION":24,"NORMAL":25,"TEXCOORD_0":26},"indices":27,"material":0}]},{"primitives":[{"mode":4,"attributes":{"POSITION":28,"NORMAL":29,"TEXCOORD_0":30},"indices":31,"material":0}]},{"primitives":[{"mode":4,"attributes":{"POSITION":32,"NORMAL":33,"TEXCOORD_0":34},"indices":35,"material":0}]},{"primitives":[{"mode":4,"attributes":{"POSITION":36,"NORMAL":37,"TEXCOORD_0":38},"indices":39,"material":0}]},{"primitives":[{"mode":4,"attributes":{"POSITION":40,"NORMAL":41,"TEXCOORD_0":42},"indices":43,"material":0}]},{"primitives":[{"mode":4,"attributes":{"POSITION":44,"NORMAL":45,"TEXCOORD_0":46},"indices":47,"material":0}]},{"primitives":[{"mode":4,"attributes":{"POSITION":48,"NORMAL":49,"TEXCOORD_0":50},"indices":51,"material":0}]},{"primitives":[{"mode":4,"attributes":{"POSITION":52,"NORMAL":53,"TEXCOORD_0":54},"indices":55,"material":0}]},{"primitives":[{"mode":4,"attributes":{"POSITION":56,"NORMAL":57,"TEXCOORD_0":58},"indices":59,"material":0}]},{"primitives":[{"mode":4,"attributes":{"POSITION":60,"NORMAL":61,"TEXCOORD_0":62},"indices":63,"material":0}]},{"primitives":[{"mode":4,"attributes":{"POSITION":64,"NORMAL":65,"TEXCOORD_0":66},"indices":67,"material":0}]}],"animations":[{"name":"animation.gastly.ground_idle","samplers":[{"input":68,"output":69,"interpolation":"LINEAR"},{"input":70,"output":71,"interpolation":"LINEAR"}],"channels":[{"sampler":0,"target":{"node":30,"path":"rotation"}},{"sampler":1,"target":{"node":30,"path":"translation"}}]},{"name":"animation.gastly.ground_walk","samplers":[{"input":72,"output":73,"interpolation":"LINEAR"},{"input":74,"output":75,"interpolation":"LINEAR"}],"channels":[{"sampler":0,"target":{"node":30,"path":"rotation"}},{"sampler":1,"target":{"node":30,"path":"translation"}}]},{"name":"animation.gastly.sleep","samplers":[{"input":76,"output":77,"interpolation":"LINEAR"},{"input":78,"output":79,"interpolation":"LINEAR"},{"input":80,"output":81,"interpolation":"LINEAR"},{"input":82,"output":83,"interpolation":"LINEAR"},{"input":84,"output":85,"interpolation":"LINEAR"},{"input":86,"output":87,"interpolation":"LINEAR"},{"input":88,"output":89,"interpolation":"LINEAR"}],"channels":[{"sampler":0,"target":{"node":30,"path":"rotation"}},{"sampler":1,"target":{"node":30,"path":"translation"}},{"sampler":2,"target":{"node":4,"path":"translation"}},{"sampler":3,"target":{"node":8,"path":"translation"}},{"sampler":4,"target":{"node":20,"path":"translation"}},{"sampler":5,"target":{"node":13,"path":"translation"}},{"sampler":6,"target":{"node":18,"path":"translation"}}]},{"name":"animation.gastly.blink","samplers":[{"input":90,"output":91,"interpolation":"LINEAR"},{"input":92,"output":93,"interpolation":"LINEAR"}],"channels":[{"sampler":0,"target":{"node":13,"path":"translation"}},{"sampler":1,"target":{"node":18,"path":"translation"}}]}]}