{"asset":{"version":"2.0","generator":"Blockbench 4.8.3 glTF exporter"},"scenes":[{"nodes":[19],"name":"blockbench_export"}],"scene":0,"nodes":[{"translation":[0.0625,-0.15625,0.125],"name":"cube","mesh":0},{"rotation":[-0.08715574274765817,0,0,0.9961946980917455],"translation":[0,0.265625,-0.125],"name":"cube","mesh":1},{"translation":[0.03125,-0.140625,0.578125],"name":"cube","mesh":2},{"translation":[0.09375,-0.109375,0.11875],"name":"cube","mesh":3},{"rotation":[0.02181488503456112,0,0,0.9997620270799091],"translation":[0.1578125,-0.015625,0.015625],"name":"cube","mesh":4},{"rotation":[0.02181488503456112,0,0,0.9997620270799091],"translation":[-0.1578125,-0.015625,0.015625],"name":"cube","mesh":5},{"translation":[0,0.0625,-0.125],"name":"eyes","children":[4,5]},{"translation":[0,-0.0625,0.34375],"name":"cube","mesh":6},{"translation":[0,0,0.21875],"name":"tail","children":[7]},{"translation":[-0.03125,-0.0625,0.34375],"name":"cube","mesh":7},{"translation":[-0.09375,-0.015625,0.21875],"name":"lefttail","children":[9]},{"translation":[0.03125,-0.0625,0.34375],"name":"cube","mesh":8},{"translation":[0.09375,-0.015625,0.21875],"name":"righttail","children":[11]},{"translation":[0.09375,-0.203125,0.09375],"name":"cube","mesh":9},{"translation":[-0.15625,0.015625,0.015625],"name":"leftwing","children":[13]},{"translation":[-0.09375,-0.203125,0.09375],"name":"cube","mesh":10},{"translation":[0.15625,0.015625,0.015625],"name":"rightwing","children":[15]},{"translation":[0,0.15625,-0.0625],"name":"body","children":[0,1,2,3,6,8,10,12,14,16]},{"name":"goldeen","children":[17]},{"children":[18]}],"bufferViews":[{"buffer":0,"byteOffset":0,"byteLength":288,"target":34962,"byteStride":12},{"buffer":0,"byteOffset":288,"byteLength":288,"target":34962,"byteStride":12},{"buffer":0,"byteOffset":576,"byteLength":192,"target":34962,"byteStride":8},{"buffer":0,"byteOffset":768,"byteLength":72,"target":34963},{"buffer":0,"byteOffset":840,"byteLength":288,"target":34962,"byteStride":12},{"buffer":0,"byteOffset":1128,"byteLength":288,"target":34962,"byteStride":12},{"buffer":0,"byteOffset":1416,"byteLength":192,"target":34962,"byteStride":8},{"buffer":0,"byteOffset":1608,"byteLength":72,"target":34963},{"buffer":0,"byteOffset":1680,"byteLength":288,"target":34962,"byteStride":12},{"buffer":0,"byteOffset":1968,"byteLength":288,"target":34962,"byteStride":12},{"buffer":0,"byteOffset":2256,"byteLength":192,"target":34962,"byteStride":8},{"buffer":0,"byteOffset":2448,"byteLength":72,"target":34963},{"buffer":0,"byteOffset":2520,"byteLength":288,"target":34962,"byteStride":12},{"buffer":0,"byteOffset":2808,"byteLength":288,"target":34962,"byteStride":12},{"buffer":0,"byteOffset":3096,"byteLength":192,"target":34962,"byteStride":8},{"buffer":0,"byteOffset":3288,"byteLength":72,"target":34963},{"buffer":0,"byteOffset":3360,"byteLength":288,"target":34962,"byteStride":12},{"buffer":0,"byteOffset":3648,"byteLength":288,"target":34962,"byteStride":12},{"buffer":0,"byteOffset":3936,"byteLength":192,"target":34962,"byteStride":8},{"buffer":0,"byteOffset":4128,"byteLength":72,"target":34963},{"buffer":0,"byteOffset":4200,"byteLength":288,"target":34962,"byteStride":12},{"buffer":0,"byteOffset":4488,"byteLength":288,"target":34962,"byteStride":12},{"buffer":0,"byteOffset":4776,"byteLength":192,"target":34962,"byteStride":8},{"buffer":0,"byteOffset":4968,"byteLength":72,"target":34963},{"buffer":0,"byteOffset":5040,"byteLength":288,"target":34962,"byteStride":12},{"buffer":0,"byteOffset":5328,"byteLength":288,"target":34962,"byteStride":12},{"buffer":0,"byteOffset":5616,"byteLength":192,"target":34962,"byteStride":8},{"buffer":0,"byteOffset":5808,"byteLength":72,"target":34963},{"buffer":0,"byteOffset":5880,"byteLength":288,"target":34962,"byteStride":12},{"buffer":0,"byteOffset":6168,"byteLength":288,"target":34962,"byteStride":12},{"buffer":0,"byteOffset":6456,"byteLength":192,"target":34962,"byteStride":8},{"buffer":0,"byteOffset":6648,"byteLength":72,"target":34963},{"buffer":0,"byteOffset":6720,"byteLength":288,"target":34962,"byteStride":12},{"buffer":0,"byteOffset":7008,"byteLength":288,"target":34962,"byteStride":12},{"buffer":0,"byteOffset":7296,"byteLength":192,"target":34962,"byteStride":8},{"buffer":0,"byteOffset":7488,"byteLength":72,"target":34963},{"buffer":0,"byteOffset":7560,"byteLength":288,"target":34962,"byteStride":12},{"buffer":0,"byteOffset":7848,"byteLength":288,"target":34962,"byteStride":12},{"buffer":0,"byteOffset":8136,"byteLength":192,"target":34962,"byteStride":8},{"buffer":0,"byteOffset":8328,"byteLength":72,"target":34963},{"buffer":0,"byteOffset":8400,"byteLength":288,"target":34962,"byteStride":12},{"buffer":0,"byteOffset":8688,"byteLength":288,"target":34962,"byteStride":12},{"buffer":0,"byteOffset":8976,"byteLength":192,"target":34962,"byteStride":8},{"buffer":0,"byteOffset":9168,"byteLength":72,"target":34963},{"buffer":0,"byteOffset":9240,"byteLength":4},{"buffer":0,"byteOffset":9244,"byteLength":16},{"buffer":0,"byteOffset":9260,"byteLength":4},{"buffer":0,"byteOffset":9264,"byteLength":16},{"buffer":0,"byteOffset":9280,"byteLength":4},{"buffer":0,"byteOffset":9284,"byteLength":16},{"buffer":0,"byteOffset":9300,"byteLength":4},{"buffer":0,"byteOffset":9304,"byteLength":16},{"buffer":0,"byteOffset":9320,"byteLength":4},{"buffer":0,"byteOffset":9324,"byteLength":16},{"buffer":0,"byteOffset":9340,"byteLength":4},{"buffer":0,"byteOffset":9344,"byteLength":16},{"buffer":0,"byteOffset":9360,"byteLength":4},{"buffer":0,"byteOffset":9364,"byteLength":16},{"buffer":0,"byteOffset":9380,"byteLength":4},{"buffer":0,"byteOffset":9384,"byteLength":16},{"buffer":0,"byteOffset":9400,"byteLength":4},{"buffer":0,"byteOffset":9404,"byteLength":16},{"buffer":0,"byteOffset":9420,"byteLength":4},{"buffer":0,"byteOffset":9424,"byteLength":16},{"buffer":0,"byteOffset":9440,"byteLength":4},{"buffer":0,"byteOffset":9444,"byteLength":16},{"buffer":0,"byteOffset":9460,"byteLength":4},{"buffer":0,"byteOffset":9464,"byteLength":16},{"buffer":0,"byteOffset":9480,"byteLength":4},{"buffer":0,"byteOffset":9484,"byteLength":16},{"buffer":0,"byteOffset":9500,"byteLength":4},{"buffer":0,"byteOffset":9504,"byteLength":16},{"buffer":0,"byteOffset":9520,"byteLength":4},{"buffer":0,"byteOffset":9524,"byteLength":16},{"buffer":0,"byteOffset":9540,"byteLength":4},{"buffer":0,"byteOffset":9544,"byteLength":16},{"buffer":0,"byteOffset":9560,"byteLength":4},{"buffer":0,"byteOffset":9564,"byteLength":16},{"buffer":0,"byteOffset":9580,"byteLength":4},{"buffer":0,"byteOffset":9584,"byteLength":16},{"buffer":0,"byteOffset":9600,"byteLength":4},{"buffer":0,"byteOffset":9604,"byteLength":16},{"buffer":0,"byteOffset":9620,"byteLength":4},{"buffer":0,"byteOffset":9624,"byteLength":16}],"buffers":[{"byteLength":9640,"uri":"data:application/octet-stream;base64,"}],"accessors":[{"bufferView":0,"componentType":5126,"count":24,"max":[0.09375,0.3125,0.09375],"min":[-0.21875,0,-0.34375],"type":"VEC3"},{"bufferView":1,"componentType":5126,"count":24,"max":[1,1,1],"min":[-1,-1,-1],"type":"VEC3"},{"bufferView":2,"componentType":5126,"count":24,"max":[0.593505859375,0.374755859375],"min":[0.218994140625,0.187744140625],"type":"VEC2"},{"bufferView":3,"componentType":5123,"count":36,"max":[23],"min":[0],"type":"SCALAR"},{"bufferView":4,"componentType":5126,"count":24,"max":[0.0012499999720603228,0.1262499988079071,0.0637499988079071],"min":[-0.0012499999720603228,-0.1262499988079071,-0.0637499988079071],"type":"VEC3"},{"bufferView":5,"componentType":5126,"count":24,"max":[1,1,1],"min":[-1,-1,-1],"type":"VEC3"},{"bufferView":6,"componentType":5126,"count":24,"max":[0.062744140625,0.187255859375],"min":[0.000244140625,0.093994140625],"type":"VEC2"},{"bufferView":7,"componentType":5123,"count":36,"max":[23],"min":[0],"type":"SCALAR"},{"bufferView":8,"componentType":5126,"count":24,"max":[-0.029999999329447746,0.3762499988079071,-0.2800000011920929],"min":[-0.032499998807907104,0.1862500011920929,-0.5950000286102295],"type":"VEC3"},{"bufferView":9,"componentType":5126,"count":24,"max":[1,1,1],"min":[-1,-1,-1],"type":"VEC3"},{"bufferView":10,"componentType":5126,"count":24,"max":[0.156494140625,0.124755859375],"min":[0.000244140625,0.000244140625],"type":"VEC2"},{"bufferView":11,"componentType":5123,"count":36,"max":[23],"min":[0],"type":"SCALAR"},{"bufferView":12,"componentType":5126,"count":24,"max":[-0.029999999329447746,0.1262499988079071,-0.3425000011920929],"min":[-0.1574999988079071,-0.0012499999720603228,-0.3449999988079071],"type":"VEC3"},{"bufferView":13,"componentType":5126,"count":24,"max":[1,1,1],"min":[-1,-1,-1],"type":"VEC3"},{"bufferView":14,"componentType":5126,"count":24,"max":[0.999755859375,0.031005859375],"min":[0.937255859375,-0.000244140625],"type":"VEC2"},{"bufferView":15,"componentType":5123,"count":36,"max":[23],"min":[0],"type":"SCALAR"},{"bufferView":16,"componentType":5126,"count":24,"max":[0.0012499999720603228,0.0637499988079071,0.0637499988079071],"min":[-0.0012499999720603228,-0.0637499988079071,-0.0637499988079071],"type":"VEC3"},{"bufferView":17,"componentType":5126,"count":24,"max":[1,1,1],"min":[-1,-1,-1],"type":"VEC3"},{"bufferView":18,"componentType":5126,"count":24,"max":[1.000244140625,0.171630859375],"min":[0.937744140625,0.109619140625],"type":"VEC2"},{"bufferView":19,"componentType":5123,"count":36,"max":[23],"min":[0],"type":"SCALAR"},{"bufferView":20,"componentType":5126,"count":24,"max":[0.0012499999720603228,0.0637499988079071,0.0637499988079071],"min":[-0.0012499999720603228,-0.0637499988079071,-0.0637499988079071],"type":"VEC3"},{"bufferView":21,"componentType":5126,"count":24,"max":[1,1,1],"min":[-1,-1,-1],"type":"VEC3"},{"bufferView":22,"componentType":5126,"count":24,"max":[1.000244140625,0.171630859375],"min":[0.937744140625,0.109619140625],"type":"VEC2"},{"bufferView":23,"componentType":5123,"count":36,"max":[23],"min":[0],"type":"SCALAR"},{"bufferView":24,"componentType":5126,"count":24,"max":[0.1574999988079071,0.0637499988079071,0.2824999988079071],"min":[-0.1574999988079071,0.061250001192092896,-0.3449999988079071],"type":"VEC3"},{"bufferView":25,"componentType":5126,"count":24,"max":[1,1,1],"min":[-1,-1,-1],"type":"VEC3"},{"bufferView":26,"componentType":5126,"count":24,"max":[0.468505859375,0.156494140625],"min":[0.000244140625,0.000244140625],"type":"VEC2"},{"bufferView":27,"componentType":5123,"count":36,"max":[23],"min":[0],"type":"SCALAR"},{"bufferView":28,"componentType":5126,"count":24,"max":[0.1574999988079071,0.0637499988079071,0.2199999988079071],"min":[-0.2199999988079071,0.061250001192092896,-0.3449999988079071],"type":"VEC3"},{"bufferView":29,"componentType":5126,"count":24,"max":[1,1,1],"min":[-1,-1,-1],"type":"VEC3"},{"bufferView":30,"componentType":5126,"count":24,"max":[0.468505859375,0.297119140625],"min":[0.000244140625,0.156494140625],"type":"VEC2"},{"bufferView":31,"componentType":5123,"count":36,"max":[23],"min":[0],"type":"SCALAR"},{"bufferView":32,"componentType":5126,"count":24,"max":[0.2199999988079071,0.0637499988079071,0.2199999988079071],"min":[-0.1574999988079071,0.061250001192092896,-0.3449999988079071],"type":"VEC3"},{"bufferView":33,"componentType":5126,"count":24,"max":[1,1,1],"min":[-1,-1,-1],"type":"VEC3"},{"bufferView":34,"componentType":5126,"count":24,"max":[0.640380859375,0.140869140625],"min":[0.172119140625,0.000244140625],"type":"VEC2"},{"bufferView":35,"componentType":5123,"count":36,"max":[23],"min":[0],"type":"SCALAR"},{"bufferView":36,"componentType":5126,"count":24,"max":[-0.0925000011920929,0.2043749988079071,0.0637499988079071],"min":[-0.5950000286102295,0.2018750011920929,-0.2512499988079071],"type":"VEC3"},{"bufferView":37,"componentType":5126,"count":24,"max":[1,1,1],"min":[-1,-1,-1],"type":"VEC3"},{"bufferView":38,"componentType":5126,"count":24,"max":[0.406005859375,0.453369140625],"min":[0.000244140625,0.375244140625],"type":"VEC2"},{"bufferView":39,"componentType":5123,"count":36,"max":[23],"min":[0],"type":"SCALAR"},{"bufferView":40,"componentType":5126,"count":24,"max":[0.5950000286102295,0.2043749988079071,0.0637499988079071],"min":[0.0925000011920929,0.2018750011920929,-0.2512499988079071],"type":"VEC3"},{"bufferView":41,"componentType":5126,"count":24,"max":[1,1,1],"min":[-1,-1,-1],"type":"VEC3"},{"bufferView":42,"componentType":5126,"count":24,"max":[0.656005859375,0.453369140625],"min":[0.250244140625,0.375244140625],"type":"VEC2"},{"bufferView":43,"componentType":5123,"count":36,"max":[23],"min":[0],"type":"SCALAR"},{"bufferView":44,"componentType":5126,"count":1,"max":[0],"min":[0],"type":"SCALAR"},{"bufferView":45,"componentType":5126,"count":1,"max":[0.06540312618017197,0,0,0.9978589415550232],"min":[0.06540312618017197,0,0,0.9978589415550232],"type":"VEC4"},{"bufferView":46,"componentType":5126,"count":1,"max":[0],"min":[0],"type":"SCALAR"},{"bufferView":47,"componentType":5126,"count":1,"max":[0.09406091272830963,-0.07892648130655289,0.09406091272830963,0.9879654049873352],"min":[0.09406091272830963,-0.07892648130655289,0.09406091272830963,0.9879654049873352],"type":"VEC4"},{"bufferView":48,"componentType":5126,"count":1,"max":[0],"min":[0],"type":"SCALAR"},{"bufferView":49,"componentType":5126,"count":1,"max":[0.09406091272830963,0.07892648130655289,-0.09406091272830963,0.9879654049873352],"min":[0.09406091272830963,0.07892648130655289,-0.09406091272830963,0.9879654049873352],"type":"VEC4"},{"bufferView":50,"componentType":5126,"count":1,"max":[0],"min":[0],"type":"SCALAR"},{"bufferView":51,"componentType":5126,"count":1,"max":[-0.022665634751319885,0.1285432130098343,0.17216259241104126,0.9763826131820679],"min":[-0.022665634751319885,0.1285432130098343,0.17216259241104126,0.9763826131820679],"type":"VEC4"},{"bufferView":52,"componentType":5126,"count":1,"max":[0],"min":[0],"type":"SCALAR"},{"bufferView":53,"componentType":5126,"count":1,"max":[-0.022665634751319885,-0.1285432130098343,-0.17216259241104126,0.9763826131820679],"min":[-0.022665634751319885,-0.1285432130098343,-0.17216259241104126,0.9763826131820679],"type":"VEC4"},{"bufferView":54,"componentType":5126,"count":1,"max":[0],"min":[0],"type":"SCALAR"},{"bufferView":55,"componentType":5126,"count":1,"max":[-0.08715574443340302,0,0,0.9961947202682495],"min":[-0.08715574443340302,0,0,0.9961947202682495],"type":"VEC4"},{"bufferView":56,"componentType":5126,"count":1,"max":[0],"min":[0],"type":"SCALAR"},{"bufferView":57,"componentType":5126,"count":1,"max":[0.10767673701047897,-0.11304910480976105,0.18271073698997498,0.9706917405128479],"min":[0.10767673701047897,-0.11304910480976105,0.18271073698997498,0.9706917405128479],"type":"VEC4"},{"bufferView":58,"componentType":5126,"count":1,"max":[0],"min":[0],"type":"SCALAR"},{"bufferView":59,"componentType":5126,"count":1,"max":[0.10767673701047897,0.11304910480976105,-0.18271073698997498,0.9706917405128479],"min":[0.10767673701047897,0.11304910480976105,-0.18271073698997498,0.9706917405128479],"type":"VEC4"},{"bufferView":60,"componentType":5126,"count":1,"max":[0],"min":[0],"type":"SCALAR"},{"bufferView":61,"componentType":5126,"count":1,"max":[-0.12607862055301666,-0.03378266468644142,0.2566048204898834,0.9576622247695923],"min":[-0.12607862055301666,-0.03378266468644142,0.2566048204898834,0.9576622247695923],"type":"VEC4"},{"bufferView":62,"componentType":5126,"count":1,"max":[0],"min":[0],"type":"SCALAR"},{"bufferView":63,"componentType":5126,"count":1,"max":[-0.12607862055301666,0.03378266468644142,-0.2566048204898834,0.9576622247695923],"min":[-0.12607862055301666,0.03378266468644142,-0.2566048204898834,0.9576622247695923],"type":"VEC4"},{"bufferView":64,"componentType":5126,"count":1,"max":[0],"min":[0],"type":"SCALAR"},{"bufferView":65,"componentType":5126,"count":1,"max":[-0.04361938685178757,0,0,0.9990482330322266],"min":[-0.04361938685178757,0,0,0.9990482330322266],"type":"VEC4"},{"bufferView":66,"componentType":5126,"count":1,"max":[0],"min":[0],"type":"SCALAR"},{"bufferView":67,"componentType":5126,"count":1,"max":[0.05791327729821205,-0.07820435613393784,0.17656667530536652,0.9794663786888123],"min":[0.05791327729821205,-0.07820435613393784,0.17656667530536652,0.9794663786888123],"type":"VEC4"},{"bufferView":68,"componentType":5126,"count":1,"max":[0],"min":[0],"type":"SCALAR"},{"bufferView":69,"componentType":5126,"count":1,"max":[0.05791327729821205,0.07820435613393784,-0.17656667530536652,0.9794663786888123],"min":[0.05791327729821205,0.07820435613393784,-0.17656667530536652,0.9794663786888123],"type":"VEC4"},{"bufferView":70,"componentType":5126,"count":1,"max":[0],"min":[0],"type":"SCALAR"},{"bufferView":71,"componentType":5126,"count":1,"max":[-0.1881968080997467,0.21522966027259827,0.28049275279045105,0.9162870645523071],"min":[-0.1881968080997467,0.21522966027259827,0.28049275279045105,0.9162870645523071],"type":"VEC4"},{"bufferView":72,"componentType":5126,"count":1,"max":[0],"min":[0],"type":"SCALAR"},{"bufferView":73,"componentType":5126,"count":1,"max":[-0.1881968080997467,-0.21522966027259827,-0.28049275279045105,0.9162870645523071],"min":[-0.1881968080997467,-0.21522966027259827,-0.28049275279045105,0.9162870645523071],"type":"VEC4"},{"bufferView":74,"componentType":5126,"count":1,"max":[0],"min":[0],"type":"SCALAR"},{"bufferView":75,"componentType":5126,"count":1,"max":[-0.237685889005661,0,0,0.9713420867919922],"min":[-0.237685889005661,0,0,0.9713420867919922],"type":"VEC4"},{"bufferView":76,"componentType":5126,"count":1,"max":[0],"min":[0],"type":"SCALAR"},{"bufferView":77,"componentType":5126,"count":1,"max":[-0.14183302223682404,-0.03772720694541931,0.2545517086982727,0.9558574557304382],"min":[-0.14183302223682404,-0.03772720694541931,0.2545517086982727,0.9558574557304382],"type":"VEC4"},{"bufferView":78,"componentType":5126,"count":1,"max":[0],"min":[0],"type":"SCALAR"},{"bufferView":79,"componentType":5126,"count":1,"max":[-0.2497127205133438,0.09341447055339813,-0.36406031250953674,0.892399787902832],"min":[-0.2497127205133438,0.09341447055339813,-0.36406031250953674,0.892399787902832],"type":"VEC4"},{"bufferView":80,"componentType":5126,"count":1,"max":[0],"min":[0],"type":"SCALAR"},{"bufferView":81,"componentType":5126,"count":1,"max":[-0.022665634751319885,0.1285432130098343,0.17216259241104126,0.9763826131820679],"min":[-0.022665634751319885,0.1285432130098343,0.17216259241104126,0.9763826131820679],"type":"VEC4"},{"bufferView":82,"componentType":5126,"count":1,"max":[0],"min":[0],"type":"SCALAR"},{"bufferView":83,"componentType":5126,"count":1,"max":[-0.022665634751319885,-0.1285432130098343,-0.17216259241104126,0.9763826131820679],"min":[-0.022665634751319885,-0.1285432130098343,-0.17216259241104126,0.9763826131820679],"type":"VEC4"}],"materials":[{"pbrMetallicRoughness":{"metallicFactor":0,"roughnessFactor":1,"baseColorTexture":{"index":0}},"alphaMode":"MASK","alphaCutoff":0.05,"doubleSided":true}],"textures":[{"sampler":0,"source":0,"name":"goldeen.png"}],"samplers":[{"magFilter":9728,"minFilter":9728,"wrapS":33071,"wrapT":33071}],"images":[{"mimeType":"image/png","uri":"data:image/png;base64,"}],"meshes":[{"primitives":[{"mode":4,"attributes":{"POSITION":0,"NORMAL":1,"TEXCOORD_0":2},"indices":3,"material":0}]},{"primitives":[{"mode":4,"attributes":{"POSITION":4,"NORMAL":5,"TEXCOORD_0":6},"indices":7,"material":0}]},{"primitives":[{"mode":4,"attributes":{"POSITION":8,"NORMAL":9,"TEXCOORD_0":10},"indices":11,"material":0}]},{"primitives":[{"mode":4,"attributes":{"POSITION":12,"NORMAL":13,"TEXCOORD_0":14},"indices":15,"material":0}]},{"primitives":[{"mode":4,"attributes":{"POSITION":16,"NORMAL":17,"TEXCOORD_0":18},"indices":19,"material":0}]},{"primitives":[{"mode":4,"attributes":{"POSITION":20,"NORMAL":21,"TEXCOORD_0":22},"indices":23,"material":0}]},{"primitives":[{"mode":4,"attributes":{"POSITION":24,"NORMAL":25,"TEXCOORD_0":26},"indices":27,"material":0}]},{"primitives":[{"mode":4,"attributes":{"POSITION":28,"NORMAL":29,"TEXCOORD_0":30},"indices":31,"material":0}]},{"primitives":[{"mode":4,"attributes":{"POSITION":32,"NORMAL":33,"TEXCOORD_0":34},"indices":35,"material":0}]},{"primitives":[{"mode":4,"attributes":{"POSITION":36,"NORMAL":37,"TEXCOORD_0":38},"indices":39,"material":0}]},{"primitives":[{"mode":4,"attributes":{"POSITION":40,"NORMAL":41,"TEXCOORD_0":42},"indices":43,"material":0}]}],"animations":[{"name":"animation.goldeen.ground_idle","samplers":[{"input":44,"output":45,"interpolation":"LINEAR"},{"input":46,"output":47,"interpolation":"LINEAR"},{"input":48,"output":49,"interpolation":"LINEAR"},{"input":50,"output":51,"interpolation":"LINEAR"},{"input":52,"output":53,"interpolation":"LINEAR"}],"channels":[{"sampler":0,"target":{"node":8,"path":"rotation"}},{"sampler":1,"target":{"node":10,"path":"rotation"}},{"sampler":2,"target":{"node":12,"path":"rotation"}},{"sampler":3,"target":{"node":14,"path":"rotation"}},{"sampler":4,"target":{"node":16,"path":"rotation"}}]},{"name":"animation.goldeen.water_idle","samplers":[{"input":54,"output":55,"interpolation":"LINEAR"},{"input":56,"output":57,"interpolation":"LINEAR"},{"input":58,"output":59,"interpolation":"LINEAR"},{"input":60,"output":61,"interpolation":"LINEAR"},{"input":62,"output":63,"interpolation":"LINEAR"}],"channels":[{"sampler":0,"target":{"node":8,"path":"rotation"}},{"sampler":1,"target":{"node":10,"path":"rotation"}},{"sampler":2,"target":{"node":12,"path":"rotation"}},{"sampler":3,"target":{"node":14,"path":"rotation"}},{"sampler":4,"target":{"node":16,"path":"rotation"}}]},{"name":"animation.goldeen.water_swim","samplers":[{"input":64,"output":65,"interpolation":"LINEAR"},{"input":66,"output":67,"interpolation":"LINEAR"},{"input":68,"output":69,"interpolation":"LINEAR"},{"input":70,"output":71,"interpolation":"LINEAR"},{"input":72,"output":73,"interpolation":"LINEAR"}],"channels":[{"sampler":0,"target":{"node":8,"path":"rotation"}},{"sampler":1,"target":{"node":10,"path":"rotation"}},{"sampler":2,"target":{"node":12,"path":"rotation"}},{"sampler":3,"target":{"node":14,"path":"rotation"}},{"sampler":4,"target":{"node":16,"path":"rotation"}}]},{"name":"animation.goldeen.render","samplers":[{"input":74,"output":75,"interpolation":"LINEAR"},{"input":76,"output":77,"interpolation":"LINEAR"},{"input":78,"output":79,"interpolation":"LINEAR"},{"input":80,"output":81,"interpolation":"LINEAR"},{"input":82,"output":83,"interpolation":"LINEAR"}],"channels":[{"sampler":0,"target":{"node":8,"path":"rotation"}},{"sampler":1,"target":{"node":10,"path":"rotation"}},{"sampler":2,"target":{"node":12,"path":"rotation"}},{"sampler":3,"target":{"node":14,"path":"rotation"}},{"sampler":4,"target":{"node":16,"path":"rotation"}}]}]}