{"asset":{"version":"2.0","generator":"Blockbench 4.8.3 glTF exporter"},"scenes":[{"nodes":[16],"name":"blockbench_export"}],"scene":0,"nodes":[{"translation":[0.125,-0.125,-0.21875],"name":"cube","mesh":0},{"rotation":[0.043619387365336,0,0,0.9990482215818578],"translation":[0,0.03125,0],"name":"cube","mesh":1},{"translation":[0.1875,-0.03125,-0.03125],"name":"cube","mesh":2},{"translation":[-0.09375,-0.09375,-0.1890625],"name":"lefteye","children":[2]},{"translation":[-0.1875,-0.03125,-0.03125],"name":"cube","mesh":3},{"translation":[0.09375,-0.09375,-0.1890625],"name":"righteye","children":[4]},{"translation":[0.28125,-0.125,-0.125],"name":"cube","mesh":4},{"rotation":[0,0,0.08715574274765817,0.9961946980917455],"translation":[-0.140625,-0.109375,-0.09375],"name":"leftfrontarm","children":[6]},{"translation":[-0.28125,-0.125,-0.125],"name":"cube","mesh":5},{"rotation":[0,0,-0.08715574274765817,0.9961946980917455],"translation":[0.140625,-0.109375,-0.09375],"name":"rightfrontarm","children":[8]},{"translation":[0.28125,-0.125,-0.125],"name":"cube","mesh":6},{"rotation":[0,0,0.08715574274765817,0.9961946980917455],"translation":[-0.140625,-0.109375,0.109375],"name":"leftbackarm","children":[10]},{"translation":[-0.28125,-0.125,-0.125],"name":"cube","mesh":7},{"rotation":[0,0,-0.08715574274765817,0.9961946980917455],"translation":[0.140625,-0.109375,0.109375],"name":"rightbackarm","children":[12]},{"translation":[0,0.234375,0.03125],"name":"body","children":[0,1,3,5,7,9,11,13]},{"translation":[0,-0.09375,0],"name":"kabuto","children":[14]},{"children":[15]}],"bufferViews":[{"buffer":0,"byteOffset":0,"byteLength":288,"target":34962,"byteStride":12},{"buffer":0,"byteOffset":288,"byteLength":288,"target":34962,"byteStride":12},{"buffer":0,"byteOffset":576,"byteLength":192,"target":34962,"byteStride":8},{"buffer":0,"byteOffset":768,"byteLength":72,"target":34963},{"buffer":0,"byteOffset":840,"byteLength":288,"target":34962,"byteStride":12},{"buffer":0,"byteOffset":1128,"byteLength":288,"target":34962,"byteStride":12},{"buffer":0,"byteOffset":1416,"byteLength":192,"target":34962,"byteStride":8},{"buffer":0,"byteOffset":1608,"byteLength":72,"target":34963},{"buffer":0,"byteOffset":1680,"byteLength":288,"target":34962,"byteStride":12},{"buffer":0,"byteOffset":1968,"byteLength":288,"target":34962,"byteStride":12},{"buffer":0,"byteOffset":2256,"byteLength":192,"target":34962,"byteStride":8},{"buffer":0,"byteOffset":2448,"byteLength":72,"target":34963},{"buffer":0,"byteOffset":2520,"byteLength":288,"target":34962,"byteStride":12},{"buffer":0,"byteOffset":2808,"byteLength":288,"target":34962,"byteStride":12},{"buffer":0,"byteOffset":3096,"byteLength":192,"target":34962,"byteStride":8},{"buffer":0,"byteOffset":3288,"byteLength":72,"target":34963},{"buffer":0,"byteOffset":3360,"byteLength":288,"target":34962,"byteStride":12},{"buffer":0,"byteOffset":3648,"byteLength":288,"target":34962,"byteStride":12},{"buffer":0,"byteOffset":3936,"byteLength":192,"target":34962,"byteStride":8},{"buffer":0,"byteOffset":4128,"byteLength":72,"target":34963},{"buffer":0,"byteOffset":4200,"byteLength":288,"target":34962,"byteStride":12},{"buffer":0,"byteOffset":4488,"byteLength":288,"target":34962,"byteStride":12},{"buffer":0,"byteOffset":4776,"byteLength":192,"target":34962,"byteStride":8},{"buffer":0,"byteOffset":4968,"byteLength":72,"target":34963},{"buffer":0,"byteOffset":5040,"byteLength":288,"target":34962,"byteStride":12},{"buffer":0,"byteOffset":5328,"byteLength":288,"target":34962,"byteStride":12},{"buffer":0,"byteOffset":5616,"byteLength":192,"target":34962,"byteStride":8},{"buffer":0,"byteOffset":5808,"byteLength":72,"target":34963},{"buffer":0,"byteOffset":5880,"byteLength":288,"target":34962,"byteStride":12},{"buffer":0,"byteOffset":6168,"byteLength":288,"target":34962,"byteStride":12},{"buffer":0,"byteOffset":6456,"byteLength":192,"target":34962,"byteStride":8},{"buffer":0,"byteOffset":6648,"byteLength":72,"target":34963},{"buffer":0,"byteOffset":6720,"byteLength":4},{"buffer":0,"byteOffset":6724,"byteLength":16},{"buffer":0,"byteOffset":6740,"byteLength":4},{"buffer":0,"byteOffset":6744,"byteLength":16},{"buffer":0,"byteOffset":6760,"byteLength":4},{"buffer":0,"byteOffset":6764,"byteLength":16},{"buffer":0,"byteOffset":6780,"byteLength":4},{"buffer":0,"byteOffset":6784,"byteLength":16}],"buffers":[{"byteLength":6800,"uri":"data:application/octet-stream;base64,"}],"accessors":[{"bufferView":0,"componentType":5126,"count":24,"max":[0.0625,0.25,0.4375],"min":[-0.3125,0,0],"type":"VEC3"},{"bufferView":1,"componentType":5126,"count":24,"max":[1,1,1],"min":[-1,-1,-1],"type":"VEC3"},{"bufferView":2,"componentType":5126,"count":24,"max":[0.81201171875,0.71826171875],"min":[0.00048828125,0.37548828125],"type":"VEC2"},{"bufferView":3,"componentType":5123,"count":36,"max":[23],"min":[0],"type":"SCALAR"},{"bufferView":4,"componentType":5126,"count":24,"max":[0.21875,0.125,0.25],"min":[-0.21875,-0.125,-0.25],"type":"VEC3"},{"bufferView":5,"componentType":5126,"count":24,"max":[1,1,1],"min":[-1,-1,-1],"type":"VEC3"},{"bufferView":6,"componentType":5126,"count":24,"max":[0.93701171875,0.37451171875],"min":[0.00048828125,0.00048828125],"type":"VEC2"},{"bufferView":7,"componentType":5123,"count":36,"max":[23],"min":[0],"type":"SCALAR"},{"bufferView":8,"componentType":5126,"count":24,"max":[-0.1550000011920929,0.0637499988079071,0.0637499988079071],"min":[-0.2199999988079071,-0.0012499999720603228,-0.0012499999720603228],"type":"VEC3"},{"bufferView":9,"componentType":5126,"count":24,"max":[1,1,1],"min":[-1,-1,-1],"type":"VEC3"},{"bufferView":10,"componentType":5126,"count":24,"max":[0.93701171875,0.06201171875],"min":[0.81298828125,0.00048828125],"type":"VEC2"},{"bufferView":11,"componentType":5123,"count":36,"max":[23],"min":[0],"type":"SCALAR"},{"bufferView":12,"componentType":5126,"count":24,"max":[0.2199999988079071,0.0637499988079071,0.0637499988079071],"min":[0.1550000011920929,-0.0012499999720603228,-0.0012499999720603228],"type":"VEC3"},{"bufferView":13,"componentType":5126,"count":24,"max":[1,1,1],"min":[-1,-1,-1],"type":"VEC3"},{"bufferView":14,"componentType":5126,"count":24,"max":[0.93701171875,0.06201171875],"min":[0.81298828125,0.00048828125],"type":"VEC2"},{"bufferView":15,"componentType":5123,"count":36,"max":[23],"min":[0],"type":"SCALAR"},{"bufferView":16,"componentType":5126,"count":24,"max":[-0.1875,0.125,0.125062495470047],"min":[-0.3125,0,0.125],"type":"VEC3"},{"bufferView":17,"componentType":5126,"count":24,"max":[1,1,1],"min":[-1,-1,-1],"type":"VEC3"},{"bufferView":18,"componentType":5126,"count":24,"max":[0.24951171875,0.06201171875],"min":[0.12451171875,-0.00048828125],"type":"VEC2"},{"bufferView":19,"componentType":5123,"count":36,"max":[23],"min":[0],"type":"SCALAR"},{"bufferView":20,"componentType":5126,"count":24,"max":[0.3125,0.125,0.125062495470047],"min":[0.1875,0,0.125],"type":"VEC3"},{"bufferView":21,"componentType":5126,"count":24,"max":[1,1,1],"min":[-1,-1,-1],"type":"VEC3"},{"bufferView":22,"componentType":5126,"count":24,"max":[0.12451171875,0.18701171875],"min":[-0.00048828125,0.12451171875],"type":"VEC2"},{"bufferView":23,"componentType":5123,"count":36,"max":[23],"min":[0],"type":"SCALAR"},{"bufferView":24,"componentType":5126,"count":24,"max":[-0.1875,0.125,0.125062495470047],"min":[-0.3125,0,0.125],"type":"VEC3"},{"bufferView":25,"componentType":5126,"count":24,"max":[1,1,1],"min":[-1,-1,-1],"type":"VEC3"},{"bufferView":26,"componentType":5126,"count":24,"max":[0.12451171875,0.06201171875],"min":[-0.00048828125,-0.00048828125],"type":"VEC2"},{"bufferView":27,"componentType":5123,"count":36,"max":[23],"min":[0],"type":"SCALAR"},{"bufferView":28,"componentType":5126,"count":24,"max":[0.3125,0.125,0.125062495470047],"min":[0.1875,0,0.125],"type":"VEC3"},{"bufferView":29,"componentType":5126,"count":24,"max":[1,1,1],"min":[-1,-1,-1],"type":"VEC3"},{"bufferView":30,"componentType":5126,"count":24,"max":[0.12451171875,0.12451171875],"min":[-0.00048828125,0.06201171875],"type":"VEC2"},{"bufferView":31,"componentType":5123,"count":36,"max":[23],"min":[0],"type":"SCALAR"},{"bufferView":32,"componentType":5126,"count":1,"max":[0],"min":[0],"type":"SCALAR"},{"bufferView":33,"componentType":5126,"count":1,"max":[-0.017003241926431656,0.19434794783592224,0.08548106998205185,0.9770531058311462],"min":[-0.017003241926431656,0.19434794783592224,0.08548106998205185,0.9770531058311462],"type":"VEC4"},{"bufferView":34,"componentType":5126,"count":1,"max":[0],"min":[0],"type":"SCALAR"},{"bufferView":35,"componentType":5126,"count":1,"max":[-0.017003241926431656,-0.19434794783592224,-0.08548106998205185,0.9770531058311462],"min":[-0.017003241926431656,-0.19434794783592224,-0.08548106998205185,0.9770531058311462],"type":"VEC4"},{"bufferView":36,"componentType":5126,"count":1,"max":[0],"min":[0],"type":"SCALAR"},{"bufferView":37,"componentType":5126,"count":1,"max":[-0.017003241926431656,0.19434794783592224,0.08548106998205185,0.9770531058311462],"min":[-0.017003241926431656,0.19434794783592224,0.08548106998205185,0.9770531058311462],"type":"VEC4"},{"bufferView":38,"componentType":5126,"count":1,"max":[0],"min":[0],"type":"SCALAR"},{"bufferView":39,"componentType":5126,"count":1,"max":[-0.017003241926431656,-0.19434794783592224,-0.08548106998205185,0.9770531058311462],"min":[-0.017003241926431656,-0.19434794783592224,-0.08548106998205185,0.9770531058311462],"type":"VEC4"}],"materials":[{"pbrMetallicRoughness":{"metallicFactor":0,"roughnessFactor":1,"baseColorTexture":{"index":0}},"alphaMode":"MASK","alphaCutoff":0.05,"doubleSided":true}],"textures":[{"sampler":0,"source":0,"name":"kabuto.png"}],"samplers":[{"magFilter":9728,"minFilter":9728,"wrapS":33071,"wrapT":33071}],"images":[{"mimeType":"image/png","uri":"data:image/png;base64,"}],"meshes":[{"primitives":[{"mode":4,"attributes":{"POSITION":0,"NORMAL":1,"TEXCOORD_0":2},"indices":3,"material":0}]},{"primitives":[{"mode":4,"attributes":{"POSITION":4,"NORMAL":5,"TEXCOORD_0":6},"indices":7,"material":0}]},{"primitives":[{"mode":4,"attributes":{"POSITION":8,"NORMAL":9,"TEXCOORD_0":10},"indices":11,"material":0}]},{"primitives":[{"mode":4,"attributes":{"POSITION":12,"NORMAL":13,"TEXCOORD_0":14},"indices":15,"material":0}]},{"primitives":[{"mode":4,"attributes":{"POSITION":16,"NORMAL":17,"TEXCOORD_0":18},"indices":19,"material":0}]},{"primitives":[{"mode":4,"attributes":{"POSITION":20,"NORMAL":21,"TEXCOORD_0":22},"indices":23,"material":0}]},{"primitives":[{"mode":4,"attributes":{"POSITION":24,"NORMAL":25,"TEXCOORD_0":26},"indices":27,"material":0}]},{"primitives":[{"mode":4,"attributes":{"POSITION":28,"NORMAL":29,"TEXCOORD_0":30},"indices":31,"material":0}]}],"animations":[{"name":"animation.kabuto.ground_idle","samplers":[{"input":32,"output":33,"interpolation":"LINEAR"},{"input":34,"output":35,"interpolation":"LINEAR"}],"channels":[{"sampler":0,"target":{"node":11,"path":"rotation"}},{"sampler":1,"target":{"node":13,"path":"rotation"}}]},{"name":"animation.kabuto.render","samplers":[{"input":36,"output":37,"interpolation":"LINEAR"},{"input":38,"output":39,"interpolation":"LINEAR"}],"channels":[{"sampler":0,"target":{"node":11,"path":"rotation"}},{"sampler":1,"target":{"node":13,"path":"rotation"}}]}]}