{"asset":{"version":"2.0","generator":"Blockbench 4.8.3 glTF exporter"},"scenes":[{"nodes":[10],"name":"blockbench_export"}],"scene":0,"nodes":[{"translation":[0,-0.468339375,0.008030625],"name":"torso","mesh":0},{"translation":[0,0.15625,-0.015625],"name":"head","mesh":1},{"translation":[0,0.015624999999999889,0.125],"name":"eye_right","mesh":2},{"translation":[0,0.015624999999999889,0.125],"name":"eye_left","mesh":3},{"translation":[0,0.1406250000000001,-0.140625],"name":"eyes","children":[2,3]},{"rotation":[-0.08715574274765817,0,0,0.9961946980917455],"translation":[0,0.156660625,-0.007594375],"name":"head","children":[1,4]},{"translation":[0,-0.06521374999999999,0.005060624999999999],"name":"tail","mesh":4},{"rotation":[0.13052619222005157,0,0,0.9914448613738104],"translation":[0,-0.187089375,-0.007594375],"name":"tail","children":[6]},{"translation":[0,0.468339375,-0.008030625],"name":"body","children":[0,5,7]},{"name":"kakuna","children":[8]},{"children":[9]}],"bufferViews":[{"buffer":0,"byteOffset":0,"byteLength":288,"target":34962,"byteStride":12},{"buffer":0,"byteOffset":288,"byteLength":288,"target":34962,"byteStride":12},{"buffer":0,"byteOffset":576,"byteLength":192,"target":34962,"byteStride":8},{"buffer":0,"byteOffset":768,"byteLength":72,"target":34963},{"buffer":0,"byteOffset":840,"byteLength":288,"target":34962,"byteStride":12},{"buffer":0,"byteOffset":1128,"byteLength":288,"target":34962,"byteStride":12},{"buffer":0,"byteOffset":1416,"byteLength":192,"target":34962,"byteStride":8},{"buffer":0,"byteOffset":1608,"byteLength":72,"target":34963},{"buffer":0,"byteOffset":1680,"byteLength":288,"target":34962,"byteStride":12},{"buffer":0,"byteOffset":1968,"byteLength":288,"target":34962,"byteStride":12},{"buffer":0,"byteOffset":2256,"byteLength":192,"target":34962,"byteStride":8},{"buffer":0,"byteOffset":2448,"byteLength":72,"target":34963},{"buffer":0,"byteOffset":2520,"byteLength":288,"target":34962,"byteStride":12},{"buffer":0,"byteOffset":2808,"byteLength":288,"target":34962,"byteStride":12},{"buffer":0,"byteOffset":3096,"byteLength":192,"target":34962,"byteStride":8},{"buffer":0,"byteOffset":3288,"byteLength":72,"target":34963},{"buffer":0,"byteOffset":3360,"byteLength":288,"target":34962,"byteStride":12},{"buffer":0,"byteOffset":3648,"byteLength":288,"target":34962,"byteStride":12},{"buffer":0,"byteOffset":3936,"byteLength":192,"target":34962,"byteStride":8},{"buffer":0,"byteOffset":4128,"byteLength":72,"target":34963},{"buffer":0,"byteOffset":4200,"byteLength":256},{"buffer":0,"byteOffset":4456,"byteLength":1024},{"buffer":0,"byteOffset":5480,"byteLength":256},{"buffer":0,"byteOffset":5736,"byteLength":768},{"buffer":0,"byteOffset":6504,"byteLength":256},{"buffer":0,"byteOffset":6760,"byteLength":1024},{"buffer":0,"byteOffset":7784,"byteLength":256},{"buffer":0,"byteOffset":8040,"byteLength":1024},{"buffer":0,"byteOffset":9064,"byteLength":256},{"buffer":0,"byteOffset":9320,"byteLength":768},{"buffer":0,"byteOffset":10088,"byteLength":256},{"buffer":0,"byteOffset":10344,"byteLength":1024},{"buffer":0,"byteOffset":11368,"byteLength":64},{"buffer":0,"byteOffset":11432,"byteLength":256},{"buffer":0,"byteOffset":11688,"byteLength":56},{"buffer":0,"byteOffset":11744,"byteLength":168},{"buffer":0,"byteOffset":11912,"byteLength":32},{"buffer":0,"byteOffset":11944,"byteLength":96},{"buffer":0,"byteOffset":12040,"byteLength":28},{"buffer":0,"byteOffset":12068,"byteLength":112},{"buffer":0,"byteOffset":12180,"byteLength":16},{"buffer":0,"byteOffset":12196,"byteLength":48},{"buffer":0,"byteOffset":12244,"byteLength":12},{"buffer":0,"byteOffset":12256,"byteLength":48},{"buffer":0,"byteOffset":12304,"byteLength":12},{"buffer":0,"byteOffset":12316,"byteLength":48},{"buffer":0,"byteOffset":12364,"byteLength":4},{"buffer":0,"byteOffset":12368,"byteLength":16}],"buffers":[{"byteLength":12384,"uri":"data:application/octet-stream;base64,"}],"accessors":[{"bufferView":0,"componentType":5126,"count":24,"max":[0.1875,0.6875,0.140625],"min":[-0.1875,0.25,-0.171875],"type":"VEC3"},{"bufferView":1,"componentType":5126,"count":24,"max":[1,1,1],"min":[-1,-1,-1],"type":"VEC3"},{"bufferView":2,"componentType":5126,"count":24,"max":[0.68701171875,0.71826171875],"min":[0.00048828125,0.34423828125],"type":"VEC2"},{"bufferView":3,"componentType":5123,"count":36,"max":[23],"min":[0],"type":"SCALAR"},{"bufferView":4,"componentType":5126,"count":24,"max":[0.21875,0.15625,0.1875],"min":[-0.21875,-0.15625,-0.1875],"type":"VEC3"},{"bufferView":5,"componentType":5126,"count":24,"max":[1,1,1],"min":[-1,-1,-1],"type":"VEC3"},{"bufferView":6,"componentType":5126,"count":24,"max":[0.81201171875,0.34326171875],"min":[0.00048828125,0.00048828125],"type":"VEC2"},{"bufferView":7,"componentType":5123,"count":36,"max":[23],"min":[0],"type":"SCALAR"},{"bufferView":8,"componentType":5126,"count":24,"max":[0.21937499940395355,0.04749999940395355,-0.06187500059604645],"min":[0.09312500059604645,-0.07874999940395355,-0.18812499940395355],"type":"VEC3"},{"bufferView":9,"componentType":5126,"count":24,"max":[1,1,1],"min":[-1,-1,-1],"type":"VEC3"},{"bufferView":10,"componentType":5126,"count":24,"max":[0.99951171875,0.53076171875],"min":[0.75048828125,0.40673828125],"type":"VEC2"},{"bufferView":11,"componentType":5123,"count":36,"max":[23],"min":[0],"type":"SCALAR"},{"bufferView":12,"componentType":5126,"count":24,"max":[-0.09312500059604645,0.04749999940395355,-0.06187500059604645],"min":[-0.21937499940395355,-0.07874999940395355,-0.18812499940395355],"type":"VEC3"},{"bufferView":13,"componentType":5126,"count":24,"max":[1,1,1],"min":[-1,-1,-1],"type":"VEC3"},{"bufferView":14,"componentType":5126,"count":24,"max":[0.99951171875,0.40576171875],"min":[0.75048828125,0.28173828125],"type":"VEC2"},{"bufferView":15,"componentType":5123,"count":36,"max":[23],"min":[0],"type":"SCALAR"},{"bufferView":16,"componentType":5126,"count":24,"max":[0.125,0.06521374732255936,0.08868937194347382],"min":[-0.125,-0.18478624522686005,-0.16131062805652618],"type":"VEC3"},{"bufferView":17,"componentType":5126,"count":24,"max":[1,1,1],"min":[-1,-1,-1],"type":"VEC3"},{"bufferView":18,"componentType":5126,"count":24,"max":[0.49951171875,0.96826171875],"min":[0.00048828125,0.71923828125],"type":"VEC2"},{"bufferView":19,"componentType":5123,"count":36,"max":[23],"min":[0],"type":"SCALAR"},{"bufferView":20,"componentType":5126,"count":64,"max":[4],"min":[0],"type":"SCALAR"},{"bufferView":21,"componentType":5126,"count":64,"max":[0.01308959536254406,0.00005252160917734727,0.005235739517956972,1],"min":[-0.01308959536254406,-0.00005252160917734727,-0.005235739517956972,0.9999143481254578],"type":"VEC4"},{"bufferView":22,"componentType":5126,"count":64,"max":[4],"min":[0],"type":"SCALAR"},{"bufferView":23,"componentType":5126,"count":64,"max":[0,0.4702143669128418,-0.008030625060200691],"min":[0,0.4664643704891205,-0.008030625060200691],"type":"VEC3"},{"bufferView":24,"componentType":5126,"count":64,"max":[4],"min":[0],"type":"SCALAR"},{"bufferView":25,"componentType":5126,"count":64,"max":[0.13917310535907745,0,0,0.9925461411476135],"min":[0.12186934053897858,0,0,0.9902680516242981],"type":"VEC4"},{"bufferView":26,"componentType":5126,"count":64,"max":[4],"min":[0],"type":"SCALAR"},{"bufferView":27,"componentType":5126,"count":64,"max":[0.01308959536254406,0.00005264882929623127,0.005235739517956972,1],"min":[-0.013061568140983582,-0.00005264882929623127,-0.005235739517956972,0.9999143481254578],"type":"VEC4"},{"bufferView":28,"componentType":5126,"count":64,"max":[4],"min":[0],"type":"SCALAR"},{"bufferView":29,"componentType":5126,"count":64,"max":[0,0.4702143669128418,-0.008030625060200691],"min":[0,0.46647506952285767,-0.008030625060200691],"type":"VEC3"},{"bufferView":30,"componentType":5126,"count":64,"max":[4],"min":[0],"type":"SCALAR"},{"bufferView":31,"componentType":5126,"count":64,"max":[0.13917310535907745,0,0,0.9925461411476135],"min":[0.12186934053897858,0,0,0.9902680516242981],"type":"VEC4"},{"bufferView":32,"componentType":5126,"count":16,"max":[2.375],"min":[0],"type":"SCALAR"},{"bufferView":33,"componentType":5126,"count":16,"max":[0.7660444378852844,0,0,1],"min":[-0.06540312618017197,0,0,0.6427876353263855],"type":"VEC4"},{"bufferView":34,"componentType":5126,"count":14,"max":[2.375],"min":[0],"type":"SCALAR"},{"bufferView":35,"componentType":5126,"count":14,"max":[0,0.23125000298023224,0.03750000149011612],"min":[0,-0.01875000074505806,0],"type":"VEC3"},{"bufferView":36,"componentType":5126,"count":8,"max":[1.75],"min":[0],"type":"SCALAR"},{"bufferView":37,"componentType":5126,"count":8,"max":[0,0.5298900008201599,0.0039025000296533108],"min":[0,0.46461811661720276,-0.018883749842643738],"type":"VEC3"},{"bufferView":38,"componentType":5126,"count":7,"max":[0.625],"min":[0],"type":"SCALAR"},{"bufferView":39,"componentType":5126,"count":7,"max":[0,0.06540312618017197,0,1],"min":[-0.06538756191730499,-0.06540312618017197,-0.0014267617370933294,0.997621476650238],"type":"VEC4"},{"bufferView":40,"componentType":5126,"count":4,"max":[0.625],"min":[0],"type":"SCALAR"},{"bufferView":41,"componentType":5126,"count":4,"max":[0,0.46833938360214233,0.02634437568485737],"min":[0,0.4558393657207489,-0.008030625060200691],"type":"VEC3"},{"bufferView":42,"componentType":5126,"count":3,"max":[0.25],"min":[0],"type":"SCALAR"},{"bufferView":43,"componentType":5126,"count":3,"max":[-0.08715574443340302,0,0,0.9961947202682495],"min":[-0.1736481785774231,0,0,0.9848077297210693],"type":"VEC4"},{"bufferView":44,"componentType":5126,"count":3,"max":[0.45829999446868896],"min":[0],"type":"SCALAR"},{"bufferView":45,"componentType":5126,"count":3,"max":[0.30070579051971436,0,0,0.9914448857307434],"min":[0.13052618503570557,0,0,0.9537169337272644],"type":"VEC4"},{"bufferView":46,"componentType":5126,"count":1,"max":[0],"min":[0],"type":"SCALAR"},{"bufferView":47,"componentType":5126,"count":1,"max":[0,0.13052618503570557,0,0.9914448857307434],"min":[0,0.13052618503570557,0,0.9914448857307434],"type":"VEC4"}],"materials":[{"pbrMetallicRoughness":{"metallicFactor":0,"roughnessFactor":1,"baseColorTexture":{"index":0}},"alphaMode":"MASK","alphaCutoff":0.05,"doubleSided":true}],"textures":[{"sampler":0,"source":0,"name":"kakuna.png"}],"samplers":[{"magFilter":9728,"minFilter":9728,"wrapS":33071,"wrapT":33071}],"images":[{"mimeType":"image/png","uri":"data:image/png;base64,"}],"meshes":[{"primitives":[{"mode":4,"attributes":{"POSITION":0,"NORMAL":1,"TEXCOORD_0":2},"indices":3,"material":0}]},{"primitives":[{"mode":4,"attributes":{"POSITION":4,"NORMAL":5,"TEXCOORD_0":6},"indices":7,"material":0}]},{"primitives":[{"mode":4,"attributes":{"POSITION":8,"NORMAL":9,"TEXCOORD_0":10},"indices":11,"material":0}]},{"primitives":[{"mode":4,"attributes":{"POSITION":12,"NORMAL":13,"TEXCOORD_0":14},"indices":15,"material":0}]},{"primitives":[{"mode":4,"attributes":{"POSITION":16,"NORMAL":17,"TEXCOORD_0":18},"indices":19,"material":0}]}],"animations":[{"name":"animation.kakuna.ground_idle","samplers":[{"input":20,"output":21,"interpolation":"LINEAR"},{"input":22,"output":23,"interpolation":"LINEAR"},{"input":24,"output":25,"interpolation":"LINEAR"}],"channels":[{"sampler":0,"target":{"node":8,"path":"rotation"}},{"sampler":1,"target":{"node":8,"path":"translation"}},{"sampler":2,"target":{"node":7,"path":"rotation"}}]},{"name":"animation.kakuna.sleep","samplers":[{"input":26,"output":27,"interpolation":"LINEAR"},{"input":28,"output":29,"interpolation":"LINEAR"},{"input":30,"output":31,"interpolation":"LINEAR"}],"channels":[{"sampler":0,"target":{"node":8,"path":"rotation"}},{"sampler":1,"target":{"node":8,"path":"translation"}},{"sampler":2,"target":{"node":7,"path":"rotation"}}]},{"name":"animation.kakuna.faint","samplers":[{"input":32,"output":33,"interpolation":"LINEAR"},{"input":34,"output":35,"interpolation":"LINEAR"},{"input":36,"output":37,"interpolation":"LINEAR"}],"channels":[{"sampler":0,"target":{"node":9,"path":"rotation"}},{"sampler":1,"target":{"node":9,"path":"translation"}},{"sampler":2,"target":{"node":8,"path":"translation"}}]},{"name":"animation.kakuna.cry","samplers":[{"input":38,"output":39,"interpolation":"LINEAR"},{"input":40,"output":41,"interpolation":"LINEAR"},{"input":42,"output":43,"interpolation":"LINEAR"},{"input":44,"output":45,"interpolation":"LINEAR"}],"channels":[{"sampler":0,"target":{"node":8,"path":"rotation"}},{"sampler":1,"target":{"node":8,"path":"translation"}},{"sampler":2,"target":{"node":5,"path":"rotation"}},{"sampler":3,"target":{"node":7,"path":"rotation"}}]},{"name":"animation.kakuna.render","samplers":[{"input":46,"output":47,"interpolation":"LINEAR"}],"channels":[{"sampler":0,"target":{"node":9,"path":"rotation"}}]}]}