{"asset":{"version":"2.0","generator":"Blockbench 4.8.3 glTF exporter"},"scenes":[{"nodes":[21],"name":"blockbench_export"}],"scene":0,"nodes":[{"translation":[0,-0.125,0],"name":"body","mesh":0},{"rotation":[0.043619387365336,0,0,0.9990482215818578],"translation":[0,0.1875,0.140625],"name":"shell","mesh":1},{"translation":[0,-0.015625,0.015625],"name":"shell","children":[1]},{"rotation":[0.02181488503456112,0,0,0.9997620270799091],"translation":[0.078125,0,0],"name":"eyes","mesh":2},{"rotation":[0.02181488503456112,0,0,0.9997620270799091],"translation":[-0.078125,0,0],"name":"eyes","mesh":3},{"rotation":[0.02181488503456112,0,0,0.9997620270799091],"translation":[0.078125,-0.00013625000000000442,0.003121874999999996],"name":"pupils","mesh":4},{"rotation":[0.02181488503456112,0,0,0.9997620270799091],"translation":[-0.078125,-0.00013625000000000442,0.003121874999999996],"name":"pupils","mesh":5},{"translation":[0,0.00013625000000000442,-0.003121874999999996],"name":"pupils","children":[5,6]},{"translation":[0,0.09375,-0.125],"name":"eyes","children":[3,4,7]},{"translation":[0,-0.0625,0.125],"name":"frontfeet","mesh":6},{"rotation":[0.49999999999999994,0,0,0.8660254037844387],"translation":[0,-0.0625,-0.125],"name":"frontfeet","children":[9]},{"translation":[0.15625,-0.0625,0],"name":"leftfeet","mesh":7},{"rotation":[0,0,0.25881904510252074,0.9659258262890683],"translation":[-0.15625,-0.0625,0],"name":"leftfeet","children":[11]},{"translation":[-0.15625,-0.0625,0],"name":"rightfeet","mesh":8},{"rotation":[0,0,-0.25881904510252074,0.9659258262890683],"translation":[0.15625,-0.0625,0],"name":"rightfeet","children":[13]},{"translation":[0.15625,-0.125,0],"name":"lefthand","mesh":9},{"translation":[-0.15625,0,0],"name":"lefthand","children":[15]},{"translation":[-0.15625,-0.125,0],"name":"righthand","mesh":10},{"translation":[0.15625,0,0],"name":"righthand","children":[17]},{"translation":[0,0.125,-0.125],"name":"body","children":[0,2,8,10,12,14,16,18]},{"name":"omanyte","children":[19]},{"children":[20]}],"bufferViews":[{"buffer":0,"byteOffset":0,"byteLength":288,"target":34962,"byteStride":12},{"buffer":0,"byteOffset":288,"byteLength":288,"target":34962,"byteStride":12},{"buffer":0,"byteOffset":576,"byteLength":192,"target":34962,"byteStride":8},{"buffer":0,"byteOffset":768,"byteLength":72,"target":34963},{"buffer":0,"byteOffset":840,"byteLength":288,"target":34962,"byteStride":12},{"buffer":0,"byteOffset":1128,"byteLength":288,"target":34962,"byteStride":12},{"buffer":0,"byteOffset":1416,"byteLength":192,"target":34962,"byteStride":8},{"buffer":0,"byteOffset":1608,"byteLength":72,"target":34963},{"buffer":0,"byteOffset":1680,"byteLength":288,"target":34962,"byteStride":12},{"buffer":0,"byteOffset":1968,"byteLength":288,"target":34962,"byteStride":12},{"buffer":0,"byteOffset":2256,"byteLength":192,"target":34962,"byteStride":8},{"buffer":0,"byteOffset":2448,"byteLength":72,"target":34963},{"buffer":0,"byteOffset":2520,"byteLength":288,"target":34962,"byteStride":12},{"buffer":0,"byteOffset":2808,"byteLength":288,"target":34962,"byteStride":12},{"buffer":0,"byteOffset":3096,"byteLength":192,"target":34962,"byteStride":8},{"buffer":0,"byteOffset":3288,"byteLength":72,"target":34963},{"buffer":0,"byteOffset":3360,"byteLength":288,"target":34962,"byteStride":12},{"buffer":0,"byteOffset":3648,"byteLength":288,"target":34962,"byteStride":12},{"buffer":0,"byteOffset":3936,"byteLength":192,"target":34962,"byteStride":8},{"buffer":0,"byteOffset":4128,"byteLength":72,"target":34963},{"buffer":0,"byteOffset":4200,"byteLength":288,"target":34962,"byteStride":12},{"buffer":0,"byteOffset":4488,"byteLength":288,"target":34962,"byteStride":12},{"buffer":0,"byteOffset":4776,"byteLength":192,"target":34962,"byteStride":8},{"buffer":0,"byteOffset":4968,"byteLength":72,"target":34963},{"buffer":0,"byteOffset":5040,"byteLength":288,"target":34962,"byteStride":12},{"buffer":0,"byteOffset":5328,"byteLength":288,"target":34962,"byteStride":12},{"buffer":0,"byteOffset":5616,"byteLength":192,"target":34962,"byteStride":8},{"buffer":0,"byteOffset":5808,"byteLength":72,"target":34963},{"buffer":0,"byteOffset":5880,"byteLength":288,"target":34962,"byteStride":12},{"buffer":0,"byteOffset":6168,"byteLength":288,"target":34962,"byteStride":12},{"buffer":0,"byteOffset":6456,"byteLength":192,"target":34962,"byteStride":8},{"buffer":0,"byteOffset":6648,"byteLength":72,"target":34963},{"buffer":0,"byteOffset":6720,"byteLength":288,"target":34962,"byteStride":12},{"buffer":0,"byteOffset":7008,"byteLength":288,"target":34962,"byteStride":12},{"buffer":0,"byteOffset":7296,"byteLength":192,"target":34962,"byteStride":8},{"buffer":0,"byteOffset":7488,"byteLength":72,"target":34963},{"buffer":0,"byteOffset":7560,"byteLength":288,"target":34962,"byteStride":12},{"buffer":0,"byteOffset":7848,"byteLength":288,"target":34962,"byteStride":12},{"buffer":0,"byteOffset":8136,"byteLength":192,"target":34962,"byteStride":8},{"buffer":0,"byteOffset":8328,"byteLength":72,"target":34963},{"buffer":0,"byteOffset":8400,"byteLength":288,"target":34962,"byteStride":12},{"buffer":0,"byteOffset":8688,"byteLength":288,"target":34962,"byteStride":12},{"buffer":0,"byteOffset":8976,"byteLength":192,"target":34962,"byteStride":8},{"buffer":0,"byteOffset":9168,"byteLength":72,"target":34963},{"buffer":0,"byteOffset":9240,"byteLength":4},{"buffer":0,"byteOffset":9244,"byteLength":16},{"buffer":0,"byteOffset":9260,"byteLength":4},{"buffer":0,"byteOffset":9264,"byteLength":16},{"buffer":0,"byteOffset":9280,"byteLength":4},{"buffer":0,"byteOffset":9284,"byteLength":16},{"buffer":0,"byteOffset":9300,"byteLength":4},{"buffer":0,"byteOffset":9304,"byteLength":16},{"buffer":0,"byteOffset":9320,"byteLength":4},{"buffer":0,"byteOffset":9324,"byteLength":16},{"buffer":0,"byteOffset":9340,"byteLength":4},{"buffer":0,"byteOffset":9344,"byteLength":16},{"buffer":0,"byteOffset":9360,"byteLength":4},{"buffer":0,"byteOffset":9364,"byteLength":16},{"buffer":0,"byteOffset":9380,"byteLength":4},{"buffer":0,"byteOffset":9384,"byteLength":16},{"buffer":0,"byteOffset":9400,"byteLength":4},{"buffer":0,"byteOffset":9404,"byteLength":16},{"buffer":0,"byteOffset":9420,"byteLength":4},{"buffer":0,"byteOffset":9424,"byteLength":16},{"buffer":0,"byteOffset":9440,"byteLength":4},{"buffer":0,"byteOffset":9444,"byteLength":16},{"buffer":0,"byteOffset":9460,"byteLength":4},{"buffer":0,"byteOffset":9464,"byteLength":16},{"buffer":0,"byteOffset":9480,"byteLength":4},{"buffer":0,"byteOffset":9484,"byteLength":16},{"buffer":0,"byteOffset":9500,"byteLength":4},{"buffer":0,"byteOffset":9504,"byteLength":16},{"buffer":0,"byteOffset":9520,"byteLength":4},{"buffer":0,"byteOffset":9524,"byteLength":16},{"buffer":0,"byteOffset":9540,"byteLength":4},{"buffer":0,"byteOffset":9544,"byteLength":16}],"buffers":[{"byteLength":9560,"uri":"data:application/octet-stream;base64,"}],"accessors":[{"bufferView":0,"componentType":5126,"count":24,"max":[0.15625,0.1875,0.125],"min":[-0.15625,0.0625,-0.125],"type":"VEC3"},{"bufferView":1,"componentType":5126,"count":24,"max":[1,1,1],"min":[-1,-1,-1],"type":"VEC3"},{"bufferView":2,"componentType":5126,"count":24,"max":[0.56201171875,0.65576171875],"min":[0.00048828125,0.46923828125],"type":"VEC2"},{"bufferView":3,"componentType":5123,"count":36,"max":[23],"min":[0],"type":"SCALAR"},{"bufferView":4,"componentType":5126,"count":24,"max":[0.1574999988079071,0.2199999988079071,0.2512499988079071],"min":[-0.1574999988079071,-0.2199999988079071,-0.2512499988079071],"type":"VEC3"},{"bufferView":5,"componentType":5126,"count":24,"max":[1,1,1],"min":[-1,-1,-1],"type":"VEC3"},{"bufferView":6,"componentType":5126,"count":24,"max":[0.81201171875,0.46826171875],"min":[0.00048828125,0.00048828125],"type":"VEC2"},{"bufferView":7,"componentType":5123,"count":36,"max":[23],"min":[0],"type":"SCALAR"},{"bufferView":8,"componentType":5126,"count":24,"max":[0.0625,0.0625,0.0000625000029685907],"min":[-0.0625,-0.0625,0],"type":"VEC3"},{"bufferView":9,"componentType":5126,"count":24,"max":[1,1,1],"min":[-1,-1,-1],"type":"VEC3"},{"bufferView":10,"componentType":5126,"count":24,"max":[0.12451171875,0.12451171875],"min":[-0.00048828125,0.06201171875],"type":"VEC2"},{"bufferView":11,"componentType":5123,"count":36,"max":[23],"min":[0],"type":"SCALAR"},{"bufferView":12,"componentType":5126,"count":24,"max":[0.0625,0.0625,0.0000625000029685907],"min":[-0.0625,-0.0625,0],"type":"VEC3"},{"bufferView":13,"componentType":5126,"count":24,"max":[1,1,1],"min":[-1,-1,-1],"type":"VEC3"},{"bufferView":14,"componentType":5126,"count":24,"max":[0.12451171875,0.06201171875],"min":[-0.00048828125,-0.00048828125],"type":"VEC2"},{"bufferView":15,"componentType":5123,"count":36,"max":[23],"min":[0],"type":"SCALAR"},{"bufferView":16,"componentType":5126,"count":24,"max":[0.03125,0.03125,-0.0030624999199062586],"min":[-0.03125,-0.03125,-0.0031250000465661287],"type":"VEC3"},{"bufferView":17,"componentType":5126,"count":24,"max":[1,1,1],"min":[-1,-1,-1],"type":"VEC3"},{"bufferView":18,"componentType":5126,"count":24,"max":[0.99951171875,0.99951171875],"min":[0.93701171875,0.96826171875],"type":"VEC2"},{"bufferView":19,"componentType":5123,"count":36,"max":[23],"min":[0],"type":"SCALAR"},{"bufferView":20,"componentType":5126,"count":24,"max":[0.03125,0.03125,-0.0030624999199062586],"min":[-0.03125,-0.03125,-0.0031250000465661287],"type":"VEC3"},{"bufferView":21,"componentType":5126,"count":24,"max":[1,1,1],"min":[-1,-1,-1],"type":"VEC3"},{"bufferView":22,"componentType":5126,"count":24,"max":[0.99951171875,0.99951171875],"min":[0.93701171875,0.96826171875],"type":"VEC2"},{"bufferView":23,"componentType":5123,"count":36,"max":[23],"min":[0],"type":"SCALAR"},{"bufferView":24,"componentType":5126,"count":24,"max":[0.15625,0.0625,-0.1249374970793724],"min":[-0.15625,-0.0625,-0.125],"type":"VEC3"},{"bufferView":25,"componentType":5126,"count":24,"max":[1,1,1],"min":[-1,-1,-1],"type":"VEC3"},{"bufferView":26,"componentType":5126,"count":24,"max":[0.74951171875,0.53076171875],"min":[0.43701171875,0.46826171875],"type":"VEC2"},{"bufferView":27,"componentType":5123,"count":36,"max":[23],"min":[0],"type":"SCALAR"},{"bufferView":28,"componentType":5126,"count":24,"max":[-0.15625,0.0625625029206276,0.125],"min":[-0.28125,0.0625,-0.125],"type":"VEC3"},{"bufferView":29,"componentType":5126,"count":24,"max":[1,1,1],"min":[-1,-1,-1],"type":"VEC3"},{"bufferView":30,"componentType":5126,"count":24,"max":[0.37451171875,0.12548828125],"min":[0.00048828125,0.00048828125],"type":"VEC2"},{"bufferView":31,"componentType":5123,"count":36,"max":[23],"min":[0],"type":"SCALAR"},{"bufferView":32,"componentType":5126,"count":24,"max":[0.28125,0.0625625029206276,0.125],"min":[0.15625,0.0625,-0.125],"type":"VEC3"},{"bufferView":33,"componentType":5126,"count":24,"max":[1,1,1],"min":[-1,-1,-1],"type":"VEC3"},{"bufferView":34,"componentType":5126,"count":24,"max":[0.37451171875,0.25048828125],"min":[0.00048828125,0.12548828125],"type":"VEC2"},{"bufferView":35,"componentType":5123,"count":36,"max":[23],"min":[0],"type":"SCALAR"},{"bufferView":36,"componentType":5126,"count":24,"max":[-0.15625,0.25,0.0000625000029685907],"min":[-0.34375,0.0625,0],"type":"VEC3"},{"bufferView":37,"componentType":5126,"count":24,"max":[1,1,1],"min":[-1,-1,-1],"type":"VEC3"},{"bufferView":38,"componentType":5126,"count":24,"max":[0.74951171875,0.09326171875],"min":[0.56201171875,-0.00048828125],"type":"VEC2"},{"bufferView":39,"componentType":5123,"count":36,"max":[23],"min":[0],"type":"SCALAR"},{"bufferView":40,"componentType":5126,"count":24,"max":[0.34375,0.25,0.0000625000029685907],"min":[0.15625,0.0625,0],"type":"VEC3"},{"bufferView":41,"componentType":5126,"count":24,"max":[1,1,1],"min":[-1,-1,-1],"type":"VEC3"},{"bufferView":42,"componentType":5126,"count":24,"max":[0.74951171875,0.18701171875],"min":[0.56201171875,0.09326171875],"type":"VEC2"},{"bufferView":43,"componentType":5123,"count":36,"max":[23],"min":[0],"type":"SCALAR"},{"bufferView":44,"componentType":5126,"count":1,"max":[0],"min":[0],"type":"SCALAR"},{"bufferView":45,"componentType":5126,"count":1,"max":[0,-0.13052618503570557,0,0.9914448857307434],"min":[0,-0.13052618503570557,0,0.9914448857307434],"type":"VEC4"},{"bufferView":46,"componentType":5126,"count":1,"max":[0],"min":[0],"type":"SCALAR"},{"bufferView":47,"componentType":5126,"count":1,"max":[0,0.13052618503570557,0,0.9914448857307434],"min":[0,0.13052618503570557,0,0.9914448857307434],"type":"VEC4"},{"bufferView":48,"componentType":5126,"count":1,"max":[0],"min":[0],"type":"SCALAR"},{"bufferView":49,"componentType":5126,"count":1,"max":[-0.04361938685178757,0,0,0.9990482330322266],"min":[-0.04361938685178757,0,0,0.9990482330322266],"type":"VEC4"},{"bufferView":50,"componentType":5126,"count":1,"max":[0],"min":[0],"type":"SCALAR"},{"bufferView":51,"componentType":5126,"count":1,"max":[0.3826834261417389,0,0,0.9238795042037964],"min":[0.3826834261417389,0,0,0.9238795042037964],"type":"VEC4"},{"bufferView":52,"componentType":5126,"count":1,"max":[0],"min":[0],"type":"SCALAR"},{"bufferView":53,"componentType":5126,"count":1,"max":[0,0,0.3826834261417389,0.9238795042037964],"min":[0,0,0.3826834261417389,0.9238795042037964],"type":"VEC4"},{"bufferView":54,"componentType":5126,"count":1,"max":[0],"min":[0],"type":"SCALAR"},{"bufferView":55,"componentType":5126,"count":1,"max":[0,0,-0.3826834261417389,0.9238795042037964],"min":[0,0,-0.3826834261417389,0.9238795042037964],"type":"VEC4"},{"bufferView":56,"componentType":5126,"count":1,"max":[0],"min":[0],"type":"SCALAR"},{"bufferView":57,"componentType":5126,"count":1,"max":[-0.03378266468644142,0.12607862055301666,0.2566048204898834,0.9576622247695923],"min":[-0.03378266468644142,0.12607862055301666,0.2566048204898834,0.9576622247695923],"type":"VEC4"},{"bufferView":58,"componentType":5126,"count":1,"max":[0],"min":[0],"type":"SCALAR"},{"bufferView":59,"componentType":5126,"count":1,"max":[-0.03378266468644142,-0.12607862055301666,-0.2566048204898834,0.9576622247695923],"min":[-0.03378266468644142,-0.12607862055301666,-0.2566048204898834,0.9576622247695923],"type":"VEC4"},{"bufferView":60,"componentType":5126,"count":1,"max":[0],"min":[0],"type":"SCALAR"},{"bufferView":61,"componentType":5126,"count":1,"max":[-0.13052618503570557,0,0,0.9914448857307434],"min":[-0.13052618503570557,0,0,0.9914448857307434],"type":"VEC4"},{"bufferView":62,"componentType":5126,"count":1,"max":[0],"min":[0],"type":"SCALAR"},{"bufferView":63,"componentType":5126,"count":1,"max":[-0.0669872984290123,0.25,0.25,0.9330127239227295],"min":[-0.0669872984290123,0.25,0.25,0.9330127239227295],"type":"VEC4"},{"bufferView":64,"componentType":5126,"count":1,"max":[0],"min":[0],"type":"SCALAR"},{"bufferView":65,"componentType":5126,"count":1,"max":[-0.0669872984290123,-0.25,-0.25,0.9330127239227295],"min":[-0.0669872984290123,-0.25,-0.25,0.9330127239227295],"type":"VEC4"},{"bufferView":66,"componentType":5126,"count":1,"max":[0],"min":[0],"type":"SCALAR"},{"bufferView":67,"componentType":5126,"count":1,"max":[0.13052618503570557,0,0,0.9914448857307434],"min":[0.13052618503570557,0,0,0.9914448857307434],"type":"VEC4"},{"bufferView":68,"componentType":5126,"count":1,"max":[0],"min":[0],"type":"SCALAR"},{"bufferView":69,"componentType":5126,"count":1,"max":[0,0,0.591309666633606,0.8064445853233337],"min":[0,0,0.591309666633606,0.8064445853233337],"type":"VEC4"},{"bufferView":70,"componentType":5126,"count":1,"max":[0],"min":[0],"type":"SCALAR"},{"bufferView":71,"componentType":5126,"count":1,"max":[0,0,-0.6087614297866821,0.7933533191680908],"min":[0,0,-0.6087614297866821,0.7933533191680908],"type":"VEC4"},{"bufferView":72,"componentType":5126,"count":1,"max":[0],"min":[0],"type":"SCALAR"},{"bufferView":73,"componentType":5126,"count":1,"max":[0.02546439692378044,-0.12801817059516907,-0.19342130422592163,0.9723945260047913],"min":[0.02546439692378044,-0.12801817059516907,-0.19342130422592163,0.9723945260047913],"type":"VEC4"},{"bufferView":74,"componentType":5126,"count":1,"max":[0],"min":[0],"type":"SCALAR"},{"bufferView":75,"componentType":5126,"count":1,"max":[0.031024234369397163,0.12678557634353638,0.23565246164798737,0.9630321264266968],"min":[0.031024234369397163,0.12678557634353638,0.23565246164798737,0.9630321264266968],"type":"VEC4"}],"materials":[{"pbrMetallicRoughness":{"metallicFactor":0,"roughnessFactor":1,"baseColorTexture":{"index":0}},"alphaMode":"MASK","alphaCutoff":0.05,"doubleSided":true}],"textures":[{"sampler":0,"source":0,"name":"omanyte.png"}],"samplers":[{"magFilter":9728,"minFilter":9728,"wrapS":33071,"wrapT":33071}],"images":[{"mimeType":"image/png","uri":"data:image/png;base64,"}],"meshes":[{"primitives":[{"mode":4,"attributes":{"POSITION":0,"NORMAL":1,"TEXCOORD_0":2},"indices":3,"material":0}]},{"primitives":[{"mode":4,"attributes":{"POSITION":4,"NORMAL":5,"TEXCOORD_0":6},"indices":7,"material":0}]},{"primitives":[{"mode":4,"attributes":{"POSITION":8,"NORMAL":9,"TEXCOORD_0":10},"indices":11,"material":0}]},{"primitives":[{"mode":4,"attributes":{"POSITION":12,"NORMAL":13,"TEXCOORD_0":14},"indices":15,"material":0}]},{"primitives":[{"mode":4,"attributes":{"POSITION":16,"NORMAL":17,"TEXCOORD_0":18},"indices":19,"material":0}]},{"primitives":[{"mode":4,"attributes":{"POSITION":20,"NORMAL":21,"TEXCOORD_0":22},"indices":23,"material":0}]},{"primitives":[{"mode":4,"attributes":{"POSITION":24,"NORMAL":25,"TEXCOORD_0":26},"indices":27,"material":0}]},{"primitives":[{"mode":4,"attributes":{"POSITION":28,"NORMAL":29,"TEXCOORD_0":30},"indices":31,"material":0}]},{"primitives":[{"mode":4,"attributes":{"POSITION":32,"NORMAL":33,"TEXCOORD_0":34},"indices":35,"material":0}]},{"primitives":[{"mode":4,"attributes":{"POSITION":36,"NORMAL":37,"TEXCOORD_0":38},"indices":39,"material":0}]},{"primitives":[{"mode":4,"attributes":{"POSITION":40,"NORMAL":41,"TEXCOORD_0":42},"indices":43,"material":0}]}],"animations":[{"name":"animation.omanyte.ground_idle","samplers":[{"input":44,"output":45,"interpolation":"LINEAR"},{"input":46,"output":47,"interpolation":"LINEAR"}],"channels":[{"sampler":0,"target":{"node":16,"path":"rotation"}},{"sampler":1,"target":{"node":18,"path":"rotation"}}]},{"name":"animation.omanyte.water_idle","samplers":[{"input":48,"output":49,"interpolation":"LINEAR"},{"input":50,"output":51,"interpolation":"LINEAR"},{"input":52,"output":53,"interpolation":"LINEAR"},{"input":54,"output":55,"interpolation":"LINEAR"},{"input":56,"output":57,"interpolation":"LINEAR"},{"input":58,"output":59,"interpolation":"LINEAR"}],"channels":[{"sampler":0,"target":{"node":19,"path":"rotation"}},{"sampler":1,"target":{"node":10,"path":"rotation"}},{"sampler":2,"target":{"node":12,"path":"rotation"}},{"sampler":3,"target":{"node":14,"path":"rotation"}},{"sampler":4,"target":{"node":16,"path":"rotation"}},{"sampler":5,"target":{"node":18,"path":"rotation"}}]},{"name":"animation.omanyte.water_swim","samplers":[{"input":60,"output":61,"interpolation":"LINEAR"},{"input":62,"output":63,"interpolation":"LINEAR"},{"input":64,"output":65,"interpolation":"LINEAR"},{"input":66,"output":67,"interpolation":"LINEAR"},{"input":68,"output":69,"interpolation":"LINEAR"},{"input":70,"output":71,"interpolation":"LINEAR"}],"channels":[{"sampler":0,"target":{"node":19,"path":"rotation"}},{"sampler":1,"target":{"node":16,"path":"rotation"}},{"sampler":2,"target":{"node":18,"path":"rotation"}},{"sampler":3,"target":{"node":10,"path":"rotation"}},{"sampler":4,"target":{"node":12,"path":"rotation"}},{"sampler":5,"target":{"node":14,"path":"rotation"}}]},{"name":"animation.omanyte.render","samplers":[{"input":72,"output":73,"interpolation":"LINEAR"},{"input":74,"output":75,"interpolation":"LINEAR"}],"channels":[{"sampler":0,"target":{"node":16,"path":"rotation"}},{"sampler":1,"target":{"node":18,"path":"rotation"}}]}]}