{"asset":{"version":"2.0","generator":"Blockbench 4.8.3 glTF exporter"},"scenes":[{"nodes":[16],"name":"blockbench_export"}],"scene":0,"nodes":[{"name":"cube","mesh":0},{"translation":[0.03125,0.1875,0],"name":"cube","mesh":1},{"rotation":[-0.3007057995042731,0,0,0.9537169507482269],"translation":[0,0.28125,-0.328125],"name":"cube","mesh":2},{"translation":[0.1578125,0.09375,-0.21875],"name":"cube","mesh":3},{"translation":[-0.1578125,0.09375,-0.21875],"name":"cube","mesh":4},{"translation":[0.03125,-0.015625,-0.004687499999999997],"name":"cube","mesh":5},{"translation":[0.15625,-0.03125,0.3125],"name":"cube","mesh":6},{"translation":[-0.078125,0.03125,0.3125],"name":"lefttail","children":[6]},{"translation":[-0.15625,-0.03125,0.3125],"name":"cube","mesh":7},{"translation":[0.078125,0.03125,0.3125],"name":"righttail","children":[8]},{"translation":[0.15625,0.0625,0.125],"name":"cube","mesh":8},{"translation":[0.15625,-0.078125,-0.046875],"name":"rightwing","children":[10]},{"translation":[-0.15625,0.0625,0.125],"name":"cube","mesh":9},{"translation":[-0.15625,-0.078125,-0.046875],"name":"leftwing","children":[12]},{"translation":[0,0.25,-0.0625],"name":"body","children":[0,1,2,3,4,5,7,9,11,13]},{"name":"seaking","children":[14]},{"children":[15]}],"bufferViews":[{"buffer":0,"byteOffset":0,"byteLength":288,"target":34962,"byteStride":12},{"buffer":0,"byteOffset":288,"byteLength":288,"target":34962,"byteStride":12},{"buffer":0,"byteOffset":576,"byteLength":192,"target":34962,"byteStride":8},{"buffer":0,"byteOffset":768,"byteLength":72,"target":34963},{"buffer":0,"byteOffset":840,"byteLength":288,"target":34962,"byteStride":12},{"buffer":0,"byteOffset":1128,"byteLength":288,"target":34962,"byteStride":12},{"buffer":0,"byteOffset":1416,"byteLength":192,"target":34962,"byteStride":8},{"buffer":0,"byteOffset":1608,"byteLength":72,"target":34963},{"buffer":0,"byteOffset":1680,"byteLength":288,"target":34962,"byteStride":12},{"buffer":0,"byteOffset":1968,"byteLength":288,"target":34962,"byteStride":12},{"buffer":0,"byteOffset":2256,"byteLength":192,"target":34962,"byteStride":8},{"buffer":0,"byteOffset":2448,"byteLength":72,"target":34963},{"buffer":0,"byteOffset":2520,"byteLength":288,"target":34962,"byteStride":12},{"buffer":0,"byteOffset":2808,"byteLength":288,"target":34962,"byteStride":12},{"buffer":0,"byteOffset":3096,"byteLength":192,"target":34962,"byteStride":8},{"buffer":0,"byteOffset":3288,"byteLength":72,"target":34963},{"buffer":0,"byteOffset":3360,"byteLength":288,"target":34962,"byteStride":12},{"buffer":0,"byteOffset":3648,"byteLength":288,"target":34962,"byteStride":12},{"buffer":0,"byteOffset":3936,"byteLength":192,"target":34962,"byteStride":8},{"buffer":0,"byteOffset":4128,"byteLength":72,"target":34963},{"buffer":0,"byteOffset":4200,"byteLength":288,"target":34962,"byteStride":12},{"buffer":0,"byteOffset":4488,"byteLength":288,"target":34962,"byteStride":12},{"buffer":0,"byteOffset":4776,"byteLength":192,"target":34962,"byteStride":8},{"buffer":0,"byteOffset":4968,"byteLength":72,"target":34963},{"buffer":0,"byteOffset":5040,"byteLength":288,"target":34962,"byteStride":12},{"buffer":0,"byteOffset":5328,"byteLength":288,"target":34962,"byteStride":12},{"buffer":0,"byteOffset":5616,"byteLength":192,"target":34962,"byteStride":8},{"buffer":0,"byteOffset":5808,"byteLength":72,"target":34963},{"buffer":0,"byteOffset":5880,"byteLength":288,"target":34962,"byteStride":12},{"buffer":0,"byteOffset":6168,"byteLength":288,"target":34962,"byteStride":12},{"buffer":0,"byteOffset":6456,"byteLength":192,"target":34962,"byteStride":8},{"buffer":0,"byteOffset":6648,"byteLength":72,"target":34963},{"buffer":0,"byteOffset":6720,"byteLength":288,"target":34962,"byteStride":12},{"buffer":0,"byteOffset":7008,"byteLength":288,"target":34962,"byteStride":12},{"buffer":0,"byteOffset":7296,"byteLength":192,"target":34962,"byteStride":8},{"buffer":0,"byteOffset":7488,"byteLength":72,"target":34963},{"buffer":0,"byteOffset":7560,"byteLength":288,"target":34962,"byteStride":12},{"buffer":0,"byteOffset":7848,"byteLength":288,"target":34962,"byteStride":12},{"buffer":0,"byteOffset":8136,"byteLength":192,"target":34962,"byteStride":8},{"buffer":0,"byteOffset":8328,"byteLength":72,"target":34963},{"buffer":0,"byteOffset":8400,"byteLength":4},{"buffer":0,"byteOffset":8404,"byteLength":16},{"buffer":0,"byteOffset":8420,"byteLength":4},{"buffer":0,"byteOffset":8424,"byteLength":16},{"buffer":0,"byteOffset":8440,"byteLength":4},{"buffer":0,"byteOffset":8444,"byteLength":16},{"buffer":0,"byteOffset":8460,"byteLength":4},{"buffer":0,"byteOffset":8464,"byteLength":16},{"buffer":0,"byteOffset":8480,"byteLength":4},{"buffer":0,"byteOffset":8484,"byteLength":16},{"buffer":0,"byteOffset":8500,"byteLength":4},{"buffer":0,"byteOffset":8504,"byteLength":16},{"buffer":0,"byteOffset":8520,"byteLength":4},{"buffer":0,"byteOffset":8524,"byteLength":16},{"buffer":0,"byteOffset":8540,"byteLength":4},{"buffer":0,"byteOffset":8544,"byteLength":16},{"buffer":0,"byteOffset":8560,"byteLength":4},{"buffer":0,"byteOffset":8564,"byteLength":16},{"buffer":0,"byteOffset":8580,"byteLength":4},{"buffer":0,"byteOffset":8584,"byteLength":16},{"buffer":0,"byteOffset":8600,"byteLength":4},{"buffer":0,"byteOffset":8604,"byteLength":16},{"buffer":0,"byteOffset":8620,"byteLength":4},{"buffer":0,"byteOffset":8624,"byteLength":16},{"buffer":0,"byteOffset":8640,"byteLength":4},{"buffer":0,"byteOffset":8644,"byteLength":12},{"buffer":0,"byteOffset":8656,"byteLength":4},{"buffer":0,"byteOffset":8660,"byteLength":16},{"buffer":0,"byteOffset":8676,"byteLength":4},{"buffer":0,"byteOffset":8680,"byteLength":16},{"buffer":0,"byteOffset":8696,"byteLength":4},{"buffer":0,"byteOffset":8700,"byteLength":16},{"buffer":0,"byteOffset":8716,"byteLength":4},{"buffer":0,"byteOffset":8720,"byteLength":16},{"buffer":0,"byteOffset":8736,"byteLength":4},{"buffer":0,"byteOffset":8740,"byteLength":16}],"buffers":[{"byteLength":8756,"uri":"data:application/octet-stream;base64,"}],"accessors":[{"bufferView":0,"componentType":5126,"count":24,"max":[0.15625,0.25,0.3125],"min":[-0.15625,-0.25,-0.3125],"type":"VEC3"},{"bufferView":1,"componentType":5126,"count":24,"max":[1,1,1],"min":[-1,-1,-1],"type":"VEC3"},{"bufferView":2,"componentType":5126,"count":24,"max":[0.468505859375,0.281005859375],"min":[0.000244140625,0.000244140625],"type":"VEC2"},{"bufferView":3,"componentType":5123,"count":36,"max":[23],"min":[0],"type":"SCALAR"},{"bufferView":4,"componentType":5126,"count":24,"max":[-0.029999999329447746,0.2512499988079071,0.3762499988079071],"min":[-0.032499998807907104,-0.0012499999720603228,-0.1262499988079071],"type":"VEC3"},{"bufferView":5,"componentType":5126,"count":24,"max":[1,1,1],"min":[-1,-1,-1],"type":"VEC3"},{"bufferView":6,"componentType":5126,"count":24,"max":[0.250244140625,0.577880859375],"min":[0.000244140625,0.390869140625],"type":"VEC2"},{"bufferView":7,"componentType":5123,"count":36,"max":[23],"min":[0],"type":"SCALAR"},{"bufferView":8,"componentType":5126,"count":24,"max":[0.0012499999720603228,0.1262499988079071,0.0637499988079071],"min":[-0.0012499999720603228,-0.1262499988079071,-0.0637499988079071],"type":"VEC3"},{"bufferView":9,"componentType":5126,"count":24,"max":[1,1,1],"min":[-1,-1,-1],"type":"VEC3"},{"bufferView":10,"componentType":5126,"count":24,"max":[0.062744140625,0.093505859375],"min":[0.000244140625,0.000244140625],"type":"VEC2"},{"bufferView":11,"componentType":5123,"count":36,"max":[23],"min":[0],"type":"SCALAR"},{"bufferView":12,"componentType":5126,"count":24,"max":[0.0012499999720603228,0.0637499988079071,0.0637499988079071],"min":[-0.0012499999720603228,-0.0637499988079071,-0.0637499988079071],"type":"VEC3"},{"bufferView":13,"componentType":5126,"count":24,"max":[1,1,1],"min":[-1,-1,-1],"type":"VEC3"},{"bufferView":14,"componentType":5126,"count":24,"max":[1.000244140625,0.031005859375],"min":[0.937744140625,-0.031005859375],"type":"VEC2"},{"bufferView":15,"componentType":5123,"count":36,"max":[23],"min":[0],"type":"SCALAR"},{"bufferView":16,"componentType":5126,"count":24,"max":[0.0012499999720603228,0.0637499988079071,0.0637499988079071],"min":[-0.0012499999720603228,-0.0637499988079071,-0.0637499988079071],"type":"VEC3"},{"bufferView":17,"componentType":5126,"count":24,"max":[1,1,1],"min":[-1,-1,-1],"type":"VEC3"},{"bufferView":18,"componentType":5126,"count":24,"max":[1.000244140625,0.031005859375],"min":[0.937744140625,-0.031005859375],"type":"VEC2"},{"bufferView":19,"componentType":5123,"count":36,"max":[23],"min":[0],"type":"SCALAR"},{"bufferView":20,"componentType":5126,"count":24,"max":[0.032499998807907104,0.0637499988079071,-0.3112500011920929],"min":[-0.0949999988079071,-0.0637499988079071,-0.3137499988079071],"type":"VEC3"},{"bufferView":21,"componentType":5126,"count":24,"max":[1,1,1],"min":[-1,-1,-1],"type":"VEC3"},{"bufferView":22,"componentType":5126,"count":24,"max":[0.062255859375,0.031005859375],"min":[-0.000244140625,-0.000244140625],"type":"VEC2"},{"bufferView":23,"componentType":5123,"count":36,"max":[23],"min":[0],"type":"SCALAR"},{"bufferView":24,"componentType":5126,"count":24,"max":[-0.1550000011920929,0.5012500286102295,0.1262499988079071],"min":[-0.1574999988079071,-0.4387499988079071,-0.3137499988079071],"type":"VEC3"},{"bufferView":25,"componentType":5126,"count":24,"max":[1,1,1],"min":[-1,-1,-1],"type":"VEC3"},{"bufferView":26,"componentType":5126,"count":24,"max":[0.218994140625,0.515380859375],"min":[0.000244140625,0.172119140625],"type":"VEC2"},{"bufferView":27,"componentType":5123,"count":36,"max":[23],"min":[0],"type":"SCALAR"},{"bufferView":28,"componentType":5126,"count":24,"max":[0.1574999988079071,0.5012500286102295,0.1262499988079071],"min":[0.1550000011920929,-0.4387499988079071,-0.3137499988079071],"type":"VEC3"},{"bufferView":29,"componentType":5126,"count":24,"max":[1,1,1],"min":[-1,-1,-1],"type":"VEC3"},{"bufferView":30,"componentType":5126,"count":24,"max":[0.437744140625,0.515380859375],"min":[0.218994140625,0.172119140625],"type":"VEC2"},{"bufferView":31,"componentType":5123,"count":36,"max":[23],"min":[0],"type":"SCALAR"},{"bufferView":32,"componentType":5126,"count":24,"max":[0.2199999988079071,-0.061250001192092896,0.0637499988079071],"min":[-0.1574999988079071,-0.0637499988079071,-0.2512499988079071],"type":"VEC3"},{"bufferView":33,"componentType":5126,"count":24,"max":[1,1,1],"min":[-1,-1,-1],"type":"VEC3"},{"bufferView":34,"componentType":5126,"count":24,"max":[0.577880859375,0.156494140625],"min":[0.234619140625,0.078369140625],"type":"VEC2"},{"bufferView":35,"componentType":5123,"count":36,"max":[23],"min":[0],"type":"SCALAR"},{"bufferView":36,"componentType":5126,"count":24,"max":[0.1574999988079071,-0.061250001192092896,0.0637499988079071],"min":[-0.2199999988079071,-0.0637499988079071,-0.2512499988079071],"type":"VEC3"},{"bufferView":37,"componentType":5126,"count":24,"max":[1,1,1],"min":[-1,-1,-1],"type":"VEC3"},{"bufferView":38,"componentType":5126,"count":24,"max":[0.577880859375,0.156494140625],"min":[0.234619140625,0.078369140625],"type":"VEC2"},{"bufferView":39,"componentType":5123,"count":36,"max":[23],"min":[0],"type":"SCALAR"},{"bufferView":40,"componentType":5126,"count":1,"max":[0],"min":[0],"type":"SCALAR"},{"bufferView":41,"componentType":5126,"count":1,"max":[-0.17760570347309113,-0.12091123312711716,-0.0652332752943039,0.9744646549224854],"min":[-0.17760570347309113,-0.12091123312711716,-0.0652332752943039,0.9744646549224854],"type":"VEC4"},{"bufferView":42,"componentType":5126,"count":1,"max":[0],"min":[0],"type":"SCALAR"},{"bufferView":43,"componentType":5126,"count":1,"max":[-0.17760570347309113,0.12091123312711716,0.0652332752943039,0.9744646549224854],"min":[-0.17760570347309113,0.12091123312711716,0.0652332752943039,0.9744646549224854],"type":"VEC4"},{"bufferView":44,"componentType":5126,"count":1,"max":[0],"min":[0],"type":"SCALAR"},{"bufferView":45,"componentType":5126,"count":1,"max":[0,0,-0.237685889005661,0.9713420867919922],"min":[0,0,-0.237685889005661,0.9713420867919922],"type":"VEC4"},{"bufferView":46,"componentType":5126,"count":1,"max":[0],"min":[0],"type":"SCALAR"},{"bufferView":47,"componentType":5126,"count":1,"max":[0,0,0.237685889005661,0.9713420867919922],"min":[0,0,0.237685889005661,0.9713420867919922],"type":"VEC4"},{"bufferView":48,"componentType":5126,"count":1,"max":[0],"min":[0],"type":"SCALAR"},{"bufferView":49,"componentType":5126,"count":1,"max":[-0.03378266468644142,-0.2566048204898834,-0.12607862055301666,0.9576622247695923],"min":[-0.03378266468644142,-0.2566048204898834,-0.12607862055301666,0.9576622247695923],"type":"VEC4"},{"bufferView":50,"componentType":5126,"count":1,"max":[0],"min":[0],"type":"SCALAR"},{"bufferView":51,"componentType":5126,"count":1,"max":[-0.03378266468644142,0.2566048204898834,0.12607862055301666,0.9576622247695923],"min":[-0.03378266468644142,0.2566048204898834,0.12607862055301666,0.9576622247695923],"type":"VEC4"},{"bufferView":52,"componentType":5126,"count":1,"max":[0],"min":[0],"type":"SCALAR"},{"bufferView":53,"componentType":5126,"count":1,"max":[-0.12607862055301666,0.03378266468644142,-0.2566048204898834,0.9576622247695923],"min":[-0.12607862055301666,0.03378266468644142,-0.2566048204898834,0.9576622247695923],"type":"VEC4"},{"bufferView":54,"componentType":5126,"count":1,"max":[0],"min":[0],"type":"SCALAR"},{"bufferView":55,"componentType":5126,"count":1,"max":[-0.12607862055301666,-0.03378266468644142,0.2566048204898834,0.9576622247695923],"min":[-0.12607862055301666,-0.03378266468644142,0.2566048204898834,0.9576622247695923],"type":"VEC4"},{"bufferView":56,"componentType":5126,"count":1,"max":[0],"min":[0],"type":"SCALAR"},{"bufferView":57,"componentType":5126,"count":1,"max":[-0.017037086188793182,-0.129409521818161,-0.129409521818161,0.9829629063606262],"min":[-0.017037086188793182,-0.129409521818161,-0.129409521818161,0.9829629063606262],"type":"VEC4"},{"bufferView":58,"componentType":5126,"count":1,"max":[0],"min":[0],"type":"SCALAR"},{"bufferView":59,"componentType":5126,"count":1,"max":[-0.017037086188793182,0.129409521818161,0.129409521818161,0.9829629063606262],"min":[-0.017037086188793182,0.129409521818161,0.129409521818161,0.9829629063606262],"type":"VEC4"},{"bufferView":60,"componentType":5126,"count":1,"max":[0],"min":[0],"type":"SCALAR"},{"bufferView":61,"componentType":5126,"count":1,"max":[-0.15849365293979645,-0.09150635451078415,-0.2708660960197449,0.9450597167015076],"min":[-0.15849365293979645,-0.09150635451078415,-0.2708660960197449,0.9450597167015076],"type":"VEC4"},{"bufferView":62,"componentType":5126,"count":1,"max":[0],"min":[0],"type":"SCALAR"},{"bufferView":63,"componentType":5126,"count":1,"max":[-0.15849365293979645,0.09150635451078415,0.2708660960197449,0.9450597167015076],"min":[-0.15849365293979645,0.09150635451078415,0.2708660960197449,0.9450597167015076],"type":"VEC4"},{"bufferView":64,"componentType":5126,"count":1,"max":[0],"min":[0],"type":"SCALAR"},{"bufferView":65,"componentType":5126,"count":1,"max":[0,0.1875,0],"min":[0,0.1875,0],"type":"VEC3"},{"bufferView":66,"componentType":5126,"count":1,"max":[0],"min":[0],"type":"SCALAR"},{"bufferView":67,"componentType":5126,"count":1,"max":[0.06440950930118561,-0.1732763797044754,0.011357134208083153,0.9826992154121399],"min":[0.06440950930118561,-0.1732763797044754,0.011357134208083153,0.9826992154121399],"type":"VEC4"},{"bufferView":68,"componentType":5126,"count":1,"max":[0],"min":[0],"type":"SCALAR"},{"bufferView":69,"componentType":5126,"count":1,"max":[-0.08548106998205185,-0.19434794783592224,-0.017003241926431656,0.9770531058311462],"min":[-0.08548106998205185,-0.19434794783592224,-0.017003241926431656,0.9770531058311462],"type":"VEC4"},{"bufferView":70,"componentType":5126,"count":1,"max":[0],"min":[0],"type":"SCALAR"},{"bufferView":71,"componentType":5126,"count":1,"max":[-0.06484359502792358,0.13024672865867615,0.008536821231245995,0.9893221259117126],"min":[-0.06484359502792358,0.13024672865867615,0.008536821231245995,0.9893221259117126],"type":"VEC4"},{"bufferView":72,"componentType":5126,"count":1,"max":[0],"min":[0],"type":"SCALAR"},{"bufferView":73,"componentType":5126,"count":1,"max":[-0.015809325501322746,-0.04065361246466637,-0.36209309101104736,0.9311208128929138],"min":[-0.015809325501322746,-0.04065361246466637,-0.36209309101104736,0.9311208128929138],"type":"VEC4"},{"bufferView":74,"componentType":5126,"count":1,"max":[0],"min":[0],"type":"SCALAR"},{"bufferView":75,"componentType":5126,"count":1,"max":[-0.16145075857639313,0.14714576303958893,0.2959900498390198,0.9298772215843201],"min":[-0.16145075857639313,0.14714576303958893,0.2959900498390198,0.9298772215843201],"type":"VEC4"}],"materials":[{"pbrMetallicRoughness":{"metallicFactor":0,"roughnessFactor":1,"baseColorTexture":{"index":0}},"alphaMode":"MASK","alphaCutoff":0.05,"doubleSided":true}],"textures":[{"sampler":0,"source":0,"name":"seaking.png"}],"samplers":[{"magFilter":9728,"minFilter":9728,"wrapS":33071,"wrapT":33071}],"images":[{"mimeType":"image/png","uri":"data:image/png;base64,"}],"meshes":[{"primitives":[{"mode":4,"attributes":{"POSITION":0,"NORMAL":1,"TEXCOORD_0":2},"indices":3,"material":0}]},{"primitives":[{"mode":4,"attributes":{"POSITION":4,"NORMAL":5,"TEXCOORD_0":6},"indices":7,"material":0}]},{"primitives":[{"mode":4,"attributes":{"POSITION":8,"NORMAL":9,"TEXCOORD_0":10},"indices":11,"material":0}]},{"primitives":[{"mode":4,"attributes":{"POSITION":12,"NORMAL":13,"TEXCOORD_0":14},"indices":15,"material":0}]},{"primitives":[{"mode":4,"attributes":{"POSITION":16,"NORMAL":17,"TEXCOORD_0":18},"indices":19,"material":0}]},{"primitives":[{"mode":4,"attributes":{"POSITION":20,"NORMAL":21,"TEXCOORD_0":22},"indices":23,"material":0}]},{"primitives":[{"mode":4,"attributes":{"POSITION":24,"NORMAL":25,"TEXCOORD_0":26},"indices":27,"material":0}]},{"primitives":[{"mode":4,"attributes":{"POSITION":28,"NORMAL":29,"TEXCOORD_0":30},"indices":31,"material":0}]},{"primitives":[{"mode":4,"attributes":{"POSITION":32,"NORMAL":33,"TEXCOORD_0":34},"indices":35,"material":0}]},{"primitives":[{"mode":4,"attributes":{"POSITION":36,"NORMAL":37,"TEXCOORD_0":38},"indices":39,"material":0}]}],"animations":[{"name":"animation.seaking.ground_idle","samplers":[{"input":40,"output":41,"interpolation":"LINEAR"},{"input":42,"output":43,"interpolation":"LINEAR"},{"input":44,"output":45,"interpolation":"LINEAR"},{"input":46,"output":47,"interpolation":"LINEAR"}],"channels":[{"sampler":0,"target":{"node":7,"path":"rotation"}},{"sampler":1,"target":{"node":9,"path":"rotation"}},{"sampler":2,"target":{"node":11,"path":"rotation"}},{"sampler":3,"target":{"node":13,"path":"rotation"}}]},{"name":"animation.seaking.water_idle","samplers":[{"input":48,"output":49,"interpolation":"LINEAR"},{"input":50,"output":51,"interpolation":"LINEAR"},{"input":52,"output":53,"interpolation":"LINEAR"},{"input":54,"output":55,"interpolation":"LINEAR"}],"channels":[{"sampler":0,"target":{"node":7,"path":"rotation"}},{"sampler":1,"target":{"node":9,"path":"rotation"}},{"sampler":2,"target":{"node":11,"path":"rotation"}},{"sampler":3,"target":{"node":13,"path":"rotation"}}]},{"name":"animation.seaking.water_swim","samplers":[{"input":56,"output":57,"interpolation":"LINEAR"},{"input":58,"output":59,"interpolation":"LINEAR"},{"input":60,"output":61,"interpolation":"LINEAR"},{"input":62,"output":63,"interpolation":"LINEAR"}],"channels":[{"sampler":0,"target":{"node":7,"path":"rotation"}},{"sampler":1,"target":{"node":9,"path":"rotation"}},{"sampler":2,"target":{"node":11,"path":"rotation"}},{"sampler":3,"target":{"node":13,"path":"rotation"}}]},{"name":"animation.seaking_male.render2","samplers":[{"input":64,"output":65,"interpolation":"LINEAR"},{"input":66,"output":67,"interpolation":"LINEAR"},{"input":68,"output":69,"interpolation":"LINEAR"},{"input":70,"output":71,"interpolation":"LINEAR"},{"input":72,"output":73,"interpolation":"LINEAR"},{"input":74,"output":75,"interpolation":"LINEAR"}],"channels":[{"sampler":0,"target":{"node":15,"path":"translation"}},{"sampler":1,"target":{"node":14,"path":"rotation"}},{"sampler":2,"target":{"node":7,"path":"rotation"}},{"sampler":3,"target":{"node":9,"path":"rotation"}},{"sampler":4,"target":{"node":11,"path":"rotation"}},{"sampler":5,"target":{"node":13,"path":"rotation"}}]}]}