{"asset":{"version":"2.0","generator":"Blockbench 4.8.3 glTF exporter"},"scenes":[{"nodes":[24],"name":"blockbench_export"}],"scene":0,"nodes":[{"rotation":[-0.02181488503456112,0,0,0.9997620270799091],"translation":[0,-0.11443,-0.00352125],"name":"body","mesh":0},{"translation":[0,-0.3125,-0.015625],"name":"body","mesh":1},{"rotation":[0.13052619222005157,0,0,0.9914448613738104],"translation":[0,-0.046875,0.34375],"name":"body","mesh":2},{"rotation":[0.022557566113149834,0.08418598282936919,-0.25783416049629954,0.9622501868990583],"translation":[-0.171875,-0.212120625,-0.10599125],"name":"body","mesh":3},{"rotation":[0.022557566113149834,-0.08418598282936919,0.25783416049629954,0.9622501868990583],"translation":[0.171875,-0.212120625,-0.10599125],"name":"body","mesh":4},{"rotation":[0.043619387365336,0,0,0.9990482215818578],"translation":[0,0.11874999999999991,-0.273125],"name":"body","mesh":5},{"rotation":[0.07820435431930865,0.05791327887709843,0.1690788242160261,0.9807866650280934],"translation":[-0.1875,0.27837187499999994,-0.30348],"name":"body","mesh":6},{"rotation":[0.07820435431930865,-0.05791327887709843,-0.1690788242160261,0.9807866650280934],"translation":[0.1875,0.27837187499999994,-0.30348],"name":"body","mesh":7},{"rotation":[-0.13052619222005157,0,0,0.9914448613738104],"translation":[0,0.05624999999999991,0.070625],"name":"body","mesh":8},{"translation":[0,-0.009374999999999911,0.273125],"name":"topshell","children":[5,6,7,8]},{"translation":[0.109375,-0.328125,0.175],"name":"body","mesh":9},{"translation":[-0.109375,0.015625,-0.19218749999999998],"name":"lefteye","children":[10]},{"translation":[-0.109375,-0.328125,0.175],"name":"body","mesh":10},{"translation":[0.109375,0.015625,-0.19218749999999998],"name":"righteye","children":[12]},{"translation":[0.125,-0.34375,0.171875],"name":"body","mesh":11},{"translation":[-0.109375,0.03125,-0.171875],"name":"lefteyelid","children":[14]},{"translation":[-0.125,-0.34375,0.171875],"name":"body","mesh":12},{"translation":[0.109375,0.03125,-0.171875],"name":"righteyelid","children":[16]},{"translation":[0,-0.21875,0.171875],"name":"tongue","mesh":13},{"translation":[0,-0.25,0.359375],"name":"tongue2","mesh":14},{"translation":[0,0.03125,-0.1875],"name":"tongue2","children":[19]},{"translation":[0,-0.09375,-0.1875],"name":"tongue","children":[18,20]},{"translation":[0,0.3125,0.015625],"name":"body","children":[0,1,2,3,4,9,11,13,15,17,21]},{"name":"shellder","children":[22]},{"children":[23]}],"bufferViews":[{"buffer":0,"byteOffset":0,"byteLength":288,"target":34962,"byteStride":12},{"buffer":0,"byteOffset":288,"byteLength":288,"target":34962,"byteStride":12},{"buffer":0,"byteOffset":576,"byteLength":192,"target":34962,"byteStride":8},{"buffer":0,"byteOffset":768,"byteLength":72,"target":34963},{"buffer":0,"byteOffset":840,"byteLength":288,"target":34962,"byteStride":12},{"buffer":0,"byteOffset":1128,"byteLength":288,"target":34962,"byteStride":12},{"buffer":0,"byteOffset":1416,"byteLength":192,"target":34962,"byteStride":8},{"buffer":0,"byteOffset":1608,"byteLength":72,"target":34963},{"buffer":0,"byteOffset":1680,"byteLength":288,"target":34962,"byteStride":12},{"buffer":0,"byteOffset":1968,"byteLength":288,"target":34962,"byteStride":12},{"buffer":0,"byteOffset":2256,"byteLength":192,"target":34962,"byteStride":8},{"buffer":0,"byteOffset":2448,"byteLength":72,"target":34963},{"buffer":0,"byteOffset":2520,"byteLength":288,"target":34962,"byteStride":12},{"buffer":0,"byteOffset":2808,"byteLength":288,"target":34962,"byteStride":12},{"buffer":0,"byteOffset":3096,"byteLength":192,"target":34962,"byteStride":8},{"buffer":0,"byteOffset":3288,"byteLength":72,"target":34963},{"buffer":0,"byteOffset":3360,"byteLength":288,"target":34962,"byteStride":12},{"buffer":0,"byteOffset":3648,"byteLength":288,"target":34962,"byteStride":12},{"buffer":0,"byteOffset":3936,"byteLength":192,"target":34962,"byteStride":8},{"buffer":0,"byteOffset":4128,"byteLength":72,"target":34963},{"buffer":0,"byteOffset":4200,"byteLength":288,"target":34962,"byteStride":12},{"buffer":0,"byteOffset":4488,"byteLength":288,"target":34962,"byteStride":12},{"buffer":0,"byteOffset":4776,"byteLength":192,"target":34962,"byteStride":8},{"buffer":0,"byteOffset":4968,"byteLength":72,"target":34963},{"buffer":0,"byteOffset":5040,"byteLength":288,"target":34962,"byteStride":12},{"buffer":0,"byteOffset":5328,"byteLength":288,"target":34962,"byteStride":12},{"buffer":0,"byteOffset":5616,"byteLength":192,"target":34962,"byteStride":8},{"buffer":0,"byteOffset":5808,"byteLength":72,"target":34963},{"buffer":0,"byteOffset":5880,"byteLength":288,"target":34962,"byteStride":12},{"buffer":0,"byteOffset":6168,"byteLength":288,"target":34962,"byteStride":12},{"buffer":0,"byteOffset":6456,"byteLength":192,"target":34962,"byteStride":8},{"buffer":0,"byteOffset":6648,"byteLength":72,"target":34963},{"buffer":0,"byteOffset":6720,"byteLength":288,"target":34962,"byteStride":12},{"buffer":0,"byteOffset":7008,"byteLength":288,"target":34962,"byteStride":12},{"buffer":0,"byteOffset":7296,"byteLength":192,"target":34962,"byteStride":8},{"buffer":0,"byteOffset":7488,"byteLength":72,"target":34963},{"buffer":0,"byteOffset":7560,"byteLength":288,"target":34962,"byteStride":12},{"buffer":0,"byteOffset":7848,"byteLength":288,"target":34962,"byteStride":12},{"buffer":0,"byteOffset":8136,"byteLength":192,"target":34962,"byteStride":8},{"buffer":0,"byteOffset":8328,"byteLength":72,"target":34963},{"buffer":0,"byteOffset":8400,"byteLength":288,"target":34962,"byteStride":12},{"buffer":0,"byteOffset":8688,"byteLength":288,"target":34962,"byteStride":12},{"buffer":0,"byteOffset":8976,"byteLength":192,"target":34962,"byteStride":8},{"buffer":0,"byteOffset":9168,"byteLength":72,"target":34963},{"buffer":0,"byteOffset":9240,"byteLength":288,"target":34962,"byteStride":12},{"buffer":0,"byteOffset":9528,"byteLength":288,"target":34962,"byteStride":12},{"buffer":0,"byteOffset":9816,"byteLength":192,"target":34962,"byteStride":8},{"buffer":0,"byteOffset":10008,"byteLength":72,"target":34963},{"buffer":0,"byteOffset":10080,"byteLength":288,"target":34962,"byteStride":12},{"buffer":0,"byteOffset":10368,"byteLength":288,"target":34962,"byteStride":12},{"buffer":0,"byteOffset":10656,"byteLength":192,"target":34962,"byteStride":8},{"buffer":0,"byteOffset":10848,"byteLength":72,"target":34963},{"buffer":0,"byteOffset":10920,"byteLength":288,"target":34962,"byteStride":12},{"buffer":0,"byteOffset":11208,"byteLength":288,"target":34962,"byteStride":12},{"buffer":0,"byteOffset":11496,"byteLength":192,"target":34962,"byteStride":8},{"buffer":0,"byteOffset":11688,"byteLength":72,"target":34963},{"buffer":0,"byteOffset":11760,"byteLength":288,"target":34962,"byteStride":12},{"buffer":0,"byteOffset":12048,"byteLength":288,"target":34962,"byteStride":12},{"buffer":0,"byteOffset":12336,"byteLength":192,"target":34962,"byteStride":8},{"buffer":0,"byteOffset":12528,"byteLength":72,"target":34963},{"buffer":0,"byteOffset":12600,"byteLength":4},{"buffer":0,"byteOffset":12604,"byteLength":16},{"buffer":0,"byteOffset":12620,"byteLength":4},{"buffer":0,"byteOffset":12624,"byteLength":12},{"buffer":0,"byteOffset":12636,"byteLength":4},{"buffer":0,"byteOffset":12640,"byteLength":16},{"buffer":0,"byteOffset":12656,"byteLength":4},{"buffer":0,"byteOffset":12660,"byteLength":16}],"buffers":[{"byteLength":12676,"uri":"data:application/octet-stream;base64,"}],"accessors":[{"bufferView":0,"componentType":5126,"count":24,"max":[0.21875,0.125,0.28125],"min":[-0.21875,-0.0625,-0.28125],"type":"VEC3"},{"bufferView":1,"componentType":5126,"count":24,"max":[1,1,1],"min":[-1,-1,-1],"type":"VEC3"},{"bufferView":2,"componentType":5126,"count":24,"max":[0.499755859375,0.187255859375],"min":[0.000244140625,0.000244140625],"type":"VEC2"},{"bufferView":3,"componentType":5123,"count":36,"max":[23],"min":[0],"type":"SCALAR"},{"bufferView":4,"componentType":5126,"count":24,"max":[0.1875,0.46875,0.265625],"min":[-0.1875,0.15625,-0.171875],"type":"VEC3"},{"bufferView":5,"componentType":5126,"count":24,"max":[1,1,1],"min":[-1,-1,-1],"type":"VEC3"},{"bufferView":6,"componentType":5126,"count":24,"max":[0.406005859375,0.562255859375],"min":[0.000244140625,0.375244140625],"type":"VEC2"},{"bufferView":7,"componentType":5123,"count":36,"max":[23],"min":[0],"type":"SCALAR"},{"bufferView":8,"componentType":5126,"count":24,"max":[0.125,0.03125,0.125],"min":[-0.125,-0.03125,-0.125],"type":"VEC3"},{"bufferView":9,"componentType":5126,"count":24,"max":[1,1,1],"min":[-1,-1,-1],"type":"VEC3"},{"bufferView":10,"componentType":5126,"count":24,"max":[0.609130859375,0.077880859375],"min":[0.359619140625,0.000244140625],"type":"VEC2"},{"bufferView":11,"componentType":5123,"count":36,"max":[23],"min":[0],"type":"SCALAR"},{"bufferView":12,"componentType":5126,"count":24,"max":[0.0625,0.09375,0.0000625000029685907],"min":[-0.0625,-0.09375,0],"type":"VEC3"},{"bufferView":13,"componentType":5126,"count":24,"max":[1,1,1],"min":[-1,-1,-1],"type":"VEC3"},{"bufferView":14,"componentType":5126,"count":24,"max":[0.124755859375,0.093505859375],"min":[0.062255859375,0.046630859375],"type":"VEC2"},{"bufferView":15,"componentType":5123,"count":36,"max":[23],"min":[0],"type":"SCALAR"},{"bufferView":16,"componentType":5126,"count":24,"max":[0.0625,0.09375,0.0000625000029685907],"min":[-0.0625,-0.09375,0],"type":"VEC3"},{"bufferView":17,"componentType":5126,"count":24,"max":[1,1,1],"min":[-1,-1,-1],"type":"VEC3"},{"bufferView":18,"componentType":5126,"count":24,"max":[0.062255859375,0.046630859375],"min":[-0.000244140625,-0.000244140625],"type":"VEC2"},{"bufferView":19,"componentType":5123,"count":36,"max":[23],"min":[0],"type":"SCALAR"},{"bufferView":20,"componentType":5126,"count":24,"max":[0.2199999988079071,0.0949999988079071,0.2824999988079071],"min":[-0.2199999988079071,-0.0949999988079071,-0.2824999988079071],"type":"VEC3"},{"bufferView":21,"componentType":5126,"count":24,"max":[1,1,1],"min":[-1,-1,-1],"type":"VEC3"},{"bufferView":22,"componentType":5126,"count":24,"max":[0.499755859375,0.374755859375],"min":[0.000244140625,0.187744140625],"type":"VEC2"},{"bufferView":23,"componentType":5123,"count":36,"max":[23],"min":[0],"type":"SCALAR"},{"bufferView":24,"componentType":5126,"count":24,"max":[0.0625,0.09375,0.0000625000029685907],"min":[-0.0625,-0.09375,0],"type":"VEC3"},{"bufferView":25,"componentType":5126,"count":24,"max":[1,1,1],"min":[-1,-1,-1],"type":"VEC3"},{"bufferView":26,"componentType":5126,"count":24,"max":[0.124755859375,0.046630859375],"min":[0.062255859375,-0.000244140625],"type":"VEC2"},{"bufferView":27,"componentType":5123,"count":36,"max":[23],"min":[0],"type":"SCALAR"},{"bufferView":28,"componentType":5126,"count":24,"max":[0.0625,0.09375,0.0000625000029685907],"min":[-0.0625,-0.09375,0],"type":"VEC3"},{"bufferView":29,"componentType":5126,"count":24,"max":[1,1,1],"min":[-1,-1,-1],"type":"VEC3"},{"bufferView":30,"componentType":5126,"count":24,"max":[0.062255859375,0.093505859375],"min":[-0.000244140625,0.046630859375],"type":"VEC2"},{"bufferView":31,"componentType":5123,"count":36,"max":[23],"min":[0],"type":"SCALAR"},{"bufferView":32,"componentType":5126,"count":24,"max":[0.1262499988079071,0.032499998807907104,0.1262499988079071],"min":[-0.1262499988079071,-0.032499998807907104,-0.1262499988079071],"type":"VEC3"},{"bufferView":33,"componentType":5126,"count":24,"max":[1,1,1],"min":[-1,-1,-1],"type":"VEC3"},{"bufferView":34,"componentType":5126,"count":24,"max":[0.609130859375,0.265380859375],"min":[0.359619140625,0.187744140625],"type":"VEC2"},{"bufferView":35,"componentType":5123,"count":36,"max":[23],"min":[0],"type":"SCALAR"},{"bufferView":36,"componentType":5126,"count":24,"max":[-0.078125,0.359375,-0.171812504529953],"min":[-0.140625,0.296875,-0.171875],"type":"VEC3"},{"bufferView":37,"componentType":5126,"count":24,"max":[1,1,1],"min":[-1,-1,-1],"type":"VEC3"},{"bufferView":38,"componentType":5126,"count":24,"max":[0.031005859375,0.390380859375],"min":[-0.000244140625,0.374755859375],"type":"VEC2"},{"bufferView":39,"componentType":5123,"count":36,"max":[23],"min":[0],"type":"SCALAR"},{"bufferView":40,"componentType":5126,"count":24,"max":[0.140625,0.359375,-0.171812504529953],"min":[0.078125,0.296875,-0.171875],"type":"VEC3"},{"bufferView":41,"componentType":5126,"count":24,"max":[1,1,1],"min":[-1,-1,-1],"type":"VEC3"},{"bufferView":42,"componentType":5126,"count":24,"max":[0.031005859375,0.390380859375],"min":[-0.000244140625,0.374755859375],"type":"VEC2"},{"bufferView":43,"componentType":5123,"count":36,"max":[23],"min":[0],"type":"SCALAR"},{"bufferView":44,"componentType":5126,"count":24,"max":[-0.061250001192092896,0.4074999988079071,-0.1706250011920929],"min":[-0.1887499988079071,0.2800000011920929,-0.1731249988079071],"type":"VEC3"},{"bufferView":45,"componentType":5126,"count":24,"max":[1,1,1],"min":[-1,-1,-1],"type":"VEC3"},{"bufferView":46,"componentType":5126,"count":24,"max":[0.687255859375,0.031005859375],"min":[0.624755859375,-0.000244140625],"type":"VEC2"},{"bufferView":47,"componentType":5123,"count":36,"max":[23],"min":[0],"type":"SCALAR"},{"bufferView":48,"componentType":5126,"count":24,"max":[0.1887499988079071,0.4074999988079071,-0.1706250011920929],"min":[0.061250001192092896,0.2800000011920929,-0.1731249988079071],"type":"VEC3"},{"bufferView":49,"componentType":5126,"count":24,"max":[1,1,1],"min":[-1,-1,-1],"type":"VEC3"},{"bufferView":50,"componentType":5126,"count":24,"max":[0.687255859375,0.031005859375],"min":[0.624755859375,-0.000244140625],"type":"VEC2"},{"bufferView":51,"componentType":5123,"count":36,"max":[23],"min":[0],"type":"SCALAR"},{"bufferView":52,"componentType":5126,"count":24,"max":[0.09375,0.25,-0.109375],"min":[-0.09375,0.1875,-0.359375],"type":"VEC3"},{"bufferView":53,"componentType":5126,"count":24,"max":[1,1,1],"min":[-1,-1,-1],"type":"VEC3"},{"bufferView":54,"componentType":5126,"count":24,"max":[0.515380859375,0.452880859375],"min":[0.297119140625,0.375244140625],"type":"VEC2"},{"bufferView":55,"componentType":5123,"count":36,"max":[23],"min":[0],"type":"SCALAR"},{"bufferView":56,"componentType":5126,"count":24,"max":[0.09375,0.25,-0.359375],"min":[-0.09375,0.1875,-0.484375],"type":"VEC3"},{"bufferView":57,"componentType":5126,"count":24,"max":[1,1,1],"min":[-1,-1,-1],"type":"VEC3"},{"bufferView":58,"componentType":5126,"count":24,"max":[0.515380859375,0.124755859375],"min":[0.359619140625,0.078369140625],"type":"VEC2"},{"bufferView":59,"componentType":5123,"count":36,"max":[23],"min":[0],"type":"SCALAR"},{"bufferView":60,"componentType":5126,"count":1,"max":[0],"min":[0],"type":"SCALAR"},{"bufferView":61,"componentType":5126,"count":1,"max":[0.13052618503570557,0,0,0.9914448857307434],"min":[0.13052618503570557,0,0,0.9914448857307434],"type":"VEC4"},{"bufferView":62,"componentType":5126,"count":1,"max":[0],"min":[0],"type":"SCALAR"},{"bufferView":63,"componentType":5126,"count":1,"max":[0,0.234375,0.015625],"min":[0,0.234375,0.015625],"type":"VEC3"},{"bufferView":64,"componentType":5126,"count":1,"max":[0],"min":[0],"type":"SCALAR"},{"bufferView":65,"componentType":5126,"count":1,"max":[-0.258819043636322,0,0,0.9659258127212524],"min":[-0.258819043636322,0,0,0.9659258127212524],"type":"VEC4"},{"bufferView":66,"componentType":5126,"count":1,"max":[0],"min":[0],"type":"SCALAR"},{"bufferView":67,"componentType":5126,"count":1,"max":[-0.258819043636322,0,0,0.9659258127212524],"min":[-0.258819043636322,0,0,0.9659258127212524],"type":"VEC4"}],"materials":[{"pbrMetallicRoughness":{"metallicFactor":0,"roughnessFactor":1,"baseColorTexture":{"index":0}},"alphaMode":"MASK","alphaCutoff":0.05,"doubleSided":true}],"textures":[{"sampler":0,"source":0,"name":"shellder.png"}],"samplers":[{"magFilter":9728,"minFilter":9728,"wrapS":33071,"wrapT":33071}],"images":[{"mimeType":"image/png","uri":"data:image/png;base64,"}],"meshes":[{"primitives":[{"mode":4,"attributes":{"POSITION":0,"NORMAL":1,"TEXCOORD_0":2},"indices":3,"material":0}]},{"primitives":[{"mode":4,"attributes":{"POSITION":4,"NORMAL":5,"TEXCOORD_0":6},"indices":7,"material":0}]},{"primitives":[{"mode":4,"attributes":{"POSITION":8,"NORMAL":9,"TEXCOORD_0":10},"indices":11,"material":0}]},{"primitives":[{"mode":4,"attributes":{"POSITION":12,"NORMAL":13,"TEXCOORD_0":14},"indices":15,"material":0}]},{"primitives":[{"mode":4,"attributes":{"POSITION":16,"NORMAL":17,"TEXCOORD_0":18},"indices":19,"material":0}]},{"primitives":[{"mode":4,"attributes":{"POSITION":20,"NORMAL":21,"TEXCOORD_0":22},"indices":23,"material":0}]},{"primitives":[{"mode":4,"attributes":{"POSITION":24,"NORMAL":25,"TEXCOORD_0":26},"indices":27,"material":0}]},{"primitives":[{"mode":4,"attributes":{"POSITION":28,"NORMAL":29,"TEXCOORD_0":30},"indices":31,"material":0}]},{"primitives":[{"mode":4,"attributes":{"POSITION":32,"NORMAL":33,"TEXCOORD_0":34},"indices":35,"material":0}]},{"primitives":[{"mode":4,"attributes":{"POSITION":36,"NORMAL":37,"TEXCOORD_0":38},"indices":39,"material":0}]},{"primitives":[{"mode":4,"attributes":{"POSITION":40,"NORMAL":41,"TEXCOORD_0":42},"indices":43,"material":0}]},{"primitives":[{"mode":4,"attributes":{"POSITION":44,"NORMAL":45,"TEXCOORD_0":46},"indices":47,"material":0}]},{"primitives":[{"mode":4,"attributes":{"POSITION":48,"NORMAL":49,"TEXCOORD_0":50},"indices":51,"material":0}]},{"primitives":[{"mode":4,"attributes":{"POSITION":52,"NORMAL":53,"TEXCOORD_0":54},"indices":55,"material":0}]},{"primitives":[{"mode":4,"attributes":{"POSITION":56,"NORMAL":57,"TEXCOORD_0":58},"indices":59,"material":0}]}],"animations":[{"name":"animation.shellder.ground_idle","samplers":[{"input":60,"output":61,"interpolation":"LINEAR"},{"input":62,"output":63,"interpolation":"LINEAR"},{"input":64,"output":65,"interpolation":"LINEAR"},{"input":66,"output":67,"interpolation":"LINEAR"}],"channels":[{"sampler":0,"target":{"node":22,"path":"rotation"}},{"sampler":1,"target":{"node":22,"path":"translation"}},{"sampler":2,"target":{"node":21,"path":"rotation"}},{"sampler":3,"target":{"node":20,"path":"rotation"}}]}]}