{"asset":{"version":"2.0","generator":"Blockbench 4.8.3 glTF exporter"},"scenes":[{"nodes":[17],"name":"blockbench_export"}],"scene":0,"nodes":[{"translation":[0,-0.25,0],"name":"body","mesh":0},{"translation":[0,-0.25,0],"name":"body","mesh":1},{"translation":[0,-0.03125,0],"name":"eye_right","mesh":2},{"rotation":[0.18473690388997419,-0.06270972879468587,-0.3152630961100258,0.9287351325791245],"translation":[-0.125,0.140625,-0.32875],"name":"eyebrow_left","children":[2]},{"translation":[0,-0.03125,0],"name":"eye_right","mesh":3},{"rotation":[0.18473690388997419,0.06270972879468587,0.3152630961100258,0.9287351325791245],"translation":[0.125,0.140625,-0.32875],"name":"eyebrow_right","children":[4]},{"name":"eye_right","mesh":4},{"name":"eyelid_right","mesh":5},{"translation":[0,0,0.03749999999999998],"name":"eyelid_right","children":[7]},{"rotation":[0,0,0.08715574274765817,0.9961946980917455],"translation":[0.140625,0.34375,-0.250625],"name":"eye_right","children":[6,8]},{"name":"eye_right","mesh":6},{"name":"eyelid_right","mesh":7},{"translation":[0,0,0.03749999999999998],"name":"eyelid_left","children":[11]},{"rotation":[0,0,-0.08715574274765817,0.9961946980917455],"translation":[-0.140625,0.34375,-0.250625],"name":"eye_left","children":[10,12]},{"translation":[0,-0.25,-0.078125],"name":"eyes","children":[9,13]},{"translation":[0,0.34375,0],"name":"body","children":[0,1,3,5,14]},{"name":"voltorb","children":[15]},{"children":[16]}],"bufferViews":[{"buffer":0,"byteOffset":0,"byteLength":288,"target":34962,"byteStride":12},{"buffer":0,"byteOffset":288,"byteLength":288,"target":34962,"byteStride":12},{"buffer":0,"byteOffset":576,"byteLength":192,"target":34962,"byteStride":8},{"buffer":0,"byteOffset":768,"byteLength":72,"target":34963},{"buffer":0,"byteOffset":840,"byteLength":288,"target":34962,"byteStride":12},{"buffer":0,"byteOffset":1128,"byteLength":288,"target":34962,"byteStride":12},{"buffer":0,"byteOffset":1416,"byteLength":192,"target":34962,"byteStride":8},{"buffer":0,"byteOffset":1608,"byteLength":72,"target":34963},{"buffer":0,"byteOffset":1680,"byteLength":288,"target":34962,"byteStride":12},{"buffer":0,"byteOffset":1968,"byteLength":288,"target":34962,"byteStride":12},{"buffer":0,"byteOffset":2256,"byteLength":192,"target":34962,"byteStride":8},{"buffer":0,"byteOffset":2448,"byteLength":72,"target":34963},{"buffer":0,"byteOffset":2520,"byteLength":288,"target":34962,"byteStride":12},{"buffer":0,"byteOffset":2808,"byteLength":288,"target":34962,"byteStride":12},{"buffer":0,"byteOffset":3096,"byteLength":192,"target":34962,"byteStride":8},{"buffer":0,"byteOffset":3288,"byteLength":72,"target":34963},{"buffer":0,"byteOffset":3360,"byteLength":288,"target":34962,"byteStride":12},{"buffer":0,"byteOffset":3648,"byteLength":288,"target":34962,"byteStride":12},{"buffer":0,"byteOffset":3936,"byteLength":192,"target":34962,"byteStride":8},{"buffer":0,"byteOffset":4128,"byteLength":72,"target":34963},{"buffer":0,"byteOffset":4200,"byteLength":288,"target":34962,"byteStride":12},{"buffer":0,"byteOffset":4488,"byteLength":288,"target":34962,"byteStride":12},{"buffer":0,"byteOffset":4776,"byteLength":192,"target":34962,"byteStride":8},{"buffer":0,"byteOffset":4968,"byteLength":72,"target":34963},{"buffer":0,"byteOffset":5040,"byteLength":288,"target":34962,"byteStride":12},{"buffer":0,"byteOffset":5328,"byteLength":288,"target":34962,"byteStride":12},{"buffer":0,"byteOffset":5616,"byteLength":192,"target":34962,"byteStride":8},{"buffer":0,"byteOffset":5808,"byteLength":72,"target":34963},{"buffer":0,"byteOffset":5880,"byteLength":288,"target":34962,"byteStride":12},{"buffer":0,"byteOffset":6168,"byteLength":288,"target":34962,"byteStride":12},{"buffer":0,"byteOffset":6456,"byteLength":192,"target":34962,"byteStride":8},{"buffer":0,"byteOffset":6648,"byteLength":72,"target":34963},{"buffer":0,"byteOffset":6720,"byteLength":96},{"buffer":0,"byteOffset":6816,"byteLength":384},{"buffer":0,"byteOffset":7200,"byteLength":96},{"buffer":0,"byteOffset":7296,"byteLength":288},{"buffer":0,"byteOffset":7584,"byteLength":632},{"buffer":0,"byteOffset":8216,"byteLength":2528},{"buffer":0,"byteOffset":10744,"byteLength":632},{"buffer":0,"byteOffset":11376,"byteLength":1896},{"buffer":0,"byteOffset":13272,"byteLength":12},{"buffer":0,"byteOffset":13284,"byteLength":36},{"buffer":0,"byteOffset":13320,"byteLength":12},{"buffer":0,"byteOffset":13332,"byteLength":36}],"buffers":[{"byteLength":13368,"uri":"data:application/octet-stream;base64,"}],"accessors":[{"bufferView":0,"componentType":5126,"count":24,"max":[0.328125,0.578125,0.328125],"min":[-0.328125,-0.078125,-0.328125],"type":"VEC3"},{"bufferView":1,"componentType":5126,"count":24,"max":[1,1,1],"min":[-1,-1,-1],"type":"VEC3"},{"bufferView":2,"componentType":5126,"count":24,"max":[0.624755859375,0.624755859375],"min":[0.000244140625,0.312744140625],"type":"VEC2"},{"bufferView":3,"componentType":5123,"count":36,"max":[23],"min":[0],"type":"SCALAR"},{"bufferView":4,"componentType":5126,"count":24,"max":[0.3125,0.5625,0.3125],"min":[-0.3125,-0.0625,-0.3125],"type":"VEC3"},{"bufferView":5,"componentType":5126,"count":24,"max":[1,1,1],"min":[-1,-1,-1],"type":"VEC3"},{"bufferView":6,"componentType":5126,"count":24,"max":[0.624755859375,0.312255859375],"min":[0.000244140625,0.000244140625],"type":"VEC2"},{"bufferView":7,"componentType":5123,"count":36,"max":[23],"min":[0],"type":"SCALAR"},{"bufferView":8,"componentType":5126,"count":24,"max":[0.125,0.125,0.03125],"min":[-0.125,0,-0.03125],"type":"VEC3"},{"bufferView":9,"componentType":5126,"count":24,"max":[1,1,1],"min":[-1,-1,-1],"type":"VEC3"},{"bufferView":10,"componentType":5126,"count":24,"max":[0.156005859375,0.093505859375],"min":[0.000244140625,0.047119140625],"type":"VEC2"},{"bufferView":11,"componentType":5123,"count":36,"max":[23],"min":[0],"type":"SCALAR"},{"bufferView":12,"componentType":5126,"count":24,"max":[0.125,0.125,0.03125],"min":[-0.125,0,-0.03125],"type":"VEC3"},{"bufferView":13,"componentType":5126,"count":24,"max":[1,1,1],"min":[-1,-1,-1],"type":"VEC3"},{"bufferView":14,"componentType":5126,"count":24,"max":[0.156005859375,0.046630859375],"min":[0.000244140625,0.000244140625],"type":"VEC2"},{"bufferView":15,"componentType":5123,"count":36,"max":[23],"min":[0],"type":"SCALAR"},{"bufferView":16,"componentType":5126,"count":24,"max":[0.09375,0.0625,0.0000625000029685907],"min":[-0.09375,-0.0625,0],"type":"VEC3"},{"bufferView":17,"componentType":5126,"count":24,"max":[1,1,1],"min":[-1,-1,-1],"type":"VEC3"},{"bufferView":18,"componentType":5126,"count":24,"max":[0.093505859375,0.421630859375],"min":[-0.000244140625,0.390380859375],"type":"VEC2"},{"bufferView":19,"componentType":5123,"count":36,"max":[23],"min":[0],"type":"SCALAR"},{"bufferView":20,"componentType":5126,"count":24,"max":[0.09437499940395355,0.06312499940395355,0.03187499940395355],"min":[-0.09437499940395355,-0.06312499940395355,-0.03187499940395355],"type":"VEC3"},{"bufferView":21,"componentType":5126,"count":24,"max":[1,1,1],"min":[-1,-1,-1],"type":"VEC3"},{"bufferView":22,"componentType":5126,"count":24,"max":[0.124755859375,0.359130859375],"min":[0.000244140625,0.312744140625],"type":"VEC2"},{"bufferView":23,"componentType":5123,"count":36,"max":[23],"min":[0],"type":"SCALAR"},{"bufferView":24,"componentType":5126,"count":24,"max":[0.09375,0.0625,0.0000625000029685907],"min":[-0.09375,-0.0625,0],"type":"VEC3"},{"bufferView":25,"componentType":5126,"count":24,"max":[1,1,1],"min":[-1,-1,-1],"type":"VEC3"},{"bufferView":26,"componentType":5126,"count":24,"max":[0.093505859375,0.390380859375],"min":[-0.000244140625,0.359130859375],"type":"VEC2"},{"bufferView":27,"componentType":5123,"count":36,"max":[23],"min":[0],"type":"SCALAR"},{"bufferView":28,"componentType":5126,"count":24,"max":[0.09437499940395355,0.06312499940395355,0.03187499940395355],"min":[-0.09437499940395355,-0.06312499940395355,-0.03187499940395355],"type":"VEC3"},{"bufferView":29,"componentType":5126,"count":24,"max":[1,1,1],"min":[-1,-1,-1],"type":"VEC3"},{"bufferView":30,"componentType":5126,"count":24,"max":[0.124755859375,0.140380859375],"min":[0.000244140625,0.093994140625],"type":"VEC2"},{"bufferView":31,"componentType":5123,"count":36,"max":[23],"min":[0],"type":"SCALAR"},{"bufferView":32,"componentType":5126,"count":24,"max":[1.3333333730697632],"min":[0],"type":"SCALAR"},{"bufferView":33,"componentType":5126,"count":24,"max":[0.026176948100328445,0.008775944821536541,0.017434995621442795,0.9998927712440491],"min":[-0.09588539600372314,-0.00831032358109951,-0.01756146363914013,0.9953341484069824],"type":"VEC4"},{"bufferView":34,"componentType":5126,"count":24,"max":[1.3333333730697632],"min":[0],"type":"SCALAR"},{"bufferView":35,"componentType":5126,"count":24,"max":[0.012259815819561481,0.359375,0.03125],"min":[-0.012500000186264515,0.359375,-0.030649539083242416],"type":"VEC3"},{"bufferView":36,"componentType":5126,"count":158,"max":[7.958333492279053],"min":[0],"type":"SCALAR"},{"bufferView":37,"componentType":5126,"count":158,"max":[0.9994645714759827,0,0,1],"min":[-1,0,0,-0.9998661279678345],"type":"VEC4"},{"bufferView":38,"componentType":5126,"count":158,"max":[7.958333492279053],"min":[0],"type":"SCALAR"},{"bufferView":39,"componentType":5126,"count":158,"max":[0,0.44999998807907104,0],"min":[0,0.34375,0],"type":"VEC3"},{"bufferView":40,"componentType":5126,"count":3,"max":[0.16670000553131104],"min":[0],"type":"SCALAR"},{"bufferView":41,"componentType":5126,"count":3,"max":[0,0,0.03750000149011612],"min":[0,0,0.03125],"type":"VEC3"},{"bufferView":42,"componentType":5126,"count":3,"max":[0.1666666716337204],"min":[0],"type":"SCALAR"},{"bufferView":43,"componentType":5126,"count":3,"max":[0,0,0.03750000149011612],"min":[0,0,0.03125],"type":"VEC3"}],"materials":[{"pbrMetallicRoughness":{"metallicFactor":0,"roughnessFactor":1,"baseColorTexture":{"index":0}},"alphaMode":"MASK","alphaCutoff":0.05,"doubleSided":true}],"textures":[{"sampler":0,"source":0,"name":"voltorb.png"}],"samplers":[{"magFilter":9728,"minFilter":9728,"wrapS":33071,"wrapT":33071}],"images":[{"mimeType":"image/png","uri":"data:image/png;base64,"}],"meshes":[{"primitives":[{"mode":4,"attributes":{"POSITION":0,"NORMAL":1,"TEXCOORD_0":2},"indices":3,"material":0}]},{"primitives":[{"mode":4,"attributes":{"POSITION":4,"NORMAL":5,"TEXCOORD_0":6},"indices":7,"material":0}]},{"primitives":[{"mode":4,"attributes":{"POSITION":8,"NORMAL":9,"TEXCOORD_0":10},"indices":11,"material":0}]},{"primitives":[{"mode":4,"attributes":{"POSITION":12,"NORMAL":13,"TEXCOORD_0":14},"indices":15,"material":0}]},{"primitives":[{"mode":4,"attributes":{"POSITION":16,"NORMAL":17,"TEXCOORD_0":18},"indices":19,"material":0}]},{"primitives":[{"mode":4,"attributes":{"POSITION":20,"NORMAL":21,"TEXCOORD_0":22},"indices":23,"material":0}]},{"primitives":[{"mode":4,"attributes":{"POSITION":24,"NORMAL":25,"TEXCOORD_0":26},"indices":27,"material":0}]},{"primitives":[{"mode":4,"attributes":{"POSITION":28,"NORMAL":29,"TEXCOORD_0":30},"indices":31,"material":0}]}],"animations":[{"name":"animation.voltorb.ground_idle","samplers":[{"input":32,"output":33,"interpolation":"LINEAR"},{"input":34,"output":35,"interpolation":"LINEAR"}],"channels":[{"sampler":0,"target":{"node":15,"path":"rotation"}},{"sampler":1,"target":{"node":15,"path":"translation"}}]},{"name":"animation.voltorb.ground_walk","samplers":[{"input":36,"output":37,"interpolation":"LINEAR"},{"input":38,"output":39,"interpolation":"LINEAR"}],"channels":[{"sampler":0,"target":{"node":15,"path":"rotation"}},{"sampler":1,"target":{"node":15,"path":"translation"}}]},{"name":"animation.voltorb.blink","samplers":[{"input":40,"output":41,"interpolation":"LINEAR"},{"input":42,"output":43,"interpolation":"LINEAR"}],"channels":[{"sampler":0,"target":{"node":8,"path":"translation"}},{"sampler":1,"target":{"node":12,"path":"translation"}}]}]}