{"asset":{"version":"2.0","generator":"Blockbench 4.8.3 glTF exporter"},"scenes":[{"nodes":[33],"name":"blockbench_export"}],"scene":0,"nodes":[{"translation":[0,-0.4375,-0.1875],"name":"torso","mesh":0},{"translation":[0,-0.4375,-0.1875],"name":"stem_top","mesh":1},{"translation":[-0.1875,-0.6875,0.25],"name":"eye_right","mesh":2},{"translation":[-0.1875,-0.6875,0.25],"name":"pupil_right","mesh":3},{"rotation":[0.021794122097790972,-0.0436090071323521,0.0009515519206527927,0.9988104751592564],"translation":[0.15625,0.634375,-0.234375],"name":"eye_right","children":[2,3]},{"translation":[0.1875,-0.6875,0.25],"name":"eye_left","mesh":4},{"translation":[0.1875,-0.6875,0.25],"name":"pupil_left","mesh":5},{"rotation":[0.021794122097790972,0.0436090071323521,-0.0009515519206527927,0.9988104751592564],"translation":[-0.15625,0.634375,-0.234375],"name":"eye_left","children":[5,6]},{"translation":[0,-0.4375,-0.1875],"name":"eyes","children":[4,7]},{"translation":[0,-1.03125,0.03125],"name":"stem1","mesh":6},{"translation":[0,-1.125,0.0625],"name":"stem2","mesh":7},{"translation":[0,-1.25,0.0625],"name":"stem3","mesh":8},{"translation":[0,0.125,0],"name":"stem3","children":[11]},{"translation":[0,0.09375,-0.03125],"name":"stem2","children":[10,12]},{"translation":[0,0.5625,-0.21875],"name":"stem1","children":[9,13]},{"translation":[-0.21875,-0.46875,0.015625],"name":"leaf_right1","mesh":9},{"translation":[-0.46875,-0.6875,0.015625],"name":"leaf_right2","mesh":10},{"translation":[-0.65625,-0.625,0.015625],"name":"leaf_right3","mesh":11},{"translation":[0.1875,0,0],"name":"leaf_right3","children":[17]},{"translation":[0.25,0.21875,0],"name":"leaf_right2","children":[16,18]},{"translation":[0.21875,0,-0.15625],"name":"leaf_right1","children":[15,19]},{"translation":[0.21875,-0.46875,0.015625],"name":"leaf_left1","mesh":12},{"translation":[0.46875,-0.6875,0.015625],"name":"leaf_left2","mesh":13},{"translation":[0.65625,-0.625,0.015625],"name":"leaf_left3","mesh":14},{"translation":[-0.1875,0,0],"name":"leaf_left3","children":[23]},{"translation":[-0.25,0.21875,0],"name":"leaf_left2","children":[22,24]},{"translation":[-0.21875,0,-0.15625],"name":"leaf_left1","children":[21,25]},{"translation":[0,0.375,0.1875],"name":"torso","children":[0,1,8,14,20,26]},{"translation":[0,-0.4375,-0.1875],"name":"torso_bottom","mesh":15},{"translation":[0,-0.4375,-0.1875],"name":"mouth_inside","mesh":16},{"rotation":[0.3007057995042731,0,0,0.9537169507482269],"translation":[0,0.375,0.1875],"name":"torso_bottom","children":[28,29]},{"translation":[0,0,0.09375],"name":"body","children":[27,30]},{"name":"weepinbell","children":[31]},{"children":[32]}],"bufferViews":[{"buffer":0,"byteOffset":0,"byteLength":288,"target":34962,"byteStride":12},{"buffer":0,"byteOffset":288,"byteLength":288,"target":34962,"byteStride":12},{"buffer":0,"byteOffset":576,"byteLength":192,"target":34962,"byteStride":8},{"buffer":0,"byteOffset":768,"byteLength":72,"target":34963},{"buffer":0,"byteOffset":840,"byteLength":288,"target":34962,"byteStride":12},{"buffer":0,"byteOffset":1128,"byteLength":288,"target":34962,"byteStride":12},{"buffer":0,"byteOffset":1416,"byteLength":192,"target":34962,"byteStride":8},{"buffer":0,"byteOffset":1608,"byteLength":72,"target":34963},{"buffer":0,"byteOffset":1680,"byteLength":288,"target":34962,"byteStride":12},{"buffer":0,"byteOffset":1968,"byteLength":288,"target":34962,"byteStride":12},{"buffer":0,"byteOffset":2256,"byteLength":192,"target":34962,"byteStride":8},{"buffer":0,"byteOffset":2448,"byteLength":72,"target":34963},{"buffer":0,"byteOffset":2520,"byteLength":288,"target":34962,"byteStride":12},{"buffer":0,"byteOffset":2808,"byteLength":288,"target":34962,"byteStride":12},{"buffer":0,"byteOffset":3096,"byteLength":192,"target":34962,"byteStride":8},{"buffer":0,"byteOffset":3288,"byteLength":72,"target":34963},{"buffer":0,"byteOffset":3360,"byteLength":288,"target":34962,"byteStride":12},{"buffer":0,"byteOffset":3648,"byteLength":288,"target":34962,"byteStride":12},{"buffer":0,"byteOffset":3936,"byteLength":192,"target":34962,"byteStride":8},{"buffer":0,"byteOffset":4128,"byteLength":72,"target":34963},{"buffer":0,"byteOffset":4200,"byteLength":288,"target":34962,"byteStride":12},{"buffer":0,"byteOffset":4488,"byteLength":288,"target":34962,"byteStride":12},{"buffer":0,"byteOffset":4776,"byteLength":192,"target":34962,"byteStride":8},{"buffer":0,"byteOffset":4968,"byteLength":72,"target":34963},{"buffer":0,"byteOffset":5040,"byteLength":288,"target":34962,"byteStride":12},{"buffer":0,"byteOffset":5328,"byteLength":288,"target":34962,"byteStride":12},{"buffer":0,"byteOffset":5616,"byteLength":192,"target":34962,"byteStride":8},{"buffer":0,"byteOffset":5808,"byteLength":72,"target":34963},{"buffer":0,"byteOffset":5880,"byteLength":288,"target":34962,"byteStride":12},{"buffer":0,"byteOffset":6168,"byteLength":288,"target":34962,"byteStride":12},{"buffer":0,"byteOffset":6456,"byteLength":192,"target":34962,"byteStride":8},{"buffer":0,"byteOffset":6648,"byteLength":72,"target":34963},{"buffer":0,"byteOffset":6720,"byteLength":288,"target":34962,"byteStride":12},{"buffer":0,"byteOffset":7008,"byteLength":288,"target":34962,"byteStride":12},{"buffer":0,"byteOffset":7296,"byteLength":192,"target":34962,"byteStride":8},{"buffer":0,"byteOffset":7488,"byteLength":72,"target":34963},{"buffer":0,"byteOffset":7560,"byteLength":288,"target":34962,"byteStride":12},{"buffer":0,"byteOffset":7848,"byteLength":288,"target":34962,"byteStride":12},{"buffer":0,"byteOffset":8136,"byteLength":192,"target":34962,"byteStride":8},{"buffer":0,"byteOffset":8328,"byteLength":72,"target":34963},{"buffer":0,"byteOffset":8400,"byteLength":288,"target":34962,"byteStride":12},{"buffer":0,"byteOffset":8688,"byteLength":288,"target":34962,"byteStride":12},{"buffer":0,"byteOffset":8976,"byteLength":192,"target":34962,"byteStride":8},{"buffer":0,"byteOffset":9168,"byteLength":72,"target":34963},{"buffer":0,"byteOffset":9240,"byteLength":288,"target":34962,"byteStride":12},{"buffer":0,"byteOffset":9528,"byteLength":288,"target":34962,"byteStride":12},{"buffer":0,"byteOffset":9816,"byteLength":192,"target":34962,"byteStride":8},{"buffer":0,"byteOffset":10008,"byteLength":72,"target":34963},{"buffer":0,"byteOffset":10080,"byteLength":288,"target":34962,"byteStride":12},{"buffer":0,"byteOffset":10368,"byteLength":288,"target":34962,"byteStride":12},{"buffer":0,"byteOffset":10656,"byteLength":192,"target":34962,"byteStride":8},{"buffer":0,"byteOffset":10848,"byteLength":72,"target":34963},{"buffer":0,"byteOffset":10920,"byteLength":288,"target":34962,"byteStride":12},{"buffer":0,"byteOffset":11208,"byteLength":288,"target":34962,"byteStride":12},{"buffer":0,"byteOffset":11496,"byteLength":192,"target":34962,"byteStride":8},{"buffer":0,"byteOffset":11688,"byteLength":72,"target":34963},{"buffer":0,"byteOffset":11760,"byteLength":288,"target":34962,"byteStride":12},{"buffer":0,"byteOffset":12048,"byteLength":288,"target":34962,"byteStride":12},{"buffer":0,"byteOffset":12336,"byteLength":192,"target":34962,"byteStride":8},{"buffer":0,"byteOffset":12528,"byteLength":72,"target":34963},{"buffer":0,"byteOffset":12600,"byteLength":288,"target":34962,"byteStride":12},{"buffer":0,"byteOffset":12888,"byteLength":288,"target":34962,"byteStride":12},{"buffer":0,"byteOffset":13176,"byteLength":192,"target":34962,"byteStride":8},{"buffer":0,"byteOffset":13368,"byteLength":72,"target":34963},{"buffer":0,"byteOffset":13440,"byteLength":288,"target":34962,"byteStride":12},{"buffer":0,"byteOffset":13728,"byteLength":288,"target":34962,"byteStride":12},{"buffer":0,"byteOffset":14016,"byteLength":192,"target":34962,"byteStride":8},{"buffer":0,"byteOffset":14208,"byteLength":72,"target":34963},{"buffer":0,"byteOffset":14280,"byteLength":4},{"buffer":0,"byteOffset":14284,"byteLength":16},{"buffer":0,"byteOffset":14300,"byteLength":4},{"buffer":0,"byteOffset":14304,"byteLength":16},{"buffer":0,"byteOffset":14320,"byteLength":4},{"buffer":0,"byteOffset":14324,"byteLength":16},{"buffer":0,"byteOffset":14340,"byteLength":4},{"buffer":0,"byteOffset":14344,"byteLength":16},{"buffer":0,"byteOffset":14360,"byteLength":4},{"buffer":0,"byteOffset":14364,"byteLength":16},{"buffer":0,"byteOffset":14380,"byteLength":4},{"buffer":0,"byteOffset":14384,"byteLength":16},{"buffer":0,"byteOffset":14400,"byteLength":4},{"buffer":0,"byteOffset":14404,"byteLength":16},{"buffer":0,"byteOffset":14420,"byteLength":4},{"buffer":0,"byteOffset":14424,"byteLength":16},{"buffer":0,"byteOffset":14440,"byteLength":4},{"buffer":0,"byteOffset":14444,"byteLength":16}],"buffers":[{"byteLength":14460,"uri":"data:application/octet-stream;base64,"}],"accessors":[{"bufferView":0,"componentType":5126,"count":24,"max":[0.2199999988079071,0.9387500286102295,0.1887499988079071],"min":[-0.2199999988079071,0.4362500011920929,-0.2512499988079071],"type":"VEC3"},{"bufferView":1,"componentType":5126,"count":24,"max":[1,1,1],"min":[-1,-1,-1],"type":"VEC3"},{"bufferView":2,"componentType":5126,"count":24,"max":[0.437255859375,0.234130859375],"min":[0.000244140625,0.000244140625],"type":"VEC2"},{"bufferView":3,"componentType":5123,"count":36,"max":[23],"min":[0],"type":"SCALAR"},{"bufferView":4,"componentType":5126,"count":24,"max":[0.09437499940395355,1.0006250143051147,0.06312499940395355],"min":[-0.09437499940395355,0.9368749856948853,-0.12562499940395355],"type":"VEC3"},{"bufferView":5,"componentType":5126,"count":24,"max":[1,1,1],"min":[-1,-1,-1],"type":"VEC3"},{"bufferView":6,"componentType":5126,"count":24,"max":[0.515380859375,0.296630859375],"min":[0.328369140625,0.234619140625],"type":"VEC2"},{"bufferView":7,"componentType":5123,"count":36,"max":[23],"min":[0],"type":"SCALAR"},{"bufferView":8,"componentType":5126,"count":24,"max":[0.28125,0.78125,-0.25],"min":[0.09375,0.59375,-0.3125],"type":"VEC3"},{"bufferView":9,"componentType":5126,"count":24,"max":[1,1,1],"min":[-1,-1,-1],"type":"VEC3"},{"bufferView":10,"componentType":5126,"count":24,"max":[0.562255859375,0.468505859375],"min":[0.437744140625,0.406494140625],"type":"VEC2"},{"bufferView":11,"componentType":5123,"count":36,"max":[23],"min":[0],"type":"SCALAR"},{"bufferView":12,"componentType":5126,"count":24,"max":[0.25062501430511475,0.7506250143051147,-0.31343749165534973],"min":[0.12437500059604645,0.6243749856948853,-0.31468749046325684],"type":"VEC3"},{"bufferView":13,"componentType":5126,"count":24,"max":[1,1,1],"min":[-1,-1,-1],"type":"VEC3"},{"bufferView":14,"componentType":5126,"count":24,"max":[0.062255859375,0.577880859375],"min":[-0.000244140625,0.546630859375],"type":"VEC2"},{"bufferView":15,"componentType":5123,"count":36,"max":[23],"min":[0],"type":"SCALAR"},{"bufferView":16,"componentType":5126,"count":24,"max":[-0.09375,0.78125,-0.25],"min":[-0.28125,0.59375,-0.3125],"type":"VEC3"},{"bufferView":17,"componentType":5126,"count":24,"max":[1,1,1],"min":[-1,-1,-1],"type":"VEC3"},{"bufferView":18,"componentType":5126,"count":24,"max":[0.124755859375,0.515380859375],"min":[0.000244140625,0.453369140625],"type":"VEC2"},{"bufferView":19,"componentType":5123,"count":36,"max":[23],"min":[0],"type":"SCALAR"},{"bufferView":20,"componentType":5126,"count":24,"max":[-0.12437500059604645,0.7506250143051147,-0.31343749165534973],"min":[-0.25062501430511475,0.6243749856948853,-0.31468749046325684],"type":"VEC3"},{"bufferView":21,"componentType":5126,"count":24,"max":[1,1,1],"min":[-1,-1,-1],"type":"VEC3"},{"bufferView":22,"componentType":5126,"count":24,"max":[0.062255859375,0.546630859375],"min":[-0.000244140625,0.515380859375],"type":"VEC2"},{"bufferView":23,"componentType":5123,"count":36,"max":[23],"min":[0],"type":"SCALAR"},{"bufferView":24,"componentType":5126,"count":24,"max":[0.0006249999860301614,1.1256250143051147,0.0006249999860301614],"min":[-0.0006249999860301614,0.9993749856948853,-0.06312499940395355],"type":"VEC3"},{"bufferView":25,"componentType":5126,"count":24,"max":[1,1,1],"min":[-1,-1,-1],"type":"VEC3"},{"bufferView":26,"componentType":5126,"count":24,"max":[0.359619140625,0.265380859375],"min":[0.328369140625,0.218994140625],"type":"VEC2"},{"bufferView":27,"componentType":5123,"count":36,"max":[23],"min":[0],"type":"SCALAR"},{"bufferView":28,"componentType":5126,"count":24,"max":[0.0012499999720603228,1.2512500286102295,0.0012499999720603228],"min":[-0.0012499999720603228,1.1237499713897705,-0.0637499988079071],"type":"VEC3"},{"bufferView":29,"componentType":5126,"count":24,"max":[1,1,1],"min":[-1,-1,-1],"type":"VEC3"},{"bufferView":30,"componentType":5126,"count":24,"max":[0.359619140625,0.077880859375],"min":[0.328369140625,0.031494140625],"type":"VEC2"},{"bufferView":31,"componentType":5123,"count":36,"max":[23],"min":[0],"type":"SCALAR"},{"bufferView":32,"componentType":5126,"count":24,"max":[0.0006249999860301614,1.3756250143051147,0.0006249999860301614],"min":[-0.0006249999860301614,1.2493749856948853,-0.06312499940395355],"type":"VEC3"},{"bufferView":33,"componentType":5126,"count":24,"max":[1,1,1],"min":[-1,-1,-1],"type":"VEC3"},{"bufferView":34,"componentType":5126,"count":24,"max":[0.359619140625,0.046630859375],"min":[0.328369140625,0.000244140625],"type":"VEC2"},{"bufferView":35,"componentType":5123,"count":36,"max":[23],"min":[0],"type":"SCALAR"},{"bufferView":36,"componentType":5126,"count":24,"max":[0.46937501430511475,0.6881250143051147,-0.014999999664723873],"min":[0.21812500059604645,0.24937500059604645,-0.016249999403953552],"type":"VEC3"},{"bufferView":37,"componentType":5126,"count":24,"max":[1,1,1],"min":[-1,-1,-1],"type":"VEC3"},{"bufferView":38,"componentType":5126,"count":24,"max":[0.562255859375,0.406005859375],"min":[0.437255859375,0.296630859375],"type":"VEC2"},{"bufferView":39,"componentType":5123,"count":36,"max":[23],"min":[0],"type":"SCALAR"},{"bufferView":40,"componentType":5126,"count":24,"max":[0.6575000286102295,0.6887500286102295,-0.014375000260770321],"min":[0.4675000011920929,0.2487500011920929,-0.016875000670552254],"type":"VEC3"},{"bufferView":41,"componentType":5126,"count":24,"max":[1,1,1],"min":[-1,-1,-1],"type":"VEC3"},{"bufferView":42,"componentType":5126,"count":24,"max":[0.093505859375,0.343505859375],"min":[-0.000244140625,0.234130859375],"type":"VEC2"},{"bufferView":43,"componentType":5123,"count":36,"max":[23],"min":[0],"type":"SCALAR"},{"bufferView":44,"componentType":5126,"count":24,"max":[0.8443750143051147,0.6256250143051147,-0.014999999664723873],"min":[0.6556249856948853,0.24937500059604645,-0.016249999403953552],"type":"VEC3"},{"bufferView":45,"componentType":5126,"count":24,"max":[1,1,1],"min":[-1,-1,-1],"type":"VEC3"},{"bufferView":46,"componentType":5126,"count":24,"max":[0.312255859375,0.546630859375],"min":[0.218505859375,0.452880859375],"type":"VEC2"},{"bufferView":47,"componentType":5123,"count":36,"max":[23],"min":[0],"type":"SCALAR"},{"bufferView":48,"componentType":5126,"count":24,"max":[-0.21812500059604645,0.6881250143051147,-0.014999999664723873],"min":[-0.46937501430511475,0.24937500059604645,-0.016249999403953552],"type":"VEC3"},{"bufferView":49,"componentType":5126,"count":24,"max":[1,1,1],"min":[-1,-1,-1],"type":"VEC3"},{"bufferView":50,"componentType":5126,"count":24,"max":[0.562255859375,0.218505859375],"min":[0.437255859375,0.109130859375],"type":"VEC2"},{"bufferView":51,"componentType":5123,"count":36,"max":[23],"min":[0],"type":"SCALAR"},{"bufferView":52,"componentType":5126,"count":24,"max":[-0.4675000011920929,0.6887500286102295,-0.014375000260770321],"min":[-0.6575000286102295,0.2487500011920929,-0.016875000670552254],"type":"VEC3"},{"bufferView":53,"componentType":5126,"count":24,"max":[1,1,1],"min":[-1,-1,-1],"type":"VEC3"},{"bufferView":54,"componentType":5126,"count":24,"max":[0.093505859375,0.109130859375],"min":[-0.000244140625,-0.000244140625],"type":"VEC2"},{"bufferView":55,"componentType":5123,"count":36,"max":[23],"min":[0],"type":"SCALAR"},{"bufferView":56,"componentType":5126,"count":24,"max":[-0.6556249856948853,0.6256250143051147,-0.014999999664723873],"min":[-0.8443750143051147,0.24937500059604645,-0.016249999403953552],"type":"VEC3"},{"bufferView":57,"componentType":5126,"count":24,"max":[1,1,1],"min":[-1,-1,-1],"type":"VEC3"},{"bufferView":58,"componentType":5126,"count":24,"max":[0.218505859375,0.546630859375],"min":[0.124755859375,0.452880859375],"type":"VEC2"},{"bufferView":59,"componentType":5123,"count":36,"max":[23],"min":[0],"type":"SCALAR"},{"bufferView":60,"componentType":5126,"count":24,"max":[0.21937499940395355,0.43812501430511475,0.18812499940395355],"min":[-0.21937499940395355,-0.0006249999860301614,-0.25062501430511475],"type":"VEC3"},{"bufferView":61,"componentType":5126,"count":24,"max":[1,1,1],"min":[-1,-1,-1],"type":"VEC3"},{"bufferView":62,"componentType":5126,"count":24,"max":[0.437255859375,0.452880859375],"min":[0.000244140625,0.234619140625],"type":"VEC2"},{"bufferView":63,"componentType":5123,"count":36,"max":[23],"min":[0],"type":"SCALAR"},{"bufferView":64,"componentType":5126,"count":24,"max":[0.15625,0.125,0.125],"min":[-0.15625,0,-0.1875],"type":"VEC3"},{"bufferView":65,"componentType":5126,"count":24,"max":[1,1,1],"min":[-1,-1,-1],"type":"VEC3"},{"bufferView":66,"componentType":5126,"count":24,"max":[0.640380859375,0.109130859375],"min":[0.328369140625,0.000244140625],"type":"VEC2"},{"bufferView":67,"componentType":5123,"count":36,"max":[23],"min":[0],"type":"SCALAR"},{"bufferView":68,"componentType":5126,"count":1,"max":[0],"min":[0],"type":"SCALAR"},{"bufferView":69,"componentType":5126,"count":1,"max":[0.15212339162826538,0,0,0.9883615374565125],"min":[0.15212339162826538,0,0,0.9883615374565125],"type":"VEC4"},{"bufferView":70,"componentType":5126,"count":1,"max":[0],"min":[0],"type":"SCALAR"},{"bufferView":71,"componentType":5126,"count":1,"max":[0.258819043636322,0,0,0.9659258127212524],"min":[0.258819043636322,0,0,0.9659258127212524],"type":"VEC4"},{"bufferView":72,"componentType":5126,"count":1,"max":[0],"min":[0],"type":"SCALAR"},{"bufferView":73,"componentType":5126,"count":1,"max":[0.5555702447891235,0,0,0.8314695954322815],"min":[0.5555702447891235,0,0,0.8314695954322815],"type":"VEC4"},{"bufferView":74,"componentType":5126,"count":1,"max":[0],"min":[0],"type":"SCALAR"},{"bufferView":75,"componentType":5126,"count":1,"max":[0.19134171307086945,0.19134171307086945,0.03806023299694061,0.9619397521018982],"min":[0.19134171307086945,0.19134171307086945,0.03806023299694061,0.9619397521018982],"type":"VEC4"},{"bufferView":76,"componentType":5126,"count":1,"max":[0],"min":[0],"type":"SCALAR"},{"bufferView":77,"componentType":5126,"count":1,"max":[0,-0.19509032368659973,0,0.9807852506637573],"min":[0,-0.19509032368659973,0,0.9807852506637573],"type":"VEC4"},{"bufferView":78,"componentType":5126,"count":1,"max":[0],"min":[0],"type":"SCALAR"},{"bufferView":79,"componentType":5126,"count":1,"max":[0,-0.19509032368659973,0,0.9807852506637573],"min":[0,-0.19509032368659973,0,0.9807852506637573],"type":"VEC4"},{"bufferView":80,"componentType":5126,"count":1,"max":[0],"min":[0],"type":"SCALAR"},{"bufferView":81,"componentType":5126,"count":1,"max":[0.19134171307086945,-0.19134171307086945,-0.03806023299694061,0.9619397521018982],"min":[0.19134171307086945,-0.19134171307086945,-0.03806023299694061,0.9619397521018982],"type":"VEC4"},{"bufferView":82,"componentType":5126,"count":1,"max":[0],"min":[0],"type":"SCALAR"},{"bufferView":83,"componentType":5126,"count":1,"max":[0,0.19509032368659973,0,0.9807852506637573],"min":[0,0.19509032368659973,0,0.9807852506637573],"type":"VEC4"},{"bufferView":84,"componentType":5126,"count":1,"max":[0],"min":[0],"type":"SCALAR"},{"bufferView":85,"componentType":5126,"count":1,"max":[0,0.19509032368659973,0,0.9807852506637573],"min":[0,0.19509032368659973,0,0.9807852506637573],"type":"VEC4"}],"materials":[{"pbrMetallicRoughness":{"metallicFactor":0,"roughnessFactor":1,"baseColorTexture":{"index":0}},"alphaMode":"MASK","alphaCutoff":0.05,"doubleSided":true}],"textures":[{"sampler":0,"source":0,"name":"weepinbell.png"}],"samplers":[{"magFilter":9728,"minFilter":9728,"wrapS":33071,"wrapT":33071}],"images":[{"mimeType":"image/png","uri":"data:image/png;base64,"}],"meshes":[{"primitives":[{"mode":4,"attributes":{"POSITION":0,"NORMAL":1,"TEXCOORD_0":2},"indices":3,"material":0}]},{"primitives":[{"mode":4,"attributes":{"POSITION":4,"NORMAL":5,"TEXCOORD_0":6},"indices":7,"material":0}]},{"primitives":[{"mode":4,"attributes":{"POSITION":8,"NORMAL":9,"TEXCOORD_0":10},"indices":11,"material":0}]},{"primitives":[{"mode":4,"attributes":{"POSITION":12,"NORMAL":13,"TEXCOORD_0":14},"indices":15,"material":0}]},{"primitives":[{"mode":4,"attributes":{"POSITION":16,"NORMAL":17,"TEXCOORD_0":18},"indices":19,"material":0}]},{"primitives":[{"mode":4,"attributes":{"POSITION":20,"NORMAL":21,"TEXCOORD_0":22},"indices":23,"material":0}]},{"primitives":[{"mode":4,"attributes":{"POSITION":24,"NORMAL":25,"TEXCOORD_0":26},"indices":27,"material":0}]},{"primitives":[{"mode":4,"attributes":{"POSITION":28,"NORMAL":29,"TEXCOORD_0":30},"indices":31,"material":0}]},{"primitives":[{"mode":4,"attributes":{"POSITION":32,"NORMAL":33,"TEXCOORD_0":34},"indices":35,"material":0}]},{"primitives":[{"mode":4,"attributes":{"POSITION":36,"NORMAL":37,"TEXCOORD_0":38},"indices":39,"material":0}]},{"primitives":[{"mode":4,"attributes":{"POSITION":40,"NORMAL":41,"TEXCOORD_0":42},"indices":43,"material":0}]},{"primitives":[{"mode":4,"attributes":{"POSITION":44,"NORMAL":45,"TEXCOORD_0":46},"indices":47,"material":0}]},{"primitives":[{"mode":4,"attributes":{"POSITION":48,"NORMAL":49,"TEXCOORD_0":50},"indices":51,"material":0}]},{"primitives":[{"mode":4,"attributes":{"POSITION":52,"NORMAL":53,"TEXCOORD_0":54},"indices":55,"material":0}]},{"primitives":[{"mode":4,"attributes":{"POSITION":56,"NORMAL":57,"TEXCOORD_0":58},"indices":59,"material":0}]},{"primitives":[{"mode":4,"attributes":{"POSITION":60,"NORMAL":61,"TEXCOORD_0":62},"indices":63,"material":0}]},{"primitives":[{"mode":4,"attributes":{"POSITION":64,"NORMAL":65,"TEXCOORD_0":66},"indices":67,"material":0}]}],"animations":[{"name":"animation.weepinbell.ground_idle","samplers":[{"input":68,"output":69,"interpolation":"LINEAR"},{"input":70,"output":71,"interpolation":"LINEAR"},{"input":72,"output":73,"interpolation":"LINEAR"},{"input":74,"output":75,"interpolation":"LINEAR"},{"input":76,"output":77,"interpolation":"LINEAR"},{"input":78,"output":79,"interpolation":"LINEAR"},{"input":80,"output":81,"interpolation":"LINEAR"},{"input":82,"output":83,"interpolation":"LINEAR"},{"input":84,"output":85,"interpolation":"LINEAR"}],"channels":[{"sampler":0,"target":{"node":14,"path":"rotation"}},{"sampler":1,"target":{"node":13,"path":"rotation"}},{"sampler":2,"target":{"node":12,"path":"rotation"}},{"sampler":3,"target":{"node":20,"path":"rotation"}},{"sampler":4,"target":{"node":19,"path":"rotation"}},{"sampler":5,"target":{"node":18,"path":"rotation"}},{"sampler":6,"target":{"node":26,"path":"rotation"}},{"sampler":7,"target":{"node":25,"path":"rotation"}},{"sampler":8,"target":{"node":24,"path":"rotation"}}]}]}